<?xml version="1.0" encoding="utf-8"?>
<!DOCTYPE svg PUBLIC "-//W3C//DTD SVG 20010904//EN" "http://www.w3.org/TR/2001/REC-SVG-20010904/DTD/svg10.dtd">
<svg version="1.0" xmlns="http://www.w3.org/2000/svg" width="150px" height="153px" viewBox="0 0 150 153" preserveAspectRatio="xMidYMid meet">
 <g fill="#62163d">
  <path d="M42 144.3 c-11.5 -5.9 -13.3 -8.1 -13.4 -16.5 l-0.1 -6.3 5.1 -0.3 c5.5 -0.3 6.4 0.6 6.4 6.6 0 2.6 3.6 6.1 6.3 6.2 2.2 0 2.1 -0.9 -0.3 -4 -1.1 -1.4 -2 -3.2 -2 -4.1 0 -0.9 -0.6 -1.9 -1.3 -2.2 -0.8 -0.3 -2.4 -2.6 -3.6 -5.1 -1.6 -3.6 -2.6 -4.6 -4.5 -4.6 -2.9 0 -3.1 -0.5 -4.6 -18.3 -1.3 -14.5 -2.8 -21.3 -2.9 -13.7 -0.1 2.5 -1 7 -2.1 10 -1.1 3.1 -2 8 -2 11.2 0 5.1 -0.4 6.1 -3.5 9.5 -1.9 2.1 -3.5 4.4 -3.5 5.1 0 3.3 -3.7 0.1 -6.7 -5.6 l-3.2 -6.3 1.9 -3.2 c1.1 -1.7 2 -4.9 2 -6.9 0 -2 0.6 -4.9 1.4 -6.5 8.9 -17.6 8.4 -16.3 5.6 -16.3 -1.1 0 -2 -0.3 -2 -0.7 0 -0.5 -2.5 -0.6 -5.6 -0.4 l-5.7 0.3 0.7 -8.8 c0.7 -9.4 1.1 -10.1 7.6 -14.6 l2.5 -1.7 -3.7 0 c-4.3 -0.1 -4.5 -0.6 -2.1 -5.6 1.7 -3.5 1.7 -3.5 8 -3.5 5.8 0 6.4 0.2 7.5 2.5 0.6 1.4 1.4 2.5 1.8 2.5 0.4 0 2.8 -1.7 5.4 -3.7 3.4 -2.9 4.6 -4.5 4.6 -6.5 0 -2.4 0.4 -2.8 3 -2.8 1.7 0 3 -0.4 3 -1 0 -1.4 11.4 -1.2 12.8 0.2 0.7 0.7 1.2 2.5 1.2 4 l0 2.8 3.6 -1.5 c4.2 -1.7 18.8 -2 23 -0.5 4.8 1.8 16.3 12.3 18.8 17 2 3.7 2.7 12.5 1.7 21.4 -1 8.6 -1.7 9.6 -7 9.6 l-3.4 0 0.6 -6.2 c0.4 -4.2 0.1 -7 -0.8 -8.7 -1.7 -3.2 -7.3 -8.7 -8.1 -7.9 -0.3 0.4 0.3 1.1 1.5 1.7 3.8 2.1 5.5 13.7 2.5 17.9 -1.3 1.9 -2.4 2.2 -5.7 2 -3.7 -0.3 -4.2 -0.6 -4.9 -3.5 -1 -3.8 -2.1 -4.7 -5.1 -3.9 -3.6 0.9 -5.9 10.6 -2.5 10.6 0.5 0 2.1 1.4 3.5 3 5.2 6.3 10.8 7.6 17.4 4.2 6.3 -3.3 7.3 -4.2 10.8 -9.7 5 -7.8 6.6 -14.6 5.2 -21.4 -1.5 -6.9 -4.9 -14.1 -6.7 -14.1 -0.8 0 -1.4 -1.1 -1.5 -2.7 0 -2.1 -1.7 -4.2 -6.7 -8.6 -9.1 -8 -16.3 -11.5 -26.5 -12.8 -7.5 -0.9 -16.7 -4.2 -16.7 -6.1 0 -0.3 -1.4 -2.1 -3.2 -3.8 -3.8 -3.8 -3.3 -4.5 5.6 -7.5 l5.5 -1.9 2.2 2.8 c2.7 3.5 9.2 6.5 13.9 6.6 1.9 0 4.8 0.7 6.4 1.5 1.5 0.8 3.3 1.5 4 1.5 2.3 0 16.9 12.7 21.7 19 5 6.5 10.1 16 11.4 21.2 0.4 1.6 1.3 2.8 2.1 2.8 1.7 0 1.1 -4.1 -1.7 -11.8 -2.1 -5.7 -2.5 -11.2 -0.9 -11.2 0.6 0 1 -0.4 1 -1 0 -0.5 -1.6 -1 -3.5 -1 -2.8 0 -3.5 -0.4 -3.5 -2 0 -1.1 -0.4 -2 -1 -2 -0.5 0 -1 -0.7 -1 -1.5 0 -0.8 -0.5 -1.5 -1.1 -1.5 -0.6 0 -2.4 -1.1 -4.1 -2.5 -1.6 -1.4 -3.8 -2.5 -4.8 -2.5 -2.8 0 -4.4 -5.1 -3.6 -11.7 0.4 -3.1 0.8 -5.8 1 -6 0.1 -0.2 2 0.3 4.1 1 3.1 1.1 4.1 2.1 4.9 4.8 l0.9 3.4 0.6 -2.7 0.6 -2.7 6.3 3.5 c3.5 2 6.8 4.7 7.4 6 0.6 1.3 1.7 2.4 2.5 2.4 0.8 0 1.3 1.2 1.3 3.5 0 1.8 0.6 3.8 1.3 4.2 2.3 1.5 3.7 6.3 3.7 12.8 0 5.3 -0.3 6.5 -1.6 6.5 -2.3 0 -1.1 2.4 1.4 2.8 1.6 0.3 2.2 1.3 2.8 4.8 0.3 2.4 1.1 4.8 1.8 5.2 3.3 2.1 4.9 10.5 2.2 11.5 -0.7 0.3 -1.7 2.3 -2.1 4.4 -0.4 2.1 -1.1 4.4 -1.7 5.1 -0.6 0.7 -1.8 2.7 -2.7 4.5 -1.3 2.6 -2.3 3.3 -5.4 3.5 l-3.8 0.3 0.7 -12.3 c0.7 -11.4 0.6 -12.1 -0.9 -10.6 -1.2 1.1 -1.7 3.4 -1.7 7.1 0 2.9 -0.7 7.3 -1.5 9.8 -1.7 4.9 -7.9 13.6 -11 15.3 -1.1 0.6 -2.4 1.7 -2.8 2.4 -0.4 0.6 -2.1 1.2 -3.7 1.2 -1.9 0 -3 0.5 -3 1.4 0 1.5 -3 2.6 -7.2 2.6 -2.1 0 -2.8 -0.5 -2.8 -2 0 -1.7 -0.7 -2 -4 -2 -2.9 0 -4 0.4 -4 1.5 0 1 -1.1 1.5 -3.5 1.5 -2.8 0 -3.5 -0.4 -3.5 -2 0 -1.5 -0.7 -2 -2.8 -2 -2.9 0 -6.2 -2.6 -6.2 -4.8 0 -0.7 -0.5 -1.2 -1.1 -1.2 -0.7 0 -1 -1.5 -0.7 -4 0.3 -3.6 0.1 -4 -1.9 -4 -2 0 -2.3 -0.5 -2.3 -3.5 0 -3.1 0.3 -3.5 2.5 -3.5 1.7 0 2.5 -0.6 2.5 -1.7 0 -1.3 -0.3 -1.4 -1.2 -0.5 -0.7 0.7 -2.7 1.2 -4.5 1.2 -3 0 -3.3 -0.3 -3.3 -3.1 0 -1.8 1 -5.8 2.3 -9.1 1.8 -4.8 2.8 -6.1 5.9 -7.6 3.2 -1.5 5 -3.2 3.3 -3.2 -1.6 0 -8.1 3.3 -9.6 4.8 -0.9 0.9 -2.6 2.4 -3.8 3.2 -1.1 0.8 -2.1 2 -2.1 2.7 0 0.6 -0.6 1.6 -1.3 2 -1.8 1.1 -3.8 6 -4.7 11.8 -0.9 5.4 0.7 23.5 2.2 23.5 0.4 0 0.8 0.8 0.8 1.7 0 3.2 3.4 12.4 5.7 15.3 4.8 6.2 8.8 10.7 10.4 11.8 1.1 0.7 1.9 1.9 1.9 2.6 0 0.8 0.7 1.9 1.6 2.6 1 0.9 1.4 2.6 1.2 4.9 -0.3 3.3 -0.6 3.6 -3.7 3.9 -3.8 0.4 -7.2 -2.2 -9.1 -6.9 -0.7 -1.6 -1.7 -2.9 -2.2 -2.9 -0.6 0 -0.7 0.8 -0.3 1.8 0.9 2.1 1.9 11.2 1.3 11.2 -0.3 0 -4.7 -2.1 -9.8 -4.7z m-9.7 -81.8 c1.4 -2.7 4.6 -7.4 7.1 -10.3 2.8 -3.3 4.6 -6.3 4.6 -7.8 0 -2.8 -0.4 -2.7 -6.2 1.9 -3.1 2.3 -3.8 3.5 -3.8 6.3 0 2.6 -0.4 3.4 -1.8 3.4 -2.8 0 -4.2 2.1 -4.2 6.2 0 2.1 -0.4 3.8 -0.8 3.8 -0.5 0 -1.4 1.1 -2 2.4 -1 2.2 -0.8 2.5 1.1 2.8 1.5 0.2 2.4 -0.3 2.8 -1.7 0.3 -1.1 1.8 -4.2 3.2 -7z m51.3 -15.4 c-0.8 -1.2 -9.4 -4.1 -12.3 -4.1 -1.4 0 -3.4 0.6 -4.6 1.2 -1.9 1.1 -1.2 1.4 6.3 2.4 11.5 1.5 11.2 1.5 10.6 0.5z"/>
  <path d="M103.5 142 c-1.6 -0.4 -5.3 -0.8 -8.1 -0.9 -2.7 0 -5.4 -0.5 -6 -1.1 -1.7 -1.7 -13.6 -6 -16.7 -6 -1.7 0 -4.3 -1.2 -6.7 -3.2 -3.7 -3.1 -4 -3.7 -4 -8.5 l0 -5.3 4.5 0 c3.4 0 5.8 0.9 10.7 4 3.5 2.2 7.3 4 8.4 4 2.5 0 9 2.6 9.8 3.9 0.9 1.4 8 2.1 20.5 2.2 l11.3 0 -2.3 2.5 c-1.3 1.4 -4.7 4.1 -7.5 5.9 -5.3 3.5 -8 4 -13.9 2.5z"/>
  <path d="M107.3 124 c-1.9 -0.8 -2.3 -1.7 -2.3 -5.4 0 -4 0.3 -4.5 2.8 -5.1 3.1 -0.7 13.3 -6.5 11.5 -6.5 -0.8 0 -1.3 -1.3 -1.3 -3.4 0 -2.7 0.9 -4.2 5.4 -8.4 5.7 -5.2 8.1 -9.1 11.7 -18.8 1.2 -3.2 3.5 -7.8 5 -10.3 1.6 -2.5 2.9 -5.1 2.9 -5.8 0 -0.8 1.2 -1.3 2.9 -1.3 2.4 0 2.9 0.5 3.5 3.1 1.2 6.3 0.7 12.1 -1.1 12.5 -1 0.3 -3.6 4.1 -5.8 8.6 -5.1 10.2 -5.2 10.7 -2.8 8.6 1.1 -1.1 3.6 -1.8 5.8 -1.8 3.7 0 3.8 0 3.2 3.4 -0.8 4.9 -6.4 18.4 -9.9 23.9 l-3.1 4.8 -4.6 -0.6 c-3.3 -0.4 -6.2 0 -10.5 1.5 -6.3 2.1 -9.8 2.4 -13.3 1z"/>
  <path d="M21.4 33.1 l-3.2 -5.9 5.3 -5.2 5.3 -5.3 0.6 6.9 c0.2 3.8 0.8 8.8 1.1 11.2 l0.7 4.2 -3.3 0 c-3.1 0 -3.7 -0.5 -6.5 -5.9z"/>
 </g>
 <g fill="#40314c">
  <path d="M51.8 148.8 c-1.6 -0.5 -2.8 -1.6 -2.8 -2.4 0 -0.7 -0.7 -3.2 -1.6 -5.4 -1.2 -2.9 -2.2 -4 -3.8 -4 -4.3 -0.1 -10.2 -7.4 -7.4 -9.2 1 -0.6 0.8 -0.8 -0.4 -0.8 -2.1 0 -2.4 -1.6 -0.5 -2.4 0.6 -0.3 0 -0.4 -1.5 -0.2 -1.9 0.2 -2.8 -0.1 -2.8 -1 0 -0.8 -0.7 -1.4 -1.5 -1.4 -1 0 -1.5 -1.1 -1.5 -3.5 0 -3.5 0 -3.5 4.5 -3.5 4.5 0 4.5 0 4.5 3.5 0 1.9 0.3 3.5 0.8 3.5 0.4 0 1.6 2 2.7 4.5 1.6 3.7 2.4 4.5 4.6 4.5 1.7 0 3 0.8 3.7 2.3 l1.1 2.2 0.1 -2.5 c0.1 -1.4 0.4 -2 0.6 -1.3 0.3 0.7 1.1 1 1.9 0.7 0.9 -0.4 2.1 0.9 3.3 3.3 2.3 4.4 5.7 7.8 6.6 6.5 0.3 -0.5 -0.1 -1.5 -0.9 -2.2 -0.8 -0.7 -1.5 -1.9 -1.5 -2.6 0 -0.7 -1.1 -2.1 -2.5 -3 -2.5 -1.6 -3.3 -3.4 -1.6 -3.4 0.5 0 2.5 2.2 4.5 4.9 2.8 3.7 3.6 5.8 3.6 9 0 4 -0.1 4.1 -3.4 4.1 -1.9 0 -3.7 -0.6 -3.9 -1.2 -0.3 -0.8 -0.6 -0.6 -0.6 0.5 -0.1 1.9 -0.5 2 -4.3 0.5z"/>
  <path d="M45 145 c-0.9 -1.6 -0.8 -1.8 0.5 -1.4 0.8 0.4 1.5 1.2 1.5 2 0 2 -0.7 1.7 -2 -0.6z"/>
  <path d="M91.7 131.2 c-2.6 -2.9 -2 -4.2 1.8 -4.2 3.2 0 3.5 0.2 3.5 3 0 3.5 -2.7 4.1 -5.3 1.2z"/>
  <path d="M76.1 125.2 c-2.8 -1.8 -5.1 -3.7 -5.1 -4.2 0 -1.8 7.8 -1 11.9 1.2 2.8 1.5 4.1 2.8 4.1 4.2 0 3.2 -4.8 2.7 -10.9 -1.2z"/>
  <path d="M100.3 127.3 c-0.8 -0.3 -1.3 -2.3 -1.3 -4.9 l0 -4.4 4.1 0 c2.7 0 4.6 0.6 5.4 1.6 0.6 0.9 2.4 1.7 3.8 1.7 2.2 0 2.7 0.4 2.7 2.3 0 1.7 -0.6 2.4 -1.9 2.4 -1.1 0 -2.3 0.5 -2.6 1 -0.6 1 -8 1.3 -10.2 0.3z"/>
  <path d="M107 111.9 c0 -4.2 7.1 -10.8 11.6 -10.9 2.8 0 3.1 0.3 3.2 3.4 0.2 4.7 -6.1 10.6 -11.3 10.6 -3.3 0 -3.5 -0.2 -3.5 -3.1z"/>
  <path d="M15 112.1 c0 -0.4 1.1 -2 2.5 -3.5 2.8 -3 3.3 -6.6 1 -6.6 -2 0 -1.9 -2.5 0.2 -5 2.5 -2.9 4.3 -2.5 4.3 0.9 0 1.5 0.3 5.6 0.6 9 l0.7 6.1 -4.7 0 c-2.5 0 -4.6 -0.4 -4.6 -0.9z"/>
  <path d="M42 107.5 c0 -0.8 -0.4 -1.5 -1 -1.5 -0.5 0 -1 -0.6 -1 -1.4 0 -0.8 -0.6 -1.7 -1.2 -1.9 -1 -0.4 -1 -0.6 0 -0.6 0.6 -0.1 1.2 -0.8 1.2 -1.7 0 -0.9 0.7 -1.4 1.8 -1.2 1.3 0.2 1.8 1.5 2 5.1 0.2 2.8 -0.1 4.7 -0.7 4.7 -0.6 0 -1.1 -0.7 -1.1 -1.5z"/>
  <path d="M12 88.9 c0 -4.4 4 -10.9 6.8 -10.9 2.7 0 2.7 0.2 -0.2 5.9 -1.3 2.5 -2.7 5.4 -3 6.4 -1 3 -3.6 2 -3.6 -1.4z"/>
  <path d="M21.7 90.4 c0.3 -0.9 0 -2 -0.8 -2.5 -1.1 -0.7 -0.9 -0.9 0.6 -0.9 1.7 0 1.7 -0.2 0.5 -1 -1.2 -0.8 -1.2 -1 0.5 -1 1.6 0 1.7 -0.2 0.6 -0.9 -1.2 -0.8 -1.3 -1.5 -0.4 -3.4 0.9 -2 1.9 -2.5 4.8 -2.5 4 0 4.1 0.1 5 7.7 l0.6 5.4 -3.5 -0.6 c-2 -0.3 -3.6 -0.2 -3.6 0.4 0 0.5 -1.1 0.9 -2.5 0.9 -1.8 0 -2.3 -0.4 -1.8 -1.6z"/>
  <path d="M83 87.6 c0 -3.2 -0.3 -3.5 -3.2 -3.8 -2.8 -0.3 -3.3 -0.7 -3.6 -3.3 -0.2 -1.6 -0.8 -3.4 -1.3 -3.9 -1.5 -1.7 -1.1 -7.6 0.6 -7.6 2.1 0 5.5 3.6 5.5 5.9 0 2.5 1.8 3.7 3.3 2.2 1.8 -1.8 2.7 -1.3 2.7 1.4 0 2.3 0.3 2.5 5 2.5 l5 0 0 3.9 c0 3.5 -0.3 4 -3.1 5 -1.8 0.6 -4.9 1.1 -7 1.1 -3.8 0 -3.9 -0.1 -3.9 -3.4z"/>
  <path d="M102 84 c0 -4.6 2 -8 4.7 -8 2.9 0 2.9 0.2 -0.4 6.1 -3 5.6 -4.3 6.2 -4.3 1.9z"/>
  <path d="M106.6 85.5 c0.4 -0.8 1 -1.2 1.5 -0.9 1.4 0.8 1 2.4 -0.6 2.4 -0.9 0 -1.2 -0.6 -0.9 -1.5z"/>
  <path d="M49.7 78.3 c-1.3 -1.3 -0.7 -8.5 1 -11.4 1.4 -2.3 2.4 -2.9 5.1 -2.9 3 0 3.3 0.2 2.6 2.3 -0.3 1.2 -1.3 3.4 -2 4.9 -2 3.8 -1.7 4.7 0.6 1.9 2.3 -2.7 2.5 -2.1 0.8 2.6 -1 2.8 -1.7 3.3 -4.3 3.3 -1.8 0 -3.5 -0.3 -3.8 -0.7z"/>
  <path d="M5.3 74.3 c-2.2 -0.4 -2.3 -0.9 -2.3 -8.9 0 -10.4 1.5 -13.4 6.6 -13.4 4 0 4.2 0.4 1 3.3 -2.9 2.7 -4.7 13.7 -2.2 13.7 2.5 0 4.6 -1.2 4.6 -2.5 0 -1.3 3.5 -2.7 4.4 -1.7 0.3 0.3 0.6 1.6 0.6 3 0 2.1 0.2 2.2 1.5 1.2 1.3 -1 1.5 -0.9 1.5 0.9 0 1.7 -0.6 2.1 -3.5 2.1 -2.4 0 -3.5 0.5 -3.5 1.5 0 1.5 -3.5 1.8 -8.7 0.8z"/>
  <path d="M24 63 c1.1 -0.7 1.2 -1.2 0.4 -1.7 -2 -1.3 1.7 -7.6 4.9 -8.4 2.5 -0.7 2.7 -0.5 2.7 2.6 0 5.9 -1.8 8.5 -5.9 8.5 -2.7 0 -3.2 -0.3 -2.1 -1z"/>
  <path d="M6.3 47 c0.8 -2 2.1 -3.1 5.1 -4 2.6 -0.8 4.1 -0.9 4.4 -0.2 0.1 0.5 1.2 0.8 2.2 0.5 2.3 -0.6 2.7 1.6 0.8 3.5 -1.8 1.8 -0.4 2.4 1.7 0.8 1.6 -1.2 1.7 -1.8 0.8 -3.8 -0.9 -1.9 -1.9 -2.5 -4.7 -2.6 -2 -0.1 -4.8 0.3 -6.1 0.8 -2.3 0.9 -2.5 0.8 -1.5 -1 1.1 -2.1 4.9 -2.6 10.9 -1.4 3.1 0.6 3.2 0.8 2.9 5.3 l-0.3 4.6 -8.6 0.2 -8.7 0.2 1.1 -2.9z"/>
  <path d="M52 38.5 l0 -3.5 5 0 c6.4 0 6.6 1.8 0.5 4.8 -2.5 1.2 -4.8 2.2 -5 2.2 -0.3 0 -0.5 -1.6 -0.5 -3.5z"/>
  <path d="M118.2 31.7 c-0.6 -0.6 -1.2 -2.3 -1.5 -3.7 -0.2 -1.4 -0.2 -1.9 0 -1.2 0.3 0.6 0.8 1.2 1.2 1.2 0.4 0 1.3 1.1 1.9 2.5 1.2 2.6 0.2 3.4 -1.6 1.2z"/>
  <path d="M124 31.7 c0 -0.7 -0.9 -1.8 -2.1 -2.5 -1.2 -0.7 -1.8 -1.6 -1.5 -1.9 0.3 -0.4 0.1 -1.3 -0.6 -2 -0.9 -1.1 -0.9 -1.7 0.3 -2.4 1.1 -0.7 1.1 -0.9 -0.3 -0.9 -1 0 -1.8 -0.4 -1.8 -1 0 -0.5 1.1 -1 2.5 -1 1.8 0 2.5 0.5 2.5 2 0 1.1 0.6 2 1.4 2 1.7 0 2.6 2.2 2.6 6.1 0 1.9 -0.5 2.9 -1.5 2.9 -0.8 0 -1.5 -0.6 -1.5 -1.3z"/>
  <path d="M20.6 27 c-1.4 -0.4 -1.6 -0.9 -0.8 -1.4 0.7 -0.4 1.7 -0.4 2.4 0 0.7 0.5 0.9 0.2 0.6 -0.8 -0.6 -1.5 4.8 -7.5 5.9 -6.5 0.3 0.3 0.8 2.6 1 5.2 0.5 4 0.3 4.5 -1.4 4.5 -1 0 -2.5 -0.6 -3.1 -1.2 -0.9 -0.9 -1.5 -1 -2 -0.2 -0.4 0.6 -1.6 0.8 -2.6 0.4z"/>
  <path d="M98 24.2 c0 -0.5 -2 -3 -4.5 -5.6 -3.7 -4 -4.5 -5.5 -4.5 -8.7 0 -3.8 0.1 -3.9 3.4 -3.9 3.9 0 6 2 5.2 4.8 -1 3.1 1.3 6.9 4.5 7.6 2.4 0.5 2.9 1 2.9 3.6 0 2.8 -0.3 3 -3.5 3 -1.9 0 -3.5 -0.4 -3.5 -0.8z"/>
  <path d="M54.6 6.6 c-1.7 -2.7 -1.5 -3 2.7 -4 2.6 -0.6 2.7 -0.5 2.7 2.9 0 2.8 -0.4 3.5 -1.9 3.5 -1 0 -2.6 -1.1 -3.5 -2.4z"/>
 </g>
 <g fill="#1f4a5a">
  <path d="M51.7 146 c-1 -1.2 -1.5 -2.5 -1.2 -3 0.3 -0.5 -0.8 -2.4 -2.5 -4.1 -1.6 -1.8 -3 -3.6 -3 -4 0 -0.5 -1.3 -0.9 -3 -0.9 -2 0 -3 -0.5 -3 -1.5 0 -0.7 -0.7 -1.8 -1.6 -2.3 -1.1 -0.6 -1.3 -1.1 -0.5 -1.6 0.6 -0.4 1.1 -1.6 1.1 -2.7 0 -1.5 0.7 -1.9 3.3 -1.9 2.7 0 3.5 0.5 4.4 3 0.8 2 1.8 3 3.2 3 1.2 0 2.1 0.6 2.1 1.3 0 0.7 0.9 1.3 2 1.3 1.4 0 1.9 -0.5 1.5 -1.5 -0.3 -0.9 -0.2 -1.2 0.2 -0.7 0.4 0.4 0.8 1.8 0.8 3.1 0.1 1.9 -0.2 2.2 -1.2 1.3 -1.8 -1.4 -1.6 0.3 0.3 3 0.8 1.2 1.1 2.2 0.5 2.2 -0.5 0 -1.1 1.8 -1.3 4 -0.3 4 -0.3 4.1 -2.1 2z"/>
  <path d="M92 131.5 c-0.7 -0.8 -1.9 -1.5 -2.6 -1.5 -0.8 0 -1.4 -0.9 -1.4 -2 0 -1.6 0.7 -2 3.5 -2 3.3 0 3.5 0.2 3.5 3.5 0 3.7 -1 4.4 -3 2z"/>
  <path d="M91 117.5 c0 -3.5 0 -3.5 4.5 -3.5 4.5 0 4.5 0 4.5 3.5 0 3.5 0 3.5 -4.5 3.5 -4.5 0 -4.5 0 -4.5 -3.5z"/>
  <path d="M43 112.1 c-1.7 -3.3 -1.2 -5.1 1.5 -5.1 2.2 0 2.5 0.4 2.5 3.5 0 3.9 -2.2 4.8 -4 1.6z"/>
  <path d="M77 111 c0 -1.5 -0.7 -2 -2.5 -2 -2.2 0 -2.5 -0.4 -2.5 -3.5 0 -3.4 0.1 -3.5 4 -3.5 2.9 0 4 0.4 4 1.5 0 0.8 0.9 1.5 2 1.5 1.7 0 2 0.7 2 4 0 3.9 -0.1 4 -3.5 4 -2.8 0 -3.5 -0.4 -3.5 -2z"/>
  <path d="M19.6 98.8 c-0.8 -3.4 3.8 -12.8 6.3 -12.8 1.7 0 2.1 0.6 2.1 3.5 0 3.1 -0.3 3.5 -2.5 3.5 -2.2 0 -2.5 0.4 -2.5 4 0 4.4 -2.3 5.7 -3.4 1.8z"/>
  <path d="M76.3 98.9 c-1.8 -0.5 -3.3 -1.4 -3.3 -2 0 -0.7 0.9 -0.9 2.3 -0.4 1.2 0.4 5.2 0.9 9 1.2 3.7 0.3 6.7 0.9 6.7 1.4 0 1.2 -10.5 1 -14.7 -0.2z"/>
  <path d="M79.9 96.1 c-4.3 -1.4 -6.9 -3.1 -6.9 -4.6 0 -0.8 0.9 -1.5 2 -1.5 1.1 0 2 -0.7 2 -1.5 0 -1.1 1.1 -1.5 3.9 -1.5 3.6 0 4 0.3 4.6 3 0.5 2.3 1.2 3 3.1 3 2.7 0 3.3 2.4 0.8 3.4 -2 0.8 -6.2 0.6 -9.5 -0.3z"/>
  <path d="M101.5 92.1 c3.4 -2.1 4.4 -1.9 2.5 0.4 -0.7 0.8 -2.2 1.5 -3.4 1.5 -1.8 0 -1.7 -0.2 0.9 -1.9z"/>
  <path d="M94.2 88.8 l0.3 -4.3 5.3 -0.3 5.4 -0.3 -1.7 2.9 c-1.8 2.9 -6.2 6.2 -8.5 6.2 -0.7 0 -1 -1.5 -0.8 -4.2z"/>
  <path d="M40 87.5 c0 -4.3 0.1 -4.5 3 -4.5 1.7 0 3 -0.4 3 -1 0 -0.5 -0.4 -1 -1 -1 -0.5 0 -1 -1.6 -1 -3.5 0 -3.4 0.1 -3.5 3.8 -3.5 2.1 0 4.3 0.5 5 1.2 0.7 0.7 1.2 0.8 1.2 0.2 0 -0.6 0.7 -1.1 1.5 -1.1 1 0 1.5 1.1 1.5 3.4 0 2.6 -0.4 3.3 -2 3.3 -1.3 0 -2 0.7 -2 2 0 1.1 -0.7 2 -1.5 2 -1 0 -1.5 1.1 -1.5 3.5 l0 3.5 -5 0 -5 0 0 -4.5z"/>
  <path d="M74.7 83.6 c-0.3 -0.8 -0.9 -4.2 -1.3 -7.6 l-0.7 -6.1 3.3 0.3 c1.9 0.2 3.5 0.9 3.8 1.6 0.2 0.8 -0.2 1 -1.5 0.5 -1.5 -0.5 -1.6 -0.4 -0.6 0.8 0.6 0.8 1.3 2.8 1.5 4.4 0.2 2.4 0.7 3 2.6 2.8 1.7 -0.2 2.2 0.2 2.2 2.2 0 2.3 -0.4 2.5 -4.4 2.5 -2.9 0 -4.6 -0.5 -4.9 -1.4z"/>
  <path d="M0 76.4 c0 -3.6 1.5 -7.3 3.4 -8.6 1.9 -1.3 2.6 -0.9 2.6 1.4 0 1.2 0.3 1.8 0.6 1.5 0.4 -0.3 1.5 -0.2 2.6 0.4 1.6 0.9 1.9 0.7 1.6 -0.8 -0.3 -2 3.5 -2.7 6.4 -1.2 1.2 0.7 2.2 0.2 3.7 -1.9 1.2 -1.5 2.6 -3.3 3.2 -4.1 0.9 -1 0.8 -1.5 -0.2 -2.3 -1.1 -0.7 -0.9 -0.8 0.6 -0.6 1.7 0.3 2 1.1 1.9 5.1 0 4.9 -2.6 8.7 -5.9 8.7 -0.8 0 -1.5 0.5 -1.5 1 0 0.6 -2.7 1 -6 1 -5.3 0 -6 0.2 -6 2 0 1.6 -0.7 2 -3.5 2 -3.3 0 -3.5 -0.2 -3.5 -3.6z"/>
  <path d="M105.3 77.3 c-0.9 -0.3 -1.3 -2.6 -1.3 -6.4 l0 -5.9 3.5 0 c4 0 4.3 1 2.4 8.6 -1.1 4.2 -1.9 4.9 -4.6 3.7z"/>
  <path d="M112.3 71.5 c0 -2.7 0.2 -3.8 0.4 -2.2 0.2 1.5 0.2 3.7 0 5 -0.2 1.2 -0.4 0 -0.4 -2.8z"/>
  <path d="M2 61.1 c0 -0.5 0.9 -3.8 2 -7.3 1.9 -6.4 2 -6.4 7.1 -8.1 5.8 -1.8 6.9 -1.6 6.9 1.4 0 1.2 0.4 1.7 1.1 1.4 0.7 -0.5 0.9 0.3 0.7 2.1 -0.2 1.8 -1 3 -2.1 3.2 -1.6 0.3 -1.7 0.1 -0.7 -1.8 1.2 -2.2 1.2 -2.2 -1.1 -0.6 -3.2 2.2 -4.7 2 -5.2 -0.6 -0.3 -1.8 -0.5 -1.7 -0.6 0.7 -0.1 1.7 -1 4.1 -2.1 5.5 -1.1 1.4 -2 3.1 -2 3.8 0 1.4 -4 1.7 -4 0.3z"/>
  <path d="M27.6 60.2 c-0.2 -0.4 -0.1 -1.4 0.5 -2.2 1.3 -2.2 1.1 -3 -0.7 -3 -2.4 0 -0.7 -1.7 2.3 -2.3 4.2 -0.8 5.3 0.1 5.3 4.4 0 3.8 -0.1 3.9 -3.4 3.9 -1.9 0 -3.7 -0.4 -4 -0.8z"/>
  <path d="M42 43.5 c0 -3.3 0.2 -3.5 3.5 -3.5 2.9 0 3.5 0.4 3.5 2.1 0 1.1 -0.6 2.7 -1.4 3.5 -0.8 0.8 -2.4 1.4 -3.5 1.4 -1.7 0 -2.1 -0.6 -2.1 -3.5z"/>
  <path d="M125.1 34.1 c-0.6 -1.1 -1.1 -2.7 -1.1 -3.5 0 -0.8 -1 -2.4 -2.1 -3.5 -1.3 -1.2 -1.9 -2.6 -1.6 -3.5 0.4 -1 0.1 -1.6 -0.9 -1.6 -2.2 0 -1.4 -4.4 1 -4.8 2 -0.4 8.6 5.3 8.6 7.5 0 0.7 -0.9 1.3 -2 1.3 -1.1 0 -2 0.5 -2 1 0 0.6 0.9 1 2.1 1 1.7 0 2 0.5 1.7 3.7 -0.3 4.2 -2.2 5.4 -3.7 2.4z"/>
  <path d="M24.3 26.3 c-2 -0.7 -1.5 -2.5 0.5 -1.9 1.6 0.5 1.8 0.2 1.4 -2.4 l-0.4 -3 6.1 0 6.1 0 0 4 0 3.9 -6.2 -0.1 c-3.5 0 -6.9 -0.3 -7.5 -0.5z"/>
  <path d="M56 21.5 c0 -3.3 0.2 -3.5 3.5 -3.5 3.3 0 3.5 0.2 3.5 3.5 0 3.3 -0.2 3.5 -3.5 3.5 -3.3 0 -3.5 -0.2 -3.5 -3.5z"/>
  <path d="M58.5 9.1 c-2.1 -0.9 -2.8 -5 -1 -6.3 0.6 -0.4 2.9 -0.8 5.3 -0.8 l4.2 0 0 4 c0 3.9 -0.1 4 -3.2 3.9 -1.8 0 -4.2 -0.4 -5.3 -0.8z"/>
 </g>
 <g fill="#711b43">
  <path d="M41.5 144.2 c-2.7 -1.5 -5.1 -3.5 -5.3 -4.4 -0.5 -2.5 2.5 -2.3 3.8 0.3 0.7 1.1 2.5 2.5 4.1 3.1 1.6 0.5 2.9 1.6 2.9 2.4 0 1.7 0.4 1.9 -5.5 -1.4z"/>
  <path d="M110 141.6 c0 -1.4 4.8 -3.2 5.8 -2.1 0.7 0.7 -2.9 3.4 -4.5 3.5 -0.7 0 -1.3 -0.6 -1.3 -1.4z"/>
  <path d="M12.5 115.8 c0.4 -1.3 1.6 -3.2 2.7 -4.3 1.9 -2 1.9 -2 1.2 1 -0.7 2.9 -2.6 5.5 -3.9 5.5 -0.3 0 -0.3 -1 0 -2.2z"/>
  <path d="M9.5 113 c-0.6 -1.9 2.9 -7.8 4.7 -7.9 0.9 -0.1 -1.4 7.2 -2.9 8.7 -0.9 1 -1.3 0.8 -1.8 -0.8z"/>
  <path d="M7 107.8 c0.1 -1.9 3.8 -6 5 -5.6 0.5 0.2 0.1 1.7 -1 3.6 -2 3.2 -4 4.3 -4 2z"/>
  <path d="M125 106.3 c0 -1.8 2.8 -5.3 4.3 -5.3 1.6 0 0.5 2.8 -1.8 5 -2.4 2.3 -2.5 2.3 -2.5 0.3z"/>
  <path d="M129.3 106.3 c1.1 -1.2 1.7 -3.6 1.7 -6.4 0 -2.6 0.7 -5.5 1.7 -6.9 1.6 -2.3 8.6 -15.8 8.8 -17 0.3 -2.2 5.1 -6 7.5 -6 1.1 0 1.4 15.1 0.4 21.2 -0.6 3.4 -0.8 3.6 -2.7 2.7 -1.7 -1 -2.5 -0.6 -5.6 2.7 -2 2.2 -4.6 5.2 -5.8 6.8 -1.3 1.7 -2.3 2.6 -2.3 2.2 0 -0.5 -1.2 0 -2.7 0.9 -2.8 1.8 -2.8 1.8 -1 -0.2z"/>
  <path d="M70.9 103 c-4.8 -2.6 -12.7 -11.6 -13.9 -16 -1.6 -5.9 -1.2 -11.9 1.1 -15.1 1.1 -1.6 2.4 -2.7 2.8 -2.4 0.9 0.5 4.5 -3.3 5.4 -5.6 0.6 -1.7 7.7 -3.2 7.7 -1.7 0 0.4 1.1 0.8 2.4 0.8 5.3 0 3.7 3.2 -2.1 4.5 -4.5 0.9 -5 2.2 -0.7 1.7 4.1 -0.5 4.4 0.8 0.6 2.6 -1.6 0.6 -3.8 3 -5.1 5.2 l-2.2 4 2.3 4.8 c1.3 2.6 3.3 5.1 4.6 5.7 1.2 0.5 2.2 1.3 2.2 1.7 0 1.7 -2 0.6 -4.9 -2.7 -1.7 -1.9 -3.5 -3.5 -4 -3.5 -0.6 0 -1.3 -1.7 -1.6 -3.7 -1.1 -6.5 -1.3 -6.9 -1.4 -3 -0.1 3.9 2.8 11.6 5.1 13.4 2.5 2 11.2 4.3 16.2 4.3 7.2 0 17.3 -5.2 20.2 -10.4 1.3 -2.4 2.4 -3.4 2.9 -2.7 0.7 1.2 0.2 2 -3.9 7.1 -1.4 1.7 -1 1.5 0.9 -0.5 1.7 -1.6 3.8 -4.1 4.7 -5.5 l1.7 -2.5 0 3.4 c0.1 4.7 -9.4 14.1 -16.7 16.4 -7.2 2.4 -19.6 2.2 -24.3 -0.3z"/>
  <path d="M85 95.9 c-3.5 -0.6 -3.5 -0.6 -0.5 -0.8 1.7 -0.1 5.3 -1.3 8 -2.6 5.4 -2.7 6.5 -3 6.5 -1.7 0 0.7 -8 5.3 -10 5.7 -0.3 0.1 -2.1 -0.2 -4 -0.6z"/>
  <path d="M128 94.2 c0 -1 0.7 -2.7 1.5 -3.8 1.3 -1.7 4.4 -7.9 8.9 -17.6 1 -2 2.6 -3.8 3.7 -4.1 1.9 -0.5 1.9 -0.5 0.1 2.1 -1.1 1.5 -3.1 5.8 -4.5 9.5 -4.4 11.6 -9.7 19.2 -9.7 13.9z"/>
  <path d="M102 87 c0 -1.6 2.3 -6 3.2 -6 1.1 0 1 0.7 -0.7 4 -1.6 3 -2.5 3.8 -2.5 2z"/>
  <path d="M37 81.6 c0 -0.8 0.6 -1.7 1.3 -1.9 0.7 -0.3 0.5 -0.6 -0.5 -0.6 -2.2 -0.1 -2.3 -2.7 -0.3 -6.1 l1.5 -2.5 -0.5 3 c-0.4 1.9 0.1 1.3 1.4 -2 1.3 -3 1.7 -5.3 1.2 -5.8 -1.3 -1.3 0.3 -5.1 3.4 -8.5 1.4 -1.5 2.7 -3.4 3 -4.2 0.3 -0.9 1.9 -2.4 3.5 -3.4 1.7 -0.9 4.1 -2.8 5.5 -4.2 1.3 -1.3 3 -2.4 3.8 -2.4 0.7 0 1.8 -0.5 2.5 -1.2 2.4 -2.4 11.3 -2.6 17.6 -0.5 8.1 2.7 16.9 11.4 18.1 17.8 0.8 4.2 0.9 4.3 1.2 1.2 0.6 -5.1 -3 -10.2 -13.7 -19.3 l-3.5 -3 3.4 1.2 c1.9 0.6 5.9 3.6 9 6.7 4.7 4.7 5.8 6.6 6.9 11.1 1.7 7.7 1.6 13 -0.3 13 -0.8 0 -1.5 -0.7 -1.5 -1.5 0 -0.8 -0.4 -1.5 -0.9 -1.5 -0.5 0 -1.3 -1 -1.7 -2.2 -0.7 -2.6 -6.1 -7.9 -11.4 -11.4 -5.3 -3.4 -16.9 -4.8 -24 -2.7 -7.4 2.1 -8.6 3.4 -1.5 1.6 3.1 -0.8 5.9 -1.2 6.2 -0.9 0.9 0.9 -0.8 2.6 -2.5 2.6 -3 0 -9.3 4 -13.8 8.8 -2.4 2.5 -4.4 5 -4.4 5.4 0 0.4 -0.9 0.8 -1.9 0.8 -1.8 0 -1.9 0.5 -1.4 7 l0.6 7 -3.2 0 c-2 0 -3.1 -0.5 -3.1 -1.4z"/>
  <path d="M114.3 76.9 c0.4 -1.3 0.7 -5.1 0.7 -8.4 0.1 -4.6 0.3 -5.6 1.1 -4.3 1.5 2.6 0.7 14 -1 14.6 -1 0.4 -1.2 -0.1 -0.8 -1.9z"/>
  <path d="M112.1 67 l0.2 -9.5 0.9 8.4 c0.6 5.8 0.6 8.7 -0.1 9.4 -0.8 0.8 -1.1 -1.7 -1 -8.3z"/>
  <path d="M109.7 70.4 c-0.4 -0.4 -0.7 -3.8 -0.7 -7.6 0 -3.9 -0.4 -6.8 -1 -6.8 -0.5 0 -1 -1.7 -1 -3.7 0 -4.5 1.7 -3.3 2.5 1.7 1.8 10.8 1.9 18 0.2 16.4z"/>
  <path d="M94.5 67.7 c-0.6 -2.1 -5.4 -7 -10.9 -11 -1.9 -1.4 -1.8 -1.5 1 -1.5 4.5 0 12.4 8.4 12.4 13.3 0 2.4 -1.9 1.8 -2.5 -0.8z"/>
  <path d="M122.2 64.8 c-0.7 -0.7 -1.2 -3 -1.2 -5.2 0 -4.2 -3.9 -15.6 -7.5 -21.6 -1.1 -1.9 -2.7 -4.8 -3.5 -6.5 -0.8 -1.6 -3.1 -5.1 -5.2 -7.6 -2.1 -2.6 -3.8 -5 -3.8 -5.3 0 -1.3 2 -0.5 4.9 2 4.2 3.5 3.9 2.4 -0.9 -3.1 -2.2 -2.5 -4 -5.2 -4.1 -5.8 -0.3 -5.2 -1.4 -6.7 -2.3 -3 -0.6 2.1 -0.9 2.4 -1.7 1.2 -0.5 -0.7 -0.9 -2.7 -0.9 -4.3 0 -2.3 0.3 -2.7 1.2 -1.8 0.7 0.7 2 1.2 3 1.2 2.8 0 8.8 3.2 8.8 4.8 0 2.3 6.9 15.9 9.6 18.8 0.6 0.7 2.1 3.9 3.4 7.1 1.3 3.2 2.8 6.3 3.3 6.8 0.7 0.7 0.7 0.6 0.3 -0.3 -0.5 -0.7 -0.5 -2.5 -0.1 -4 0.7 -2.7 0.7 -2.7 2.5 1.3 1 2.2 2.2 7.4 2.5 11.5 0.4 4.1 0.9 8.3 1.2 9.4 0.3 1.2 0.1 1.7 -0.8 1.4 -0.8 -0.3 -1.7 -1.8 -2.1 -3.4 -0.5 -2.2 -0.6 -1.8 -0.5 1.8 0 2.6 -0.2 5.1 -0.6 5.4 -0.4 0.4 -0.7 0 -0.7 -0.8 0 -0.9 -0.7 -2.1 -1.5 -2.8 -0.9 -0.8 -1.5 -3 -1.5 -5.9 0 -2.5 -0.5 -5.3 -1.1 -6.1 -0.7 -1.1 -0.9 -0.5 -0.5 2.5 0.3 2.2 0.8 6.1 1.2 8.8 0.7 5 0.5 5.4 -1.4 3.5z"/>
  <path d="M80.1 61.9 c-2.3 -1.9 -2.3 -1.9 -0.2 -1.9 1.2 0 2.4 0.7 2.8 1.5 0.9 2.4 0 2.5 -2.6 0.4z"/>
  <path d="M113.1 57 c-0.6 -2.2 -1.5 -4 -1.9 -4 -0.4 0 -0.8 -0.9 -0.8 -2 0 -1.3 0.7 -2 1.8 -2 1.3 0 1.8 0.8 1.8 3 0 1.7 0.5 3 1 3 0.6 0 1 1.4 1 3 0 4.2 -1.5 3.7 -2.9 -1z"/>
  <path d="M38 59.3 c0 -0.6 1.3 -2.6 3 -4.4 1.6 -1.9 3.2 -4.1 3.5 -5 0.5 -1.6 4.6 -3.9 6.8 -3.9 0.7 0 0 0.8 -1.4 1.8 -1.4 0.9 -4.5 4 -6.9 6.7 -2.3 2.8 -4.4 5.2 -4.6 5.4 -0.2 0.2 -0.4 0 -0.4 -0.6z"/>
  <path d="M72 59 c-2.2 -0.7 -2.1 -0.8 1.3 -0.9 2 -0.1 3.7 0.4 3.7 0.9 0 1.1 -1.4 1.1 -5 0z"/>
  <path d="M16.6 52.4 c1.6 -2.4 1.6 -2.5 -0.4 -3.1 -1.8 -0.4 -2 -0.9 -1.1 -2.4 1.3 -2.5 2.7 -2.4 3.1 0.2 0.3 1.8 0.5 1.9 2.3 0.6 1.6 -1.3 1.7 -1.9 0.8 -3.9 -0.9 -1.9 -1.9 -2.5 -4.7 -2.6 -2 -0.1 -4.8 0.3 -6.1 0.8 -2.5 0.9 -2.5 0.9 -1.1 -1.8 2.3 -4.4 10.5 -15.2 11.6 -15.2 0.6 0 1.5 1.2 2.1 2.7 0.8 2.2 1.2 2.4 1.9 1.3 0.7 -1 0.5 -1.9 -0.7 -2.7 -0.9 -0.7 -1.3 -1.6 -0.9 -2 0.7 -0.8 4 2.5 6.1 6.2 1 1.7 1.4 1.7 8.2 -0.4 4.1 -1.3 9 -2.1 11.5 -1.9 4.2 0.3 4.3 0.4 4.6 4.1 0.2 2.7 -0.1 3.7 -1.1 3.7 -0.8 0 -2 0.7 -2.7 1.5 -0.7 0.8 -3.3 2.4 -5.9 3.6 -2.5 1.1 -5.7 3 -7.1 4.3 -4.5 4 -7.7 5.7 -8.3 4.2 -0.5 -1.3 6.8 -7.6 12.7 -10.8 4 -2.2 2.5 -2.3 -1.7 -0.2 -3.2 1.7 -5.9 3.7 -14 10.4 -7.5 6.2 -12 7.9 -9.1 3.4z m35.2 -17.9 c1.1 -0.9 1 -1.4 -0.4 -2.6 -1.2 -0.9 -1.5 -1 -1 -0.1 0.4 0.7 0.2 1.2 -0.7 1.2 -0.8 0 -2.2 0.9 -3.3 2.1 -1.8 2 -1.8 2 1.1 1.4 1.7 -0.4 3.6 -1.3 4.3 -2z"/>
  <path d="M12.2 52.3 c0.2 -1 1.1 -1.9 2.1 -2.1 2.3 -0.5 2.1 1 -0.4 2.6 -1.8 1.2 -2 1.1 -1.7 -0.5z"/>
  <path d="M100.7 47.3 c-0.4 -0.3 -0.7 -2.8 -0.7 -5.5 0 -4.8 0 -4.8 3.3 -4.8 4.2 0 5.7 1.5 5.7 6 -0.1 3.2 -0.2 3.3 -1.4 1.7 -0.8 -1.1 -1.7 -1.4 -2 -0.8 -0.4 0.5 -0.2 1.2 0.4 1.6 1.9 1.2 1 2.5 -1.8 2.5 -1.6 0 -3.2 -0.3 -3.5 -0.7z m3.9 -6.2 c2.2 1.8 1.7 0.4 -0.6 -1.6 -2 -1.8 -2 -1.7 -1.9 1.1 0.1 1.8 0.3 2.2 0.6 1.1 0.4 -1.4 0.8 -1.6 1.9 -0.6z"/>
 </g>
 <g fill="#5e1b57">
  <path d="M58 146.8 c-1.1 -1.2 -2 -3 -2 -4 0 -1 -0.4 -1.8 -1 -1.8 -1.3 0 -7.2 -6.2 -6.5 -6.8 0.3 -0.3 1.3 0.2 2.3 1.1 1 1 2.1 1.5 2.3 1.3 0.2 -0.3 2 1.7 4 4.3 3.4 4.7 3.5 4.8 4.6 2.5 0.8 -1.8 0.8 -2.6 -0.3 -3.5 -0.8 -0.6 -1.4 -1.6 -1.4 -2.2 0 -0.5 -1.6 -2.6 -3.6 -4.5 -2 -1.9 -4.9 -5.3 -6.5 -7.5 -1.6 -2.2 -2.9 -3.4 -2.9 -2.6 0 0.8 0.9 2.5 2 3.9 2.7 3.5 2.6 6 -0.3 6 -2.2 0 -6.7 -4.6 -6.7 -6.9 0 -0.5 -0.4 -1.2 -0.9 -1.5 -0.5 -0.4 -0.7 1.1 -0.4 3.4 l0.6 3.9 -3.2 -1.2 c-1.8 -0.6 -2.7 -1.3 -2.1 -1.5 1.7 -0.6 1.1 -2.2 -0.7 -2.3 -1.1 0 -1.3 -0.3 -0.5 -0.6 1.9 -0.7 1.4 -2.3 -0.7 -2.3 -3 0 -3.3 1.4 -1.6 8.1 0.9 3.3 1.5 6.5 1.3 6.9 -0.2 0.5 -1.6 -0.2 -3.3 -1.6 -2.9 -2.3 -3 -2.7 -3.3 -11.9 l-0.4 -9.5 4.1 0 c4.1 0 4.1 0 2.8 -2.7 -0.6 -1.6 -1.6 -3.1 -2 -3.4 -0.5 -0.4 -1.1 -3.6 -1.4 -7.3 -0.5 -5.4 -0.3 -6.6 0.9 -6.6 1.6 0 6.5 12.6 5.4 13.7 -0.3 0.4 -0.6 -0.1 -0.6 -1 0 -0.9 -0.4 -1.7 -0.9 -1.7 -0.5 0 -0.7 0.9 -0.4 2 0.3 1.3 1.3 1.9 2.6 1.7 1.5 -0.1 2.7 0.7 3.7 2.8 3.3 6.3 4.2 7.7 4.7 7.1 0.4 -0.3 -0.1 -1.4 -1 -2.4 -0.9 -1 -1.6 -2.6 -1.6 -3.7 0.1 -1.1 -0.3 -3.1 -0.7 -4.4 -0.5 -1.7 -0.4 -2.2 0.5 -1.7 0.6 0.4 0.9 1.2 0.6 1.7 -0.4 0.5 0.5 0.9 2 0.9 1.4 0 2.7 0.6 2.9 1.3 0.2 0.6 0.8 2.1 1.2 3.2 0.7 1.8 0.8 1.7 1.2 -0.7 0.3 -2.4 0.8 -2.7 5.6 -3.3 4.6 -0.6 5.7 -0.3 9.9 2.2 3.8 2.3 4.6 3.3 4.7 5.8 0 2.2 -0.3 2.6 -1.2 1.7 -2 -2 -4.8 -1.4 -4.8 1.1 0 2.8 6.3 7.9 10.1 8.2 3.3 0.3 16.7 5.3 17.5 6.6 0.3 0.5 2.4 0.9 4.6 0.9 5.4 0 16.8 2.1 16.8 3.1 0 0.5 -1.3 1.5 -2.9 2.4 -2.2 1.1 -3.7 1.2 -5.6 0.5 -1.5 -0.6 -5.4 -1 -8.7 -1 -3.8 0 -6.8 -0.5 -7.7 -1.4 -1.8 -1.5 -14.3 -6.6 -16.3 -6.6 -0.8 0 -1.8 -0.4 -2.3 -0.9 -0.6 -0.4 -2.5 -1.1 -4.3 -1.5 l-3.3 -0.6 2.1 3 c1.1 1.6 2.5 3.2 3 3.5 0.6 0.4 1 2.8 1 5.6 l0 4.9 -4.5 0 c-3.3 0 -5 -0.6 -6.5 -2.2z"/>
  <path d="M117.7 135.6 c-1.5 -0.8 -5 -1.4 -8 -1.3 -9.1 0.2 -16.9 -1.2 -17.4 -3.3 -0.3 -1.1 -1.1 -1.6 -1.9 -1.3 -0.8 0.3 -1.4 0 -1.4 -0.7 0 -1 1.5 -1.1 6.3 -0.6 3.4 0.4 11.5 1.1 17.9 1.4 6.4 0.4 12 1 12.4 1.4 0.6 0.7 -3.4 5.8 -4.6 5.8 -0.3 0 -1.7 -0.7 -3.3 -1.4z"/>
  <path d="M53.8 134.6 c-2 -1.5 -2.3 -2.6 -0.8 -2.6 0.5 0 1.4 0.9 2 2 1.2 2.3 1.1 2.4 -1.2 0.6z"/>
  <path d="M97 121.2 c0 -4.6 0.2 -4.9 3.3 -6 10.7 -3.6 12.8 -4.7 15.8 -8 l3.4 -3.7 -3.5 3.3 c-4.1 3.7 -5 3.9 -5 1.4 0 -0.9 2.4 -4.2 5.3 -7.2 l5.2 -5.5 -3.7 0.3 c-3.5 0.4 -3.7 0.2 -4 -2.9 l-0.3 -3.3 -2.9 4.3 c-1.6 2.3 -4.2 4.9 -5.8 5.9 -1.5 0.9 -2.8 2.4 -2.8 3.3 0 1.8 -1.3 2.1 -16.3 3.4 -4.6 0.5 -7.3 0.3 -8.2 -0.5 -0.8 -0.6 -1.8 -0.9 -2.3 -0.7 -3.3 2.1 -20.2 -12 -20.2 -16.8 0 -1.9 -0.5 -2.5 -2.1 -2.5 -1.9 0 -2 -0.4 -1.6 -8.2 0.2 -4.6 0.9 -10 1.4 -12 0.8 -2.8 0.8 -3.5 -0.2 -3.2 -2.7 1.1 -10.5 14.7 -10.5 18.5 0 4.8 -3.3 6.8 -4.4 2.7 -0.9 -3.4 -0.8 -3.8 1 -3.8 1.3 0 1.5 -0.7 1 -3.1 -0.8 -4.3 2 -10.4 8 -16.7 2.7 -2.8 6.5 -5.8 8.4 -6.5 5.1 -2.1 11 -3 11 -1.7 0 0.5 0.6 1 1.4 1 0.8 0 1.6 0.4 1.8 1 0.2 0.5 4.2 1 9 1.1 l8.8 0.1 3.9 4.4 c4.7 5 5.6 7.7 4.8 14.4 -0.5 3.9 -0.3 4.8 0.8 4.4 1.9 -0.8 2.6 -4.4 2.6 -13.4 0 -5.2 -0.5 -8.8 -1.5 -10.7 -2.7 -5.1 -14.1 -15.4 -19 -17.3 -3.7 -1.4 -13.2 -1.3 -15.9 0.2 -1.2 0.6 -3.6 1.1 -5.4 1 -2.2 -0.1 -3.3 0.3 -3.3 1.3 0 0.7 -1.8 2.4 -4 3.6 -4.6 2.6 -5.2 4.2 -1.2 3.3 l2.7 -0.6 -2.6 1.9 c-7.8 5.4 -18 21.3 -18.4 28.8 -0.3 4.7 -2.5 10.5 -4 10.5 -3.2 -0.1 -4.9 -5.1 -3.4 -10.4 0.8 -3.1 0.8 -3.1 -0.9 -1 -0.9 1.2 -2.3 3 -3 4 -1.2 1.7 -1.2 1.7 -0.6 -0.6 0.3 -1.4 0.8 -3.8 1.1 -5.5 0.2 -1.6 1.4 -5 2.5 -7.4 1.6 -3.6 1.7 -4.6 0.6 -5.3 -0.9 -0.7 -0.7 -0.8 0.9 -0.5 1.6 0.4 2.4 -0.1 2.8 -1.4 0.4 -1 1.4 -1.9 2.3 -1.9 1.3 0 1.4 0.2 0.4 0.9 -0.8 0.5 -1.2 2.1 -1 3.7 l0.3 2.9 2.3 -3.9 c1.3 -2.1 2.1 -4.4 1.8 -5 -0.2 -0.6 -0.5 -0.3 -0.5 0.7 -0.1 1.7 -0.2 1.7 -1.8 0.2 -0.9 -1 -2.6 -1.5 -4 -1.2 -1.9 0.3 -2.1 0.2 -1.2 -0.9 0.6 -0.8 2 -1.4 3 -1.4 2.3 0 2.4 -0.7 0.3 -2.7 -1.4 -1.5 -1.3 -1.8 1.7 -4.2 6.4 -5.2 11.3 -8.1 15.3 -9.3 5.6 -1.6 6.9 -2.7 5.5 -4.4 -1.5 -1.9 -4.6 -1.8 -11 0.4 -3 1.1 -7.1 2.2 -9.2 2.5 -3.4 0.5 -3.8 0.3 -5.3 -2.5 -0.8 -1.6 -1.3 -3.6 -1 -4.4 0.3 -0.8 -0.1 -1.7 -0.9 -2 -2.3 -0.9 -1.8 -2.6 0.5 -1.9 1.1 0.4 2 0.2 2 -0.4 0 -2.2 3 -1 4.7 2 1.5 2.6 2.2 3 4.8 2.5 17.7 -3.2 24.9 -3.1 28 0.4 1.3 1.5 3.1 2 6.5 2 6.2 0 14.4 2.5 20 6.2 l4.5 2.9 -5.4 -5 c-8.6 -8 -21.5 -13.3 -32.1 -13.1 -4.1 0 -10.6 -3.7 -14.1 -8.1 -3.1 -4 -3.2 -4.2 -1.4 -5.5 1 -0.8 2.5 -1.4 3.2 -1.4 1.4 0 6.3 4.7 6.3 5.9 0 1.8 9.4 5.1 16.7 6 10.3 1.3 17.9 5 26.1 12.6 6.7 6.2 8.4 7 5 2.4 -2.6 -3.5 -17.7 -15.9 -19.4 -15.9 -0.7 0 -2.5 -0.7 -4 -1.5 -1.6 -0.8 -4.5 -1.5 -6.4 -1.5 -6.7 -0.1 -17.4 -6.9 -14.1 -8.9 0.8 -0.5 1 -1.4 0.7 -2 -1.5 -2.3 2.7 -1 6 1.9 1.9 1.6 5.3 3.4 7.6 4 2.4 0.5 5.7 1.5 7.4 2 1.7 0.6 3.6 1 4.2 1 1.2 0 8.7 5 15 9.9 6.5 5.1 15.2 17.4 19.3 27.1 1.5 3.3 1.8 3.7 1.4 1.5 -0.9 -4.3 -6.9 -16.9 -10.2 -21 -1.5 -2 -4.1 -4.3 -5.6 -5.1 -1.7 -0.9 -3 -2.6 -3.4 -4.4 -0.3 -1.7 -1.2 -3 -2 -3 -2.7 0 -6.2 -5.3 -6.3 -9.3 0 -3 0.5 -4 2.4 -4.9 4.8 -2.1 7.7 1.1 5.6 6.3 l-1.3 3 -2.3 -2.2 c-3.6 -3.4 -2.9 -1.2 1.2 3.8 2.5 3.1 4.1 4.2 5.3 3.8 2.8 -0.9 9.1 4.9 12.9 11.8 5.9 10.5 8.1 17.3 9.3 28.6 0.6 5.8 1.4 11.5 1.9 12.7 0.4 1.1 0.4 2.7 0 3.5 -0.4 0.8 -1.1 3.4 -1.4 5.9 l-0.7 4.5 2.1 -2.4 c1.1 -1.3 2 -2.9 2 -3.6 0 -0.7 0.6 -1.8 1.4 -2.4 0.8 -0.7 1.7 -3 2.1 -5.2 0.4 -2.2 1.3 -4.3 2.1 -4.6 1 -0.4 1.1 -0.9 0.1 -2.6 -0.7 -1.2 -1.7 -2.6 -2.3 -3.2 -1.6 -1.4 -5.5 -21.5 -4.8 -24.3 1.2 -4.2 3 -2.2 5.3 6.2 1.2 4.7 2.9 8.7 3.7 9 1 0.4 1.4 2.2 1.4 5.8 0 8 2.9 10.6 4.4 4.1 2 -8.2 5.7 -10.9 7.6 -5.7 1.4 3.6 1.2 5.4 -0.5 5.4 -0.8 0 -1.5 0.6 -1.5 1.3 0 0.7 -1.3 3.3 -2.9 5.8 -1.5 2.5 -3.8 7.1 -5 10.3 -3.6 9.6 -5.9 13.4 -11.9 19.3 -3.1 3 -4.5 4.8 -3 3.9 3.3 -1.9 6.8 -2.1 6.8 -0.3 0 3.3 -16 14.7 -20.7 14.7 -1 0 -1.4 0.6 -1 2 0.4 1.7 0 2 -2.9 2 -2.4 0 -3.4 0.5 -3.4 1.6 0 0.8 0.4 1.3 0.9 1 0.5 -0.3 1.1 0.1 1.5 0.9 0.4 1.2 -0.3 1.5 -3.4 1.5 l-4 0 0 -4.8z m-2.2 -21.7 c2.8 -1.3 7.4 -4.6 10 -7.2 6.7 -6.7 9.6 -13.1 10 -22 0.2 -4 0.8 -7.3 1.3 -7.3 0.5 0 0.9 -0.4 0.9 -1 0 -0.5 -0.6 -1 -1.3 -1 -0.7 0 -2.1 -2.4 -3.1 -5.2 -2.1 -6.1 -6.9 -15 -9.1 -16.8 -1.3 -1.1 -1.5 -0.8 -1.5 1.4 0 1.6 0.9 3.1 2.4 4.1 2.6 1.7 4.5 5.5 5.1 10.2 0.3 2.5 0.1 3 -1.3 2.6 -1.5 -0.3 -1.7 0.5 -1.7 6.9 0 6.9 -0.7 9.5 -4.3 17.6 -1.7 3.9 -5.8 6.2 -10.4 6.1 l-3.3 -0.1 2.8 -1 c1.5 -0.5 2.7 -1.3 2.7 -1.7 0 -1.1 -3.3 -1 -4.7 0.2 -1 0.7 -1.3 0.4 -1.3 -1.2 0 -1.8 -0.6 -2.1 -3.7 -2.1 -3.2 -0.1 -3.5 -0.3 -2.2 -1.3 0.9 -0.7 1.7 -1.6 1.9 -2.2 0.2 -0.5 0.9 -2 1.7 -3.2 1.1 -1.7 1.2 -3 0.4 -6.1 -2.2 -8.1 -13.9 -12.4 -22.3 -8.4 -4.2 2.1 -5.2 3.6 -8.6 13.7 -0.2 0.6 1.1 -0.6 2.8 -2.5 2.1 -2.3 2.9 -2.8 2.5 -1.5 -0.4 1.1 -1 4.1 -1.2 6.7 -0.9 8 6 18.7 14.7 23 5.3 2.6 14.3 2.3 20.8 -0.7z m-38.8 -31.4 c0 -1 -0.8 -0.4 -2.1 1.7 -1.3 1.9 -1.8 3.9 -1.4 5 0.5 1.4 0.9 1.1 2.1 -1.7 0.8 -1.8 1.4 -4.1 1.4 -5z m36.2 2.2 c-0.7 -3.6 -1.2 -2.7 -1.1 2 0 3 0.3 3.6 0.8 2.3 0.4 -1.1 0.6 -3 0.3 -4.3z m-42.2 -28.4 c0 -1 -1.2 -1.1 -3.4 -0.3 -2.5 1 -1.9 2.2 0.9 1.6 1.4 -0.2 2.5 -0.8 2.5 -1.3z"/>
  <path d="M69 88 c0 -0.5 -0.6 -1 -1.4 -1 -2.8 0 -3.5 -8.4 -1.1 -13 1.8 -3.4 4.3 -5 7.9 -5 2.7 0 6.6 3.1 6.6 5.2 0 0.6 -0.6 0.3 -1.4 -0.8 -1.2 -1.6 -1.7 -1.7 -2.8 -0.6 -1.1 1.1 -1 1.3 0.2 1 0.9 -0.2 1.6 0.6 1.8 2 0.2 1.2 -0.1 2.2 -0.7 2.2 -0.6 0 -1.1 -0.4 -1.1 -1 0 -0.5 -0.9 -1.4 -2 -2 -2.9 -1.6 -5.4 2.8 -5.1 9.1 0.1 2.7 0 4.9 -0.4 4.9 -0.3 0 -0.5 -0.4 -0.5 -1z"/>
  <path d="M108 125 c-1.2 -0.7 -1.1 -1 0.5 -1.5 1.1 -0.4 2.9 -1.1 4 -1.6 9.3 -4.1 13.2 -4.9 18.5 -3.9 2.9 0.6 5.5 1.2 5.8 1.4 0.2 0.3 -0.6 1.9 -1.8 3.5 -2.4 3.5 -6.8 4.2 -9.3 1.6 -1.3 -1.3 -2.1 -1.3 -6.4 0 -5.5 1.7 -9.2 1.9 -11.3 0.5z"/>
  <path d="M13.6 119.6 c-0.9 -1.4 -1.3 -3.3 -0.9 -4.3 0.9 -2.4 5.3 -7.7 5.3 -6.4 0 0.6 0.7 1.1 1.5 1.1 1.8 0 2.1 5.5 0.4 6.5 -0.5 0.4 -1.4 1.8 -1.9 3.1 -1.2 3 -2.4 3 -4.4 0z"/>
  <path d="M140.3 112.3 c-2 -0.7 -1.5 -5.2 0.8 -8.4 2.1 -3 4.9 -3.9 4.9 -1.6 0 2.6 -4.5 10.4 -5.7 10z"/>
  <path d="M6.2 105.8 c-0.9 -2.6 -0.9 -3.5 0.2 -4.7 0.8 -0.9 1.7 -3.3 2.1 -5.3 0.7 -3.4 1 -3.8 3.8 -3.8 2.4 0 2.8 0.3 1.9 1.2 -0.7 0.7 -1.2 3 -1.2 5.3 0 3.8 -3 10.5 -4.8 10.5 -0.4 0 -1.3 -1.4 -2 -3.2z"/>
  <path d="M122 23 c0 -1.1 0.5 -2 1 -2 0.6 0 1 0.9 1 2 0 1.1 -0.4 2 -1 2 -0.5 0 -1 -0.9 -1 -2z"/>
  <path d="M116.2 17.4 c-1.3 -2.6 -2.1 -4.9 -1.8 -5.2 0.6 -0.5 3.9 1.5 7.5 4.7 2.4 2.1 2.4 2.2 0.5 3.6 -3 2.3 -3.8 1.8 -6.2 -3.1z"/>
 </g>
 <g fill="#06656e">
  <path d="M56.2 150.3 c-1.7 -0.3 -3.1 -2 -5 -6.1 -3.5 -7.8 -3.7 -12.9 -0.2 -8.7 0.7 0.8 1.5 1.3 1.9 1.1 0.3 -0.3 2.2 1.7 4.1 4.2 1.9 2.6 4.2 4.7 5 4.7 1.9 0 2.6 3.5 0.8 4.6 -1.4 0.9 -2.7 0.9 -6.6 0.2z"/>
  <path d="M95 146.1 l0 -4.1 4 0 c3.7 0 4 0.2 4 2.9 0 2.2 -0.6 3 -2.4 3.5 -1.3 0.3 -3.1 0.9 -4 1.2 -1.3 0.5 -1.6 -0.1 -1.6 -3.5z"/>
  <path d="M39.4 131.2 c-1.1 -1 -2.8 -4.4 -3.9 -7.5 -1.6 -4.6 -2.3 -5.7 -4.1 -5.7 -1.9 0 -2.4 -0.8 -3.3 -5 -0.6 -2.8 -1.1 -6.2 -1.1 -7.5 0 -1.6 -0.6 -2.5 -1.5 -2.5 -0.8 0 -1.5 0.5 -1.5 1 0 0.6 -0.9 1 -2 1 -1.8 0 -2 -0.7 -2 -5.6 0 -6.2 1.2 -9.4 3.8 -9.5 1 0 1.2 -0.3 0.5 -0.6 -2.2 -0.8 -1.4 -2.3 1.2 -2.3 1.4 0 2.5 -0.5 2.5 -1.1 0 -0.6 0.7 -0.3 1.6 0.5 0.8 0.9 2 1.4 2.5 1.1 0.7 -0.5 1.5 8.9 1 11.9 -0.4 1.9 2.1 11.6 2.9 11.6 0.5 0 2.7 2.7 5 5.9 3 4.6 4 7 4 10 0 3.7 0.3 4.1 2.4 4.1 1.4 0 2.8 0.5 3.1 1 0.4 0.6 -0.8 1 -3 1 -3.1 0 -3.8 -0.5 -5.1 -3.2 l-1.5 -3.3 0.6 3.3 c0.8 3.7 0.6 3.8 -2.1 1.4z"/>
  <path d="M94.3 127.3 c-2.7 -0.4 -3.3 -0.9 -3.3 -2.9 0 -1.5 -0.6 -2.4 -1.5 -2.4 -0.8 0 -1.5 -0.9 -1.5 -2 0 -1.3 -0.5 -1.8 -1.5 -1.4 -0.8 0.4 -1.5 1.2 -1.5 2 0 2 -8.9 1.9 -9.6 -0.1 -0.4 -0.8 -1.7 -1.5 -3.1 -1.5 -1.4 0 -5 -1.3 -8 -3 -3 -1.6 -6 -3 -6.7 -3 -2.6 0 -4.6 -3.6 -4.6 -8.3 0 -2.6 -0.4 -4.7 -1 -4.7 -0.5 0 -1 -0.9 -1 -2 0 -1.8 -0.7 -2 -6.1 -2 l-6.2 0 0.5 -10.3 c0.7 -13.1 3.1 -19.4 7.8 -20.3 2.5 -0.5 3 -1.1 3 -3.4 0 -3.5 2.9 -6.1 6.6 -5.9 1.6 0 4.7 -0.6 6.9 -1.5 5.6 -2.1 14.2 -2 18.5 0.4 1.9 1 4.4 2.3 5.5 2.8 3.1 1.5 6.5 5.6 7.5 9 l0.9 3.2 -4 0 c-3.3 0 -4.1 -0.4 -4.9 -2.4 -0.5 -1.3 -2.1 -3.6 -3.7 -5 -1.5 -1.4 -2.3 -2.6 -1.8 -2.6 0.6 0 0.3 -0.5 -0.5 -1 -2 -1.3 -9.6 -1.2 -13.9 0.1 -6.7 2.2 -8.4 3.4 -11.9 8.7 -3 4.5 -3.4 5.7 -2.4 7.2 0.9 1.4 0.8 2 -0.1 2.3 -0.9 0.4 -0.9 0.6 0.1 0.6 0.6 0.1 1.2 1.3 1.2 2.9 0.1 2.6 0.1 2.6 1.5 0.8 1.4 -1.8 1.5 -1.5 1.5 4.1 0 5 -0.3 6.2 -1.7 6.6 -1.1 0.3 -0.7 0.5 1 0.6 1.6 0.1 2.7 0.7 2.7 1.5 0 0.8 0.7 1.6 1.5 2 0.8 0.3 1.5 1 1.5 1.6 0 0.6 1.4 2.3 3.2 3.9 2.7 2.4 3.7 2.7 6.1 2 1.6 -0.4 8 -0.5 14.3 -0.2 l11.4 0.6 0 2.9 c0 3.4 1.9 3.4 3.5 0 0.5 -1.2 1.7 -2.2 2.5 -2.2 0.8 0 2.3 -0.7 3.3 -1.5 1.8 -1.3 1.7 -1.4 -0.5 -1.7 -4 -0.5 -3.4 -4.1 1.9 -11.2 4.6 -6.2 5 -6.5 9.1 -6.6 2.3 0 4.2 0.2 4.2 0.5 0 0.2 -0.9 1.9 -2 3.7 -2.6 4.3 -2.5 5.1 0.2 3.7 2.1 -1.1 2.1 -0.9 -0.5 2.4 l-2.8 3.7 3.5 0 c2 0 3.6 0.4 3.6 0.9 0 0.9 -7.8 8.7 -11.5 11.6 -1.1 0.9 0.6 0.4 4 -1 l6 -2.5 -4.1 3.8 c-2.3 2 -7 4.8 -10.7 6.2 -4.7 1.8 -6.7 3 -6.7 4.3 0 1.5 1.1 2.2 3.3 1.8 0.4 0 0.7 0.4 0.7 0.9 0 0.6 0.7 1 1.5 1 0.8 0 1.5 0.7 1.5 1.5 0 1.5 -4.6 1.8 -12.7 0.8z"/>
  <path d="M85.2 96.2 c-2.2 -0.2 -3.2 -0.8 -2.9 -1.6 0.4 -1 -0.5 -1.2 -3.4 -1 -3.4 0.2 -4.1 -0.1 -4.9 -2.2 -0.6 -1.4 -1.8 -2.4 -2.9 -2.4 -2.4 0 -3.1 -1.9 -3.1 -8.6 0 -4.1 0.5 -5.9 2 -7.4 2.4 -2.4 7.5 -2.8 6.6 -0.5 -0.3 0.8 0 1.4 0.7 1.2 1.5 -0.3 2.2 4.3 0.8 5.2 -0.6 0.4 -0.7 1.2 -0.1 2.1 0.8 1.3 1.3 1.2 4 -0.4 1.7 -1 3.2 -1.6 3.4 -1.4 0.1 0.1 0.7 2 1.3 4 0.8 2.7 0.8 3.8 -0.1 4.1 -0.6 0.3 0.4 0.5 2.2 0.4 1.8 0 3.5 -0.4 3.8 -0.9 0.3 -0.4 2.2 -0.8 4.2 -0.8 3.4 0 3.5 0.1 1.6 1.6 -1.3 1.1 -1.5 1.7 -0.6 2 2.2 1 1.3 2 -3.5 4.4 -5.6 2.8 -4.9 2.6 -9.1 2.2z"/>
  <path d="M0.7 77.6 c-0.3 -1.8 -0.1 -6.5 0.3 -10.2 0.5 -3.8 0.9 -7.2 1 -7.6 0 -0.5 0.9 -0.8 2.1 -0.8 1.9 0 2 0.5 1.7 6.5 -0.3 6.7 -0.2 6.9 4 6.8 0.7 -0.1 1.2 1.2 1.2 3.3 0 2.4 -0.5 3.4 -1.5 3.4 -0.8 0 -1.5 0.5 -1.5 1 0 0.6 -1.5 1 -3.4 1 -3 0 -3.4 -0.3 -3.9 -3.4z"/>
  <path d="M13.2 71.8 c0.2 -1.7 0.8 -3.3 1.4 -3.5 0.7 -0.2 1 0.7 0.8 2.4 -0.2 1.5 -0.1 2.2 0.2 1.6 1 -2.1 4.4 -1.6 4.4 0.7 0 1.6 -0.7 2 -3.6 2 -3.4 0 -3.5 -0.1 -3.2 -3.2z"/>
  <path d="M104.6 71.4 c-0.3 -0.9 -0.6 -3.5 -0.6 -5.9 0 -5.9 -1 -10.5 -2.4 -10.6 -0.6 0 -2.8 -2.3 -4.8 -5.2 -3 -4 -3.8 -6.1 -3.8 -9.4 0 -3.8 0.3 -4.3 2.3 -4.3 2.8 0 5.2 2.4 6.1 6.3 0.3 1.5 1.2 2.7 1.9 2.7 2.1 0 6.9 11.9 7.5 18.2 0.6 7.2 0.1 8.6 -2.1 6.4 -1.6 -1.6 -1.7 -1.6 -1.7 0.8 0 2.9 -1.4 3.5 -2.4 1z"/>
  <path d="M117 62.6 c0 -0.8 -0.3 -1.6 -0.7 -1.8 -1.2 -0.5 -4.3 -10.2 -4.3 -13.2 0 -2.4 0.4 -2.6 3.9 -2.6 4.5 0 4.8 0.5 5.8 11.8 l0.6 7.2 -2.7 0 c-1.6 0 -2.6 -0.6 -2.6 -1.4z"/>
  <path d="M28.7 59.3 c-1.4 -1.3 -0.6 -2.5 1.3 -2 2.1 0.6 2.8 -0.9 0.8 -1.5 -1 -0.4 -0.8 -1.4 0.7 -4.1 3 -5.6 4.5 -4.8 4.5 2.3 l0 6 -3.3 0 c-1.9 0 -3.7 -0.3 -4 -0.7z"/>
  <path d="M4.7 58.2 c-1.4 -0.3 -1.7 -1 -1.3 -2.5 0.3 -1.2 0.6 -2.6 0.6 -3.1 0 -0.5 0.8 -0.2 1.8 0.5 1.4 1.1 1.5 1.1 0.5 -0.1 -3 -3.3 0.3 -6.6 7.5 -7.6 4 -0.5 4.2 -0.4 4.2 1.9 0 2.1 -0.4 2.4 -2.2 2 -1.8 -0.4 -2 -0.3 -0.8 0.6 1.3 0.9 1.2 1.2 -0.5 2.5 -1.1 0.9 -2.4 1.6 -2.8 1.6 -0.4 0 -1.8 1 -3 2.3 -1.2 1.3 -3 2.1 -4 1.9z"/>
  <path d="M125.4 32.5 c0.3 -0.8 0.2 -1.5 -0.3 -1.5 -1.2 0 -3.1 -4.7 -3.1 -7.5 0 -2.8 0.9 -3.1 3 -1.2 1.2 1 1.2 0.9 0.1 -0.5 -0.9 -1.2 -2.1 -1.6 -3.7 -1.2 -1.8 0.5 -2.4 0.2 -2.4 -1 0 -2.9 4.4 -1.8 8.2 2.2 3.4 3.4 3.6 4.1 3.1 8 -0.5 3.6 -0.9 4.2 -3 4.2 -1.8 0 -2.4 -0.4 -1.9 -1.5z"/>
  <path d="M59 30.4 c-1.7 -0.9 -4.2 -1.2 -7.7 -0.7 -6.5 0.7 -8.3 -0.5 -8.3 -5.6 0 -4.8 1.4 -6.1 6.6 -6.1 6.6 0 19.3 2 23.6 3.7 3.4 1.3 3.8 1.9 3.8 4.9 0 2.9 -0.3 3.4 -2.4 3.4 -1.4 0 -2.8 0.5 -3.1 1 -0.9 1.4 -9.6 1 -12.5 -0.6z"/>
  <path d="M27.1 26.6 c-0.9 -1.1 -0.8 -1.8 0.4 -3 1.5 -1.4 1.5 -1.6 0.1 -1.6 -2.7 0 -1.8 -2.8 1.7 -5.4 3.9 -3 4.3 -3 8 -1.3 5.9 2.7 1.7 12.7 -5.5 12.7 -1.9 0 -4.1 -0.6 -4.7 -1.4z"/>
  <path d="M58.8 8.3 c-4 -4.7 -3.2 -5.8 5.2 -6.9 5.7 -0.8 6.3 0.2 3.3 5.5 -2.1 3.6 -6.1 4.2 -8.5 1.4z"/>
 </g>
 <g fill="#125479">
  <path d="M69.7 150.3 c-1.2 -1.1 -0.7 -6.7 0.7 -8.5 0.8 -1.1 2.6 -1.8 4.5 -1.8 2.6 0 3.1 -0.4 3.1 -2.5 0 -2.2 0.4 -2.5 3.6 -2.5 5.4 0 7.4 1.5 7.4 5.7 l0 3.6 -4.4 -0.5 -4.4 -0.5 -0.6 3.8 c-0.6 3.8 -0.7 3.9 -4.9 3.9 -2.4 0 -4.7 -0.3 -5 -0.7z"/>
  <path d="M97 145.5 c0 -3.2 0.2 -3.5 2.9 -3.5 6.8 0 8.3 3.2 2.6 5.6 -4.9 2 -5.5 1.8 -5.5 -2.1z"/>
  <path d="M63.2 133.4 c-1.5 -1.1 -2.2 -2.5 -2.2 -5 0 -3.4 1.6 -4.6 2.6 -1.9 0.6 1.5 3.7 2.9 7.4 3.4 0.6 0 1 1.2 1 2.6 0 2.2 -0.4 2.5 -3.3 2.5 -1.8 0 -4.3 -0.7 -5.5 -1.6z"/>
  <path d="M21.1 128.7 c-3.8 -3.9 -4.2 -4.9 -3.6 -7.5 0.4 -2.1 1.3 -3.2 2.8 -3.4 1.7 -0.2 2.3 -1.1 2.5 -3.5 0.3 -3 0.6 -3.3 3.8 -3.3 2.9 0 3.4 0.3 3.4 2.3 0 1.3 0.5 2.8 1.1 3.4 0.8 0.8 0.8 1.3 0 1.7 -0.6 0.4 -1.1 2.3 -1.1 4.2 0 1.9 -0.4 3.4 -0.9 3.4 -0.4 0 -1.5 1.6 -2.2 3.6 l-1.4 3.5 -4.4 -4.4z"/>
  <path d="M43 131.1 c-0.5 -1.1 -1 -2.9 -1 -4 0 -2.8 3.6 -2.8 4.5 -0.1 0.3 1.1 1 2 1.5 2 0.5 0 1.4 0.9 2 2 1 1.8 0.8 2 -2.4 2 -2.5 0 -3.8 -0.6 -4.6 -1.9z"/>
  <path d="M108.7 132.3 c-0.4 -0.3 -0.7 -2.1 -0.7 -4 0 -3.2 0.1 -3.3 3.9 -3.3 5.9 0 7.1 0.8 7.1 4.6 0 3.4 0 3.4 -4.8 3.4 -2.7 0 -5.2 -0.3 -5.5 -0.7z"/>
  <path d="M94.5 131 c-0.4 -0.6 -1.1 -0.8 -1.6 -0.5 -0.5 0.4 -0.9 0.2 -0.9 -0.4 0 -0.6 -0.7 -0.8 -1.5 -0.5 -1 0.4 -1.5 0 -1.5 -1.5 0 -1.8 0.6 -2.1 4 -2.1 3.8 0 4 0.2 4 3 0 3 -1.3 4 -2.5 2z"/>
  <path d="M50.1 123.7 c-2.2 -3 -4.1 -6.1 -4.1 -6.9 0 -0.9 -0.7 -2.1 -1.5 -2.8 -0.9 -0.7 -1.4 -1.9 -1.1 -2.7 0.3 -0.8 0.2 -1.2 -0.3 -0.9 -0.5 0.3 -1.1 -0.8 -1.3 -2.4 -0.4 -2.6 -0.1 -3 1.9 -3 1.3 0 2.3 0.6 2.3 1.4 0 0.8 1 1.6 2.2 1.8 1.5 0.2 2.4 1.3 3 3.5 0.5 1.7 2.6 5 4.8 7.2 2.9 2.9 4 4.9 4 7.1 0 2.6 -0.3 3 -2.9 3 -2.3 0 -3.7 -1.1 -7 -5.3z"/>
  <path d="M71.1 122.1 c-1.2 -0.7 -2.1 -2.4 -2.1 -3.7 0 -2 -0.5 -2.4 -3.3 -2.4 -5.4 0 -8.7 -2 -8.7 -5.4 0 -2.2 0.3 -2.7 1.1 -1.9 0.6 0.6 1.7 0.9 2.4 0.7 0.6 -0.3 1.8 0.2 2.5 1.1 0.7 0.8 1.8 1.5 2.4 1.5 0.7 0 2.1 0.8 3.2 1.8 2.5 2.4 3.5 2.6 4.4 1.2 1.1 -1.8 6.1 -0.4 5.4 1.5 -0.4 0.8 0.1 1.7 1 2.1 0.9 0.3 1.6 1.7 1.6 3 0 2.1 -0.4 2.3 -3.9 2.1 -2.2 -0.1 -4.9 -0.8 -6 -1.6z"/>
  <path d="M90.8 122.3 c-1.3 -0.3 -1.8 -1.5 -1.8 -3.9 0 -3.2 0.2 -3.4 3.3 -3.3 2.9 0 3 0.1 1 0.9 -3.6 1.4 -2.7 2.5 1.9 2.5 3.7 0 4.3 0.3 4.6 2.3 0.3 2 -0.1 2.2 -3.5 2.1 -2.1 -0.1 -4.6 -0.3 -5.5 -0.6z"/>
  <path d="M70.5 111.4 c-13.2 -6.8 -7.5 -14.9 6.2 -8.9 3.5 1.6 5.9 2.2 6.1 1.5 0.2 -0.5 2.8 -1 5.8 -1 3.3 0 5.4 -0.4 5.4 -1.1 0 -0.7 1 -0.9 2.6 -0.5 2.1 0.6 2.5 0.4 2.1 -0.8 -0.4 -1 0.6 -2.2 2.7 -3.5 4 -2.5 7.5 -2.9 5.7 -0.7 -1.3 1.6 0.2 3.2 1.9 2.1 0.6 -0.3 1 0.5 1 1.9 0 1.5 -0.7 2.6 -1.7 2.9 -1.7 0.4 -1.7 0.5 0 0.6 3.2 0.2 0.9 4.1 -2.5 4.1 -1 0 -1.7 0.5 -1.5 1.1 0.3 1.4 -11.5 4.1 -15.8 3.6 l-3 -0.3 3.5 -1.1 c3.5 -1.1 3.5 -1.1 -2.2 -1.2 -3.5 -0.1 -5.8 -0.5 -5.8 -1.2 0 -0.7 1.2 -0.9 3.3 -0.5 1.7 0.3 4.8 0.1 6.7 -0.3 3 -0.8 2.4 -0.9 -3.8 -1 -4 -0.1 -8.2 -0.6 -9.4 -1.2 -1.1 -0.6 -2.2 -0.8 -2.5 -0.6 -0.3 0.3 0.7 1.2 2.2 2 2.1 1 2.4 1.5 1.3 2 -0.9 0.3 -2.8 -0.1 -4.3 -0.9 -1.9 -1 -2.5 -1 -2.2 -0.1 0.2 0.6 1.3 1.7 2.5 2.3 3.4 1.7 3.7 2.4 1.1 2.4 -1.3 0 -3.7 -0.7 -5.4 -1.6z"/>
  <path d="M4.2 100.1 c-1.7 -5.6 -1.6 -6.1 2.3 -6.1 3.3 0 3.5 0.2 3.5 3.5 0 1.9 -0.4 3.5 -1 3.5 -0.5 0 -1 0.7 -1 1.5 0 3.1 -2.7 1.4 -3.8 -2.4z"/>
  <path d="M40.5 103 c-0.4 -0.6 -1.1 -5.2 -1.7 -10.3 -0.9 -7.6 -0.9 -9.9 0.3 -12.5 2.5 -5.6 3.6 -3.9 3.2 5.1 -0.1 4.5 0 7.5 0.3 6.7 0.3 -0.8 0.8 -2.2 1.1 -3 0.4 -1.1 0.9 -0.6 1.9 1.5 1.3 2.9 1.3 2.9 1.3 0.5 -0.2 -10.7 2.1 -17 5.6 -15.6 1.4 0.5 1.3 0.9 -0.9 3 -2.3 2 -2.6 3.1 -2.5 8.7 0 4.9 0.2 5.9 0.9 4.2 0.5 -1.3 1.7 -2.3 2.7 -2.4 1.1 0 1.3 -0.3 0.6 -0.6 -2.1 -0.8 -1.5 -5 0.7 -5.6 1.8 -0.5 2 0 2 3.9 0 2.4 -0.4 4.4 -1 4.4 -0.6 0 -0.8 2 -0.4 5 l0.5 5 -3.9 0 c-2.6 0 -4.2 0.5 -4.6 1.5 -0.6 1.7 -5.1 2 -6.1 0.5z"/>
  <path d="M85.4 94.5 c0.6 -1.8 -1.9 -2 -5.8 -0.5 -1.6 0.6 -2.6 0.6 -2.6 0 0 -0.5 -0.6 -0.7 -1.3 -0.4 -0.7 0.2 -3 -1.4 -5 -3.6 -2.7 -3.1 -3.7 -5 -3.7 -7.6 0 -3.2 0.2 -3.4 3.5 -3.4 3.2 0 3.5 0.2 3.5 3 0 1.7 0.4 3 0.9 3 0.5 0 1.4 1.3 1.9 2.9 0.9 2.4 1.6 2.9 5.2 3.3 4.3 0.4 6.7 -1 3.2 -1.9 -1.3 -0.3 -1.8 -1.1 -1.5 -1.9 0.3 -0.8 0 -1.4 -0.7 -1.4 -0.7 0 -1 -0.8 -0.7 -2 0.3 -1.1 0 -2 -0.6 -2 -0.7 0 -0.4 -0.7 0.6 -1.4 3 -2.3 5.7 -0.9 5.7 3 0 2 -0.5 3.4 -1.2 3.4 -2.3 0 1.6 2 4 2 2.8 0 2.9 2.6 0.2 3.5 -1.1 0.3 -2 1.3 -2 2.1 0 0.8 -0.9 1.4 -2.1 1.4 -1.5 0 -1.9 -0.5 -1.5 -1.5z"/>
  <path d="M94 88.1 c0 -2.3 1 -4.2 3.4 -6.6 1.8 -1.9 3.8 -3.5 4.5 -3.5 0.6 0 1.1 -1.7 1.1 -4 0 -3.3 0.3 -4 2 -4 1.3 0 2 0.7 2 2 0 1.1 0.5 2 1 2 1.7 0 1.1 2.4 -2 8.2 -2.5 4.6 -3.4 5.5 -5.1 5.1 -1.3 -0.4 -2.9 0.3 -4.4 1.7 l-2.5 2.3 0 -3.2z"/>
  <path d="M112 88.1 c0 -3 3.9 -14.4 5.2 -15.2 1.4 -0.9 0.4 -11.2 -1.1 -11.7 -1.4 -0.5 -1.5 -4.2 0 -4.2 0.6 0 1.3 0.9 1.6 2 0.3 1.1 1.2 2 2 2 1 0 1.2 -0.6 0.8 -2.2 -0.6 -1.8 -0.5 -2 0.5 -1.1 1.5 1.4 2.1 19.1 0.8 24.3 -0.5 1.9 -1.8 4.6 -2.9 6 -1.1 1.5 -1.7 1.8 -1.3 0.8 0.8 -2.3 -1.3 -2.4 -3.8 -0.1 -1.7 1.5 -1.8 1.5 -1.8 -0.6z"/>
  <path d="M127 84.7 c0 -3.9 1.5 -5.7 4.7 -5.7 2 0 2.2 -0.4 1.7 -2.6 -0.5 -2 -0.4 -2.5 0.6 -1.9 1 0.6 1.1 -0.5 0.6 -5.1 -0.5 -3.8 -0.2 -8.3 0.7 -12.6 l1.5 -6.8 -3.3 0 c-3.6 0 -4.5 -1.3 -4.5 -6.1 0 -1.6 -0.4 -2.9 -1 -2.9 -1.4 0 -3.3 -7.9 -2.2 -9.3 0.5 -0.7 1.2 -2.8 1.5 -4.8 0.4 -2.9 0.1 -3.8 -1.6 -5 -1.2 -0.7 -3.3 -1.4 -4.7 -1.4 -1.8 0 -2.5 -0.5 -2.5 -2 0 -4 3.3 -2.5 10.3 5 6.8 7 7.2 7.8 7.2 12 0 2.9 -0.4 4.5 -1.2 4.6 -0.7 0 0.3 0.5 2.2 1.2 2.4 0.8 3.6 1.9 3.8 3.5 0.2 1.3 1 2.2 2.2 2.2 1.1 0 2.2 1.2 2.9 3.1 1.5 4.4 1.4 5.5 -0.8 7.6 -1 1 -2.6 4.8 -3.5 8.5 -0.9 3.7 -3.2 10.1 -5.1 14.3 -3.2 6.9 -3.7 7.5 -6.5 7.5 -2.7 0 -3 -0.3 -3 -3.3z"/>
  <path d="M0 76.6 c0 -5.3 1.6 -6.9 2.5 -2.6 0.6 2.9 2.5 5.2 2.5 3.1 0 -0.6 0.5 -1.1 1 -1.1 0.6 0 1 1.1 1 2.5 0 2.2 -0.4 2.5 -3.5 2.5 -3.5 0 -3.5 0 -3.5 -4.4z"/>
  <path d="M88.6 72.4 c-0.3 -0.9 -0.6 -3.2 -0.6 -5.2 0.1 -3 0.3 -3.4 1.1 -1.9 1.2 2.1 4.4 2.3 3.5 0.2 -0.6 -1.6 0.9 -2.1 1.8 -0.7 0.3 0.5 0.8 2.8 1.2 5 l0.7 4.2 -3.6 0 c-2.3 0 -3.7 -0.6 -4.1 -1.6z"/>
  <path d="M17 72 c0 -0.5 0.7 -1 1.5 -1 0.8 0 1.5 -0.7 1.5 -1.6 0 -0.8 0.5 -1.2 1 -0.9 0.6 0.3 1.3 -0.2 1.7 -1.2 1.7 -4.8 5.9 -10.3 7.5 -9.9 2.2 0.5 3.5 -1.3 1.7 -2.4 -0.9 -0.6 -1 -1.2 -0.2 -2.2 0.6 -0.7 0.9 -2.3 0.8 -3.5 -0.1 -1.6 0.4 -2.3 1.7 -2.3 2.7 0 8.8 -4.2 8.8 -6.2 0 -2 5 -3.8 10.4 -3.7 2.3 0 3.5 0.3 2.9 0.6 -0.7 0.2 -1.3 1.1 -1.3 1.8 0 0.7 -0.6 1.5 -1.3 1.8 -1.8 0.7 -15.1 10.9 -15.5 11.9 -0.2 0.4 -1.2 0.8 -2.3 0.8 -1.5 0 -1.9 0.7 -1.9 3.6 0 4.2 -2.7 9.4 -5 9.4 -2.2 0.1 -5 2.5 -5 4.4 0 1.2 -0.9 1.6 -3.5 1.6 -1.9 0 -3.5 -0.4 -3.5 -1z"/>
  <path d="M4.7 58.2 c-1.4 -0.3 -1.7 -1 -1.3 -2.5 0.3 -1.2 0.6 -2.5 0.6 -2.9 0 -0.7 5 1.5 5 2.3 0 1.5 -2.7 3.5 -4.3 3.1z"/>
  <path d="M97.7 50 c-0.6 -1.6 -1.7 -3 -2.4 -3 -0.6 0 -1.5 -0.9 -1.8 -2 -0.3 -1.1 -1 -2 -1.4 -2 -2.1 0 -5.1 -4.4 -5.1 -7.5 0 -3.3 0.2 -3.5 3.3 -3.5 2.4 0 4.2 0.9 6.5 3.3 1.8 1.8 3.2 3.9 3.2 4.7 0 1.1 -0.3 1.1 -1.2 0.2 -2 -2 -2.8 -1.4 -2.8 2.1 0 2.7 0.9 4.1 4.1 7 4 3.7 4 3.7 1.4 3.7 -2.1 0 -2.9 -0.7 -3.8 -3z"/>
  <path d="M66 30.4 c0 -1.3 3.6 -3.3 6 -3.4 l2.5 -0.1 -2.5 -1.4 c-2.4 -1.4 -2.4 -1.4 2.3 -1.5 l4.7 0 0 3.5 0 3.5 -6.5 0 c-3.6 0 -6.5 -0.3 -6.5 -0.6z"/>
  <path d="M26.6 26.2 c-0.2 -0.4 -0.1 -1.4 0.4 -2.2 0.8 -1.2 1.3 -1.3 2.9 -0.3 2.5 1.6 4.5 0.8 5.8 -2 0.8 -1.8 0.6 -2.4 -1.5 -3.4 -1.3 -0.7 -3.2 -1.3 -4 -1.3 -1.2 0 -0.9 -0.5 0.8 -1.7 1.4 -1 3.4 -1.6 4.5 -1.5 4.7 0.6 6.5 1.3 6.5 2.5 0 1 1.5 1.2 6.1 0.9 3.3 -0.3 7 0 8.2 0.6 1.2 0.6 3.8 1.3 5.7 1.4 2.3 0.2 3.6 0.9 3.8 2 0.3 1.4 -0.2 1.5 -3.5 0.8 -4.9 -1.1 -5.5 -0.4 -1.2 1.4 l3.4 1.5 -2.9 0.1 c-3.9 0 -10.7 -2.1 -10 -3.1 0.9 -1.6 -3.3 -1 -4.6 0.6 -1 1.2 -1 1.8 0 3 1.1 1.3 0.8 1.5 -1.6 1.5 -1.6 -0.1 -4.9 -0.5 -7.4 -1 -2.7 -0.5 -4.6 -0.5 -4.8 0.1 -0.4 1.1 -5.9 1.2 -6.6 0.1z"/>
  <path d="M90.8 23.6 c-1 -0.7 -1.8 -2.5 -1.8 -4 0 -2.6 0.2 -2.7 4.3 -2.4 4.1 0.3 4.2 0.4 4.5 4.1 0.3 3.5 0.2 3.7 -2.5 3.7 -1.5 0 -3.6 -0.7 -4.5 -1.4z"/>
  <path d="M82 17.5 c-0.7 -0.8 -2.1 -1.5 -3 -1.5 -2.8 0 -5 -1.1 -5 -2.4 0 -0.7 -2.9 -1.8 -6.6 -2.6 -8 -1.7 -10.9 -3.7 -10 -6.8 0.5 -1.4 1.6 -2.2 2.9 -2.2 2 0 2 0.1 0.2 1.4 -1.8 1.3 -1.8 1.4 0.3 2.5 2.8 1.5 3.2 1.4 3.2 -0.8 0 -2.9 1.6 -3.5 10.4 -3.8 l7.8 -0.3 -0.3 4.4 c-0.3 3.4 0 4.7 1.3 5.5 1.2 0.7 1.8 2.4 1.8 4.6 0 3.7 -1 4.4 -3 2z"/>
 </g>
 <g fill="#531f6e">
  <path d="M60.3 149.5 c-2.2 -1.9 -2.4 -2.4 -1 -2.5 0.9 0 1.7 -0.5 1.7 -1 0 -0.6 1.1 -0.8 2.5 -0.4 1.9 0.5 2.5 0.2 2.5 -1.1 0 -1.4 -5.2 -9 -7.2 -10.5 -0.3 -0.3 -3.4 -3.9 -6.7 -8 -5.8 -7 -7.6 -10.8 -4.8 -9.7 0.9 0.3 1.1 -0.8 0.9 -4.4 l-0.4 -4.9 4.2 0 c3 0 5.1 0.8 7.8 2.8 2 1.6 5.1 3.3 6.7 3.8 2.4 0.8 3.1 1.6 3.3 4.2 l0.3 3.3 -5.4 -3.5 c-4.6 -2.9 -5.6 -3.2 -6.1 -1.9 -0.5 1.2 -0.9 1.3 -2.1 0.3 -0.9 -0.7 -1.8 -1 -2.1 -0.7 -0.8 0.8 2.7 5.2 6.1 7.9 1.5 1.1 3 3.1 3.5 4.4 1.2 2.9 5 5.2 5 2.9 0 -1.4 0.3 -1.4 3 0 1.6 0.8 3.4 1.5 4 1.5 1.7 0 14.3 5.1 16 6.5 0.8 0.6 4.3 1.3 7.8 1.4 9.5 0.3 14.9 3.1 8.7 4.7 -3.1 0.8 -14.9 -1.2 -15.3 -2.6 -0.2 -0.5 -1.9 -1 -3.8 -1 -1.9 0 -3.4 -0.4 -3.4 -1 0 -0.5 -0.7 -0.7 -1.5 -0.4 -0.8 0.4 -1.5 0.2 -1.5 -0.3 0 -0.6 -2.1 -1.1 -4.6 -1.1 -3.4 -0.2 -5.1 -0.8 -6.8 -2.7 -1.3 -1.4 -3.1 -2.5 -4 -2.5 -0.9 0 -1.6 -0.4 -1.6 -1 0 -0.5 -0.5 -1 -1.1 -1 -0.6 0 0.6 1.9 2.5 4.2 3.7 4.3 4.1 6.1 3 13.1 -0.6 3.4 -0.9 3.7 -4 3.7 -2.1 0 -4.3 -0.9 -6.1 -2.5z m-3.3 -24.9 c0 -0.8 -1.4 -2.5 -3.1 -3.7 l-3.1 -2.2 1.2 2.4 c1.1 2 3.8 4.7 4.8 4.9 0.1 0 0.2 -0.6 0.2 -1.4z"/>
  <path d="M28.7 135.9 c-2.3 -1.8 -2.7 -2.8 -2.7 -7.5 0 -4.1 0.4 -5.4 1.5 -5.4 2 0 1.9 -2.7 -0.1 -3.8 -1.1 -0.6 -1.4 -1.6 -0.9 -3.1 0.5 -1.7 1.3 -2.2 3.6 -1.9 1.6 0.1 3.7 -0.4 4.9 -1.4 1.9 -1.7 2.1 -1.6 6 4.2 2.2 3.2 4 6.2 4 6.5 0 0.4 1.1 2.1 2.5 3.9 3 4 3 4.2 0.6 4.9 -2.6 0.7 -4.3 -1.4 -7.7 -9.5 -2 -4.7 -3.4 -6.8 -4.6 -6.8 -1 0 -1.8 0.4 -1.8 0.9 0 0.5 -0.9 1.1 -2 1.4 -1.7 0.4 -2 1.3 -2 5.4 0.1 2.6 0.5 6.8 1 9.3 0.4 2.5 0.7 4.6 0.6 4.8 -0.2 0.1 -1.5 -0.7 -2.9 -1.9z"/>
  <path d="M108.2 133 c-11 -0.6 -12.4 -0.9 -14.3 -2.9 l-2.2 -2.3 9.9 0.6 c5.5 0.4 12.3 0.6 15.2 0.6 4.9 0 5.2 0.1 5.2 2.5 0 1.4 -0.3 2.4 -0.7 2.3 -0.5 0 -6.3 -0.4 -13.1 -0.8z"/>
  <path d="M96 125 c0 -1.2 2.7 -1.2 5.5 0 1.6 0.7 1.3 0.9 -1.7 0.9 -2.1 0.1 -3.8 -0.3 -3.8 -0.9z"/>
  <path d="M110 124.8 c0 -1 2.6 -2.3 8 -3.8 l8 -2.3 2.5 2.6 2.6 2.5 -4.3 0.6 c-12.2 1.8 -16.8 1.9 -16.8 0.4z"/>
  <path d="M15.7 122.2 c-2 -2.2 -1.5 -6.3 0.9 -8.3 0.8 -0.6 1.4 -1.8 1.4 -2.5 0 -0.8 0.7 -1.4 1.6 -1.4 1 0 1.4 -0.6 1 -1.5 -0.4 -1 0.1 -1.5 1.4 -1.5 1.7 0 2 0.7 2 4.5 0 3 -0.4 4.5 -1.3 4.5 -0.7 0 -2.2 1.8 -3.3 4.1 -1.9 4 -2 4 -3.7 2.1z"/>
  <path d="M95 121.6 c0 -0.7 1.1 -1.6 2.5 -1.8 1.9 -0.4 2.5 -0.1 2.5 1.3 0 1.4 -0.7 1.9 -2.5 1.9 -1.5 0 -2.5 -0.6 -2.5 -1.4z"/>
  <path d="M103.5 116.5 c3.4 -3 19.5 -10.9 20.4 -10 1.3 1.4 -13.8 10 -20.9 11.9 -2.4 0.7 -2.4 0.6 0.5 -1.9z"/>
  <path d="M75.8 105 c-2.1 -1 -4.6 -1.6 -5.7 -1.3 -1.1 0.3 -3.7 -0.7 -6.1 -2.4 -7 -4.6 -8.4 -5.3 -10.1 -4.8 -1.1 0.4 -1.9 -0.2 -2.3 -1.7 -1 -3.8 -0.7 -5.8 0.9 -5.8 1.3 0 1.3 -0.3 0.3 -1.9 -1 -1.7 -0.8 -2.3 1.4 -4.4 2.9 -2.7 3.8 -2 3.8 2.8 0 3.3 9.9 13.1 15.8 15.7 3.4 1.5 6.4 2 12.1 1.9 4.2 -0.1 7.8 -0.6 7.9 -1.1 0.5 -1.2 3.2 -1.3 3.2 -0.1 0 0.5 -0.7 1.1 -1.5 1.5 -0.8 0.3 -1.5 1.1 -1.5 1.8 0 2.2 -13.7 2.1 -18.2 -0.2z"/>
  <path d="M5.4 103.5 c-0.4 -1.5 -0.2 -3.6 0.4 -4.8 0.6 -1.2 1.3 -3 1.6 -3.9 0.3 -1.2 1.6 -1.8 3.6 -1.8 2.6 0 2.9 0.2 2 1.8 -0.5 0.9 -1.3 3.2 -1.8 5.1 -0.4 1.9 -1.8 4.1 -2.9 4.8 -2.1 1.4 -2.3 1.3 -2.9 -1.2z"/>
  <path d="M103.7 101.9 c0.3 -1 1.2 -1.9 1.9 -1.9 4.3 0 17.6 -18 14.7 -19.8 -0.5 -0.4 -1.2 -1.3 -1.4 -2.1 -0.3 -0.7 -1.4 1.2 -2.4 4.4 -2.1 6 -9.5 15.5 -12.1 15.5 -0.8 0 -1.4 0.4 -1.4 0.9 0 1.3 -3.2 2.3 -4.3 1.2 -0.5 -0.5 0.4 -1.6 2.3 -2.7 4.5 -2.7 11.8 -13 13.6 -19.1 0.9 -2.9 1.9 -5.3 2.4 -5.3 1.2 0 2.4 -4 2.1 -6.9 -0.2 -1.3 0.3 -2.7 0.9 -3.1 1.7 -1 -1.7 -15 -3.6 -15 -1.8 0 -1.8 1.7 0.1 7 0.8 2.3 1.2 4.6 0.9 5.1 -1.1 1.8 -2.2 0.8 -2.8 -2.3 -0.9 -5.1 -7.2 -16.6 -12.7 -23.3 -4.5 -5.6 -11.3 -11.5 -18.2 -15.9 -1.6 -1 -2.6 -2 -2.3 -2.3 0.9 -0.9 -1.5 -3.3 -3.3 -3.3 -1.4 0 -1.4 0.2 -0.1 1 2.4 1.5 0.4 2.3 -3.2 1.1 -1.8 -0.6 -5.2 -1.6 -7.5 -2.1 -3.9 -1 -10.3 -5.2 -10.3 -6.9 0 -1.4 18.4 3.1 20.4 5 0.6 0.5 1.8 0.9 2.8 0.9 1 0 1.8 0.5 1.8 1 0 0.6 0.6 1 1.3 1 0.7 0 3.2 0.9 5.5 2 2.2 1.1 4.5 2 5.1 2 0.5 0 1.3 0.9 1.6 2 0.8 2.5 2.5 2.6 2.5 0.1 0 -1.4 0.5 -1.8 1.9 -1.4 1.2 0.3 1.7 1.1 1.4 1.9 -0.3 0.8 -0.2 1.4 0.3 1.2 3.8 -1 9.8 5.5 14.9 16.5 4.4 9.1 5.7 16.1 5.9 31.2 0.1 11.4 -0.1 12.3 -2.7 17.4 -1.6 2.9 -2.6 5.6 -2.3 5.9 1 0.9 8.4 -8 11.2 -13.5 2.1 -4.1 3.1 -5.3 4.5 -5 1 0.3 2 0 2.2 -0.7 0.2 -0.6 0.9 -0.1 1.6 1.2 1.1 2.1 0.7 3.4 -2.9 10.8 -2.8 5.6 -5.7 9.7 -8.6 12.3 -4.4 3.8 -4.6 3.9 -11.9 3.7 -4.1 -0.1 -7.5 0.1 -7.5 0.5 0 0.4 -0.6 0.9 -1.4 1.2 -1 0.4 -1.2 0 -0.9 -1.4z m30.3 -19.2 c1 -0.4 0.8 -0.6 -0.6 -0.6 -1.2 -0.1 -2.5 0.6 -2.8 1.5 -0.5 1.3 -0.3 1.4 0.6 0.7 0.7 -0.6 2 -1.3 2.8 -1.6z"/>
  <path d="M24.6 89.4 c-1.2 -3 -0.6 -8.9 1.4 -14.2 1.1 -2.9 2 -6 2 -7 -0.1 -1.4 -0.4 -1.3 -2 0.7 -1.1 1.3 -2 3 -2 3.7 0 1.9 -2.9 6.4 -4.1 6.4 -1.8 0 -0.9 -7.7 1.1 -9.5 1.1 -1 2.2 -2.6 2.5 -3.6 0.4 -1.1 1.4 -1.9 2.3 -1.9 0.9 -0.1 3 -1.9 4.5 -4.2 2.3 -3.2 2.6 -4.3 1.5 -5 -1 -0.7 -0.8 -1.3 1.1 -2.8 1.3 -1.1 1.9 -2 1.3 -2 -0.5 0 -1.2 -0.7 -1.6 -1.5 -0.8 -2.1 9.4 -9.4 15.3 -11 2.5 -0.6 5.6 -1.5 6.9 -1.9 1.4 -0.5 2.2 -0.3 2.2 0.4 0 1.9 -2.3 3.5 -6.7 4.8 -2.9 0.9 -5.3 2.6 -7.5 5.4 -1.8 2.2 -3.2 4.5 -3.1 4.9 0.2 0.5 -0.1 0.9 -0.6 0.9 -0.5 0 -1.1 0.7 -1.5 1.5 -0.4 1.3 -0.2 1.4 1.4 0.5 2.7 -1.5 2.5 -0.8 -1.5 5.3 -1.9 2.8 -4.6 8.2 -6 12 -2.5 6.8 -3.4 15.7 -1.5 15.7 0.6 0 1 0.9 1 2 0 1.5 -0.7 2 -2.9 2 -1.7 0 -3.1 -0.6 -3.5 -1.6z"/>
  <path d="M68.6 87.9 c-5.4 -6.3 -0.5 -19.6 6.3 -17.4 1.8 0.5 4 3.7 2.3 3.3 -0.4 -0.1 -1.7 0.3 -2.9 1 -2.7 1.5 -4.4 7 -3.6 11.7 0.7 4.1 0.4 4.2 -2.1 1.4z"/>
  <path d="M95.1 83.7 c4.1 -4 5.4 -6.7 8.5 -17.6 0.8 -2.6 -2.7 -11 -6.7 -16.3 -2.1 -2.9 -4 -5.5 -4.1 -5.8 -0.2 -0.3 -2.3 -2 -4.8 -3.7 -5.5 -3.7 -13.7 -6.3 -20.1 -6.3 -3.1 0 -5.1 -0.5 -6 -1.6 -0.7 -0.9 -2.2 -2 -3.4 -2.4 -1.7 -0.7 -1.7 -0.9 -0.2 -0.9 0.9 -0.1 1.7 -0.8 1.7 -1.6 0 -0.8 0.5 -1.5 1 -1.5 0.6 0 1 0.7 1 1.6 0 1.4 0.7 1.6 4.4 1.1 2.8 -0.4 5.7 -0.1 7.8 0.7 1.8 0.8 4.9 1.7 6.8 2.1 6.2 1.3 1.5 -1.9 -9.5 -6.3 -7.2 -2.9 -12.2 -4.3 -17.9 -4.8 -7.9 -0.7 -8.6 -1 -12.8 -6.3 -2.4 -2.9 -2.3 -3.9 0.8 -5.3 2.3 -1.1 2.8 -0.8 6.2 2.9 4.5 5.1 8.7 7 17.2 7.8 7.2 0.7 10.1 1.5 17.8 5.2 5.9 2.9 18.7 14.2 18.1 16.1 -0.2 0.7 -1.5 0.1 -3.4 -1.6 -1.7 -1.6 -4 -3.1 -5.2 -3.4 -2 -0.5 -2.1 -0.3 -1.3 1.2 0.6 1.1 1.5 2.2 2 2.5 0.6 0.4 1.6 2.1 2.4 3.8 0.7 1.8 2.8 4.5 4.5 6.2 2.6 2.4 3.4 2.7 4.1 1.5 1.7 -2.7 2.4 -0.4 3.4 10.8 0.3 3.7 -0.4 10.1 -1.9 17 -0.3 1.2 -1.2 2.2 -2 2.2 -0.8 0 -1.5 0.4 -1.5 1 0 2 -5.6 6 -8.4 6 l-2.8 0 4.3 -4.3z"/>
  <path d="M88 84.2 c0 -1.8 -0.6 -2.2 -3 -2.2 -1.6 0 -3 -0.3 -3 -0.6 0 -0.3 1.4 -1.7 3 -3.1 4.6 -3.8 3.9 -10.5 -1.7 -15.7 -2 -1.9 -2.3 -2.6 -1.2 -2.6 2.4 0 6.2 3.4 8.4 7.4 2.1 3.8 3.5 4.6 3.5 2 0 -2 -1.7 -5.4 -4.3 -8.1 -1.1 -1.3 -1.8 -2.5 -1.5 -2.8 0.3 -0.3 1.9 1 3.6 2.9 5.6 6.4 5.3 16.3 -0.8 22.1 -2.9 2.8 -3 2.8 -3 0.7z"/>
  <path d="M39.8 77.3 c-1.1 -5.3 10.9 -21.3 15.9 -21.3 2.9 0 2.9 0.7 -0.2 3.2 -2.9 2.3 -3.2 3.5 -0.7 4 1.4 0.3 3.4 -0.7 9.2 -5 0.2 -0.2 -0.2 -0.7 -1 -1.2 -1.3 -0.8 -1.2 -1 0.3 -1 0.9 0 1.7 -0.4 1.7 -1 0 -0.5 0.4 -1 1 -1 0.5 0 0.7 0.7 0.4 1.5 -0.5 1.2 0.5 1.5 5.2 1.6 l5.9 0.2 -4.5 0.8 c-11.6 2 -13.7 3.1 -17.7 9.5 -2.7 4.2 -4.8 6 -3.7 3 0.3 -0.8 0.1 -2.3 -0.4 -3.3 -1 -1.7 -1.1 -1.7 -1.7 0 -0.4 0.9 -1.3 1.7 -1.9 1.7 -0.7 0 -1.8 1.1 -2.4 2.5 -0.7 1.5 -0.8 2.5 -0.2 2.5 0.6 0 1 0.5 1 1 0 0.6 -0.7 1 -1.5 1 -0.8 0 -1.5 0.7 -1.5 1.5 0 2.1 -2.8 1.9 -3.2 -0.2z"/>
  <path d="M135 70.4 c0 -0.8 -0.8 -1.4 -1.7 -1.5 -1 0 -1.3 -0.3 -0.7 -0.5 1.5 -0.6 0.6 -11.6 -1.1 -12.9 -1.3 -1.1 -5.5 -13.9 -5.5 -16.9 0 -0.9 0.8 -1.6 2 -1.6 1.4 0 2.2 1.1 3.1 4.3 0.7 2.3 2.3 5.5 3.5 7 2.8 3.4 3.8 8.3 3.1 14.5 l-0.6 4.7 2.1 -6 c1.2 -3.3 2.4 -6.1 2.8 -6.3 0.5 -0.2 0.6 -1.3 0.4 -2.5 -0.2 -1.2 -0.2 -1.7 0.1 -1.1 0.3 0.7 1.4 1 2.4 0.7 1.3 -0.3 2 0.2 2.4 1.8 0.4 1.3 0.3 2.6 -0.1 2.9 -0.9 0.7 -2.9 4.8 -3.8 8 -1.2 4.3 -3.3 6.8 -5.9 6.8 -1.5 0 -2.5 -0.6 -2.5 -1.4z"/>
  <path d="M28.7 29.2 c-2.9 -4.4 -2.3 -7.1 1.1 -5.3 1.1 0.6 2.7 0.8 3.6 0.5 0.9 -0.3 2 0.2 2.7 1.4 1 1.7 1.7 1.8 5.1 0.9 2.7 -0.7 5.1 -0.6 8.3 0.3 5 1.4 5.1 3 0.2 3 -1.8 0.1 -5.9 0.7 -9.2 1.5 -8.4 2.1 -8.9 2 -11.8 -2.3z"/>
  <path d="M118.7 20.3 c-1 -0.9 -0.9 -5.3 0.1 -5.3 0.5 0 1.7 0.6 2.7 1.4 1.6 1.2 1.7 1.6 0.6 3 -1.5 1.7 -2.4 2 -3.4 0.9z"/>
  <path d="M88.6 9.8 c-0.3 -1.3 -0.6 -3.5 -0.6 -5 0 -3 0.7 -3.2 5.8 -2.2 3.4 0.7 3.4 2.8 -0.1 5.3 -1 0.7 -1.6 1.9 -1.3 2.7 0.3 0.9 -0.1 1.4 -1.3 1.4 -1.1 0 -2.1 -0.9 -2.5 -2.2z"/>
 </g>
 <g fill="#244778">
  <path d="M69.3 152.3 c-2.5 -0.5 -2.7 -1.5 -1.6 -10.1 l0.6 -5.4 4.3 0.4 c3.7 0.3 4.4 0 4.4 -1.4 0 -1 0.3 -1.8 0.7 -1.8 1.4 0 13.8 4.4 14.8 5.2 0.5 0.4 1.7 0.8 2.7 0.8 1.3 0 1.8 0.8 1.8 2.6 l0 2.6 -6.7 -0.7 c-3.7 -0.4 -7.8 -1.1 -9.1 -1.6 -1.4 -0.5 -2.7 -0.8 -2.9 -0.6 -0.2 0.3 -0.6 2.7 -1 5.6 -0.6 5.5 -1.1 5.7 -8 4.4z m7 -6.3 c0.3 -1.1 0.1 -2.3 -0.5 -2.6 -1.1 -0.7 -3.9 2.7 -3.2 3.8 1 1.5 3.2 0.8 3.7 -1.2z"/>
  <path d="M100.8 145.7 c-4 -1.6 -3.6 -3.7 0.7 -3.7 3.1 0 3.5 0.3 3.5 2.5 0 2.7 -0.2 2.8 -4.2 1.2z"/>
  <path d="M50.4 139.8 c-0.4 -0.6 0.1 -1.7 1.1 -2.4 2.1 -1.6 2.4 -1.4 3 1.5 0.3 1.5 -0.1 2.1 -1.5 2.1 -1 0 -2.2 -0.5 -2.6 -1.2z"/>
  <path d="M24.6 132.1 c-1.5 -1.7 -1.6 -2.5 -0.6 -5.5 1.6 -4.9 5 -5.1 5 -0.3 -0.1 1.7 -0.6 4.2 -1.3 5.5 -1.3 2.3 -1.3 2.3 -3.1 0.3z"/>
  <path d="M119.5 133 c-0.3 -0.5 -3.1 -1 -6.1 -1 -5.3 0 -5.4 0 -5.4 -3 0 -2.7 0.3 -3 3 -3 1.8 0 3 -0.5 3 -1.3 0 -0.7 2.6 -2 5.9 -2.8 5 -1.4 6.2 -1.4 8.5 -0.2 1.5 0.8 3.6 1.1 4.6 0.8 3.3 -1 2.3 0.8 -3.3 6.3 -5 5 -8.8 6.5 -10.2 4.2z m-4.5 -4 c-2 -1.3 -4.3 -1.3 -3.5 0 0.3 0.6 1.6 1 2.8 1 1.8 0 1.9 -0.2 0.7 -1z"/>
  <path d="M45.1 132.1 c-0.5 -0.4 -1.7 -2.3 -2.6 -4.4 -2.5 -6.1 0.9 -4.8 6.3 2.4 1 1.4 0.9 1.7 -0.7 2.2 -1 0.2 -2.4 0.2 -3 -0.2z"/>
  <path d="M17.7 124.9 c-1.2 -1.8 -1.5 -3.6 -1.1 -5.8 0.6 -3 0.9 -3.2 4.8 -2.9 3.3 0.2 4.1 0.7 4.1 2.3 0 1.3 -0.8 2.1 -2.1 2.3 -1.4 0.2 -2.5 1.4 -3.1 3.5 l-0.9 3.2 -1.7 -2.6z"/>
  <path d="M100 126 c0 -0.5 1.6 -1 3.5 -1 1.9 0 3.5 0.5 3.5 1 0 0.6 -1.6 1 -3.5 1 -1.9 0 -3.5 -0.4 -3.5 -1z"/>
  <path d="M52.5 125 c-0.3 -0.5 0.1 -1 0.9 -1 0.8 0 1.8 0.5 2.1 1 0.3 0.6 -0.1 1 -0.9 1 -0.8 0 -1.8 -0.4 -2.1 -1z"/>
  <path d="M57 124.6 c0 -0.8 -1.4 -2.5 -3.1 -3.7 l-3.1 -2.2 1.1 2.1 c1.8 3.4 -1.3 2.8 -3.8 -0.7 -2.5 -3.4 -2.6 -4.5 -0.7 -3.8 1.1 0.5 1.3 0 0.6 -2.4 -0.7 -2.5 -0.6 -2.9 1.1 -2.9 1.2 0 1.9 0.7 1.9 1.8 0 1 2 3.8 4.5 6.2 4.6 4.5 5.7 7 3 7 -0.8 0 -1.5 -0.6 -1.5 -1.4z"/>
  <path d="M65.2 117.3 c-4 -3.1 -7.2 -6.3 -7.2 -7.1 0 -1 0.8 -0.8 2.9 0.7 1.6 1.2 3.6 2.1 4.6 2.1 0.9 0 2.9 0.7 4.5 1.5 1.7 0.9 3 1.1 3 0.5 0 -2.4 3.9 -0.8 5.4 2.2 2.5 4.8 2.1 5.8 -2.2 5.8 -3.1 0 -5.1 -1 -11 -5.7z m11.2 2.6 c-3.3 -1.3 -4.8 -1.1 -3.5 0.5 0.7 0.8 2.1 1.2 3.3 0.8 2.1 -0.5 2.1 -0.6 0.2 -1.3z"/>
  <path d="M88.7 113.3 c-1.3 -1.3 -0.7 -2.3 1.5 -2.3 1.2 0 1.8 -0.3 1.5 -0.7 -0.9 -0.8 6.3 -3.4 7.5 -2.7 0.4 0.3 0.8 -0.2 0.8 -1 0 -0.8 0.9 -2 2 -2.6 1.1 -0.6 2 -1.7 2 -2.5 0 -0.8 0.4 -1.5 0.9 -1.5 0.5 0 1.6 -0.3 2.5 -0.6 1.3 -0.5 1.6 0.2 1.6 3.5 0 3.8 -0.2 4.1 -2.6 4.1 -1.8 0 -2.5 0.4 -2.1 1.4 0.8 2.1 -1.3 3.6 -5 3.6 -1.8 0 -3.3 0.5 -3.3 1 0 1.1 -6.3 1.4 -7.3 0.3z"/>
  <path d="M70.2 111.2 c-9.3 -5.2 -14.7 -14.2 -8.6 -14.2 1.4 0 4.8 1.2 7.5 2.8 4.8 2.7 6.1 4 3.7 3.9 -0.7 0 -2.6 0.1 -4.2 0.1 l-2.9 0.2 2.3 2.5 c1.3 1.4 2.8 2.5 3.4 2.5 0.6 0 1.9 0.7 2.9 1.4 2.8 2.2 -0.5 2.8 -4.1 0.8z"/>
  <path d="M82 105.5 c0 -0.8 2.1 -1.4 5.8 -1.8 3.1 -0.3 6.6 -0.8 7.7 -1.2 1.8 -0.6 1.8 -0.5 0.3 0.5 -1 0.6 -1.8 1.6 -1.8 2.3 0 0.8 -2.1 1.2 -6 1.3 -4.2 0.1 -6 -0.2 -6 -1.1z"/>
  <path d="M40.6 103.8 c-0.3 -1.3 -0.6 -3.4 -0.5 -4.8 l0 -2.5 1 2.3 c1.3 3.3 2.9 1.8 2.9 -2.9 0 -4.6 1.3 -5.1 3.2 -1.2 1.6 3.4 4.9 4.5 4.1 1.4 -0.4 -1.6 -0.1 -1.9 1.6 -1.4 1.1 0.3 1.8 0.9 1.5 1.4 -0.3 0.5 0 0.9 0.5 0.9 0.6 0 1.1 1.6 1.1 3.5 0 3.3 -0.2 3.5 -3.4 3.5 -1.9 0 -3.8 0.5 -4.1 1 -0.3 0.6 -2.1 1 -3.9 1 -2.6 0 -3.5 -0.5 -4 -2.2z"/>
  <path d="M115 100.7 c0 -1.5 1.9 -4.4 5.4 -8 3 -3 5.7 -6.5 6.1 -7.6 0.3 -1.1 2 -2.7 3.7 -3.6 3.5 -1.7 6.2 -2 5.3 -0.5 -0.3 0.6 -1.4 1 -2.5 1 -1 0 -2.1 0.7 -2.4 1.6 -0.5 1.4 -0.4 1.5 0.9 0.4 2.3 -1.9 2.9 -0.6 1.1 2.7 -2.4 4.5 -11.2 14.8 -12.5 14.5 -0.6 -0.1 -2.1 0.2 -3.1 0.8 -1.7 0.9 -2 0.7 -2 -1.3z"/>
  <path d="M5 100.2 c0 -1.1 0.6 -2.3 1.3 -2.6 0.6 -0.3 0.2 -0.3 -1 0 -1.7 0.4 -2.3 0.1 -2.3 -1 0 -0.9 0.7 -1.6 1.5 -1.6 0.8 0 1.5 -0.8 1.5 -1.8 0 -2.8 2.1 -4.2 6.2 -4.2 4.6 0 4.7 0.9 0.9 5.2 -1.6 1.8 -3 4.2 -3.2 5.3 -0.6 2.8 -4.9 3.4 -4.9 0.7z"/>
  <path d="M85.3 94.3 c0.1 -1 0.6 -2.4 1.1 -3.1 0.5 -0.9 0.2 -1.5 -1.2 -1.9 -1.6 -0.4 -1.8 -1 -1.3 -3.1 0.6 -1.9 0.3 -3 -0.8 -3.9 -2 -1.4 -1.3 -2.1 3.6 -3.8 2.1 -0.8 3.4 -1.4 2.8 -1.5 -1.2 0 -1.5 -11 -0.3 -11 0.5 0 1.4 1.1 2 2.5 0.7 1.5 1.7 2.4 2.5 2.1 3.9 -1.5 -0.7 11.7 -5.4 15.4 l-2.5 1.9 3.4 -0.2 c1.8 -0.1 3.9 -1 4.6 -1.9 0.7 -1 2.6 -1.8 4.2 -1.8 l2.9 0 -3.9 4 c-3.9 3.9 -4.8 4.4 -8.2 4.1 -1 -0.1 -1.8 0.3 -1.8 0.8 0 0.6 0.5 1.1 1 1.1 0.6 0 1 0.5 1 1 0 0.6 -0.9 1 -2 1 -1.3 0 -1.9 -0.6 -1.7 -1.7z"/>
  <path d="M25 90.6 c0 -0.8 -0.4 -1.6 -1 -1.8 -1.4 -0.5 0 -4.8 1.6 -4.8 1 0 1.4 1.3 1.4 4 0 2.2 -0.4 4 -1 4 -0.5 0 -1 -0.6 -1 -1.4z"/>
  <path d="M70.8 90.4 c-1.8 -2.1 -3.8 -6.7 -3.8 -9 0 -2.1 4.7 -1.7 7 0.6 2.3 2.3 2.8 7.2 0.6 6.4 -0.9 -0.4 -1.6 0.2 -1.8 1.6 -0.3 2.2 -0.3 2.2 -2 0.4z m1.2 -6.5 c-0.7 -1.1 -1.4 -1.8 -1.7 -1.5 -0.8 0.8 0.5 3.6 1.7 3.6 0.7 0 0.7 -0.6 0 -2.1z"/>
  <path d="M38.2 86.3 c-0.1 -2.8 0.3 -5.5 0.8 -5.8 0.6 -0.3 1 -1.7 1 -2.9 0 -1.9 0.7 -2.5 3 -2.8 1.7 -0.3 3 -0.1 3 0.4 0 0.4 -0.7 0.8 -1.5 0.8 -0.8 0 -1.5 0.9 -1.5 2 0 1.1 -0.4 2 -0.9 2 -0.4 0 -0.6 1.1 -0.3 2.5 0.3 1.8 0 2.5 -1.1 2.5 -1 0 -1.7 1.2 -2 3.3 -0.3 2.2 -0.4 1.6 -0.5 -2z"/>
  <path d="M1 86.3 c0 -1 -0.3 -4.2 -0.6 -7 -0.5 -3.9 -0.3 -5.3 0.6 -5.3 0.7 0 1 0.6 0.7 1.4 -0.3 0.8 0.2 1.7 1.1 2.1 0.9 0.3 1.8 0.1 2 -0.4 0.2 -0.6 1 -1.1 1.8 -1.1 1 0 1.4 1.5 1.4 6 l0 6 -3.5 0 c-2.7 0 -3.5 -0.4 -3.5 -1.7z"/>
  <path d="M52.3 86.4 c-0.3 -0.8 -0.1 -2 0.6 -2.7 0.8 -0.8 1.1 -0.4 1.1 1.6 0 3 -0.7 3.5 -1.7 1.1z"/>
  <path d="M115.4 77.9 c0.4 -2.3 1.3 -4.8 2.1 -5.6 1.6 -1.6 1.8 -2.4 1.5 -6.5 -0.1 -1.6 0.3 -2.8 0.9 -2.8 0.5 0 1.2 -0.8 1.4 -1.7 0.3 -1 0.5 2.3 0.5 7.2 0 5 -0.3 9.6 -0.5 10.3 -0.7 1.8 -2.3 1.5 -2.4 -0.5 0 -1.2 -0.4 -0.8 -1.1 1 -1.5 4.2 -3.2 3.3 -2.4 -1.4z"/>
  <path d="M101 80.1 c0 -0.5 0.9 -3 2 -5.6 1.1 -2.6 2 -6 2 -7.6 0 -2.7 1.3 -3.9 2.3 -2.1 0.3 0.4 0.1 3.1 -0.5 6.1 -0.7 3.8 -0.6 5.6 0.2 6.1 2 1.2 -0.1 4 -3.1 4 -1.6 0 -2.9 -0.4 -2.9 -0.9z"/>
  <path d="M49.7 74.9 l1.5 -3.1 1.2 2.4 c1.3 2.5 0.5 3.8 -2.6 3.8 -1.5 0 -1.5 -0.3 -0.1 -3.1z"/>
  <path d="M74 73.6 c0 -1.9 2.6 -2.2 3.6 -0.3 0.4 0.6 0.4 0.9 -0.1 0.5 -0.4 -0.4 -1.4 -0.3 -2.2 0.3 -1 0.9 -1.3 0.8 -1.3 -0.5z"/>
  <path d="M134.7 70.1 c-0.3 -2.7 -0.3 -7.4 0 -10.4 0.5 -5.4 0.4 -5.7 -2.6 -8.2 -2.4 -2 -3.1 -3.5 -3.1 -6.1 0 -3.2 0.2 -3.4 3.5 -3.4 1.9 0 3.5 0.4 3.5 0.9 0 0.5 1.2 1.1 2.8 1.3 2.3 0.3 2.8 0.8 3.2 4.3 0.4 3.2 0.9 3.9 2.3 3.7 2.1 -0.4 2.2 -1 -2.1 12.1 -1.7 5.5 -2.9 7.6 -3.8 7.3 -1.3 -0.5 -1.8 0.6 -1.5 2.7 0 0.4 -0.3 0.7 -0.8 0.7 -0.4 0 -1.1 -2.2 -1.4 -4.9z m7.3 -15.1 c1.4 -0.9 0.2 -1.4 -1.7 -0.7 -0.8 0.2 -0.9 0.4 -1.7 5.7 l-0.6 3.5 1.3 -3.8 c0.7 -2.1 1.9 -4.2 2.7 -4.7z m-5.4 -9.5 c-2.6 -1.9 -4.7 -1.9 -4 0 0.4 0.8 1.8 1.5 3.3 1.5 2.5 -0.1 2.5 -0.1 0.7 -1.5z"/>
  <path d="M22.3 67.5 c1.9 -2.9 4.7 -4.7 4.7 -2.9 0 1.8 -3.7 6.4 -5.2 6.4 -1.5 0 -1.5 -0.4 0.5 -3.5z"/>
  <path d="M115.4 59.6 c-0.8 -2.2 0.3 -3.3 1.8 -1.8 0.9 0.9 0.9 1.5 0 2.4 -0.9 0.9 -1.3 0.7 -1.8 -0.6z"/>
  <path d="M101.4 53 c-2 -0.8 -4.2 -4 -2.6 -4 1 0.1 5.6 4 5.1 4.4 -0.2 0.2 -1.3 0 -2.5 -0.4z"/>
  <path d="M33.3 51.6 c1.2 -1 1.4 -1.5 0.6 -1.8 -2 -0.7 -0.2 -3.8 2.1 -3.8 1.8 0 2.1 0.5 1.8 3.3 -0.3 2.8 -0.7 3.2 -3.3 3.5 -2.8 0.2 -2.9 0.1 -1.2 -1.2z"/>
  <path d="M91.5 41.8 c-4.6 -3.7 -9.5 -6.4 -15.5 -8.3 -8.3 -2.7 -10.3 -3.7 -8.8 -4.7 0.7 -0.4 3.1 -0.8 5.3 -0.8 3.9 -0.1 3.9 -0.1 1.6 -1.4 l-2.4 -1.4 2.2 -0.7 c3.9 -1.2 8.7 0.4 14.3 4.8 5.7 4.5 7.7 6.6 7.8 8.2 0 0.6 -0.3 0.5 -0.8 -0.1 -0.4 -0.6 -1.7 -1.3 -3 -1.6 -2.4 -0.7 -2.2 0.3 1.1 3.9 3 3.4 1.6 5 -1.8 2.1z"/>
  <path d="M126.7 40.3 c-1.3 -1.2 -0.7 -4.1 0.9 -4.7 2.2 -0.8 2.4 -0.8 2.4 0.9 0 0.9 0.6 1.2 1.5 0.9 1 -0.4 1.5 0 1.5 1.5 0 1.6 -0.6 2.1 -2.8 2.1 -1.6 0 -3.2 -0.3 -3.5 -0.7z"/>
  <path d="M133 33.5 c0 -0.8 -0.6 -1.5 -1.3 -1.5 -1.4 0 -3.7 -4 -3.7 -6.5 0 -2.5 1.7 -1.7 5.4 2.7 4.1 4.7 4.5 6.8 1.6 6.8 -1.1 0 -2 -0.7 -2 -1.5z"/>
  <path d="M40 27.4 c-0.8 -0.1 -4.1 -0.6 -7.2 -0.9 -4.3 -0.5 -5.8 -1.1 -5.8 -2.2 0 -0.8 0.6 -1.3 1.3 -1 0.6 0.3 1.9 0.8 2.8 1.2 0.9 0.3 2.3 0 3 -0.8 0.8 -0.7 3.1 -1.4 5.2 -1.5 3 -0.1 4.6 0.5 7 2.8 l3.2 3 -4 -0.1 c-2.2 -0.1 -4.7 -0.3 -5.5 -0.5z"/>
  <path d="M54 23.6 c-3.2 -1.2 -3.3 -1.3 -1.5 -2.4 1.6 -1 0.6 -1.1 -5.7 -0.9 -4.3 0.1 -7.7 -0.2 -7.7 -0.7 0.1 -1.4 -2.3 -2.6 -5.3 -2.6 -3.4 0 -3.6 -1.3 -0.6 -3.4 3 -2.2 5.4 -2 7.1 0.4 0.9 1.4 2.7 2.2 5 2.3 2 0.2 3.9 0.6 4.3 1 0.4 0.4 1.8 0.7 3 0.7 3.8 0 12.4 2.1 12.4 3 0 0.5 -1.7 0.6 -3.7 0.4 -3.4 -0.5 -3.6 -0.4 -2 0.9 3.5 2.9 0.9 3.5 -5.3 1.3z"/>
  <path d="M92 23 c-1.2 -0.8 -1 -1 0.8 -1 1.4 0 2.1 -0.4 1.7 -1.1 -0.4 -0.6 -1.4 -0.8 -2.2 -0.4 -2.8 1 -5.3 -0.5 -5.3 -3.1 0 -2.3 0.3 -2.5 4.3 -2.2 4.2 0.3 4.2 0.3 4.2 4.2 0 4.1 -1 5.2 -3.5 3.6z"/>
  <path d="M118.8 18.5 c-0.4 -1.9 -0.1 -2.5 1.1 -2.5 2.9 0 4.3 2.1 2.3 3.6 -2.4 1.9 -2.9 1.7 -3.4 -1.1z"/>
  <path d="M75 13.5 c0 -1 -1 -1.5 -2.7 -1.5 -3.6 0 -10.3 -2.1 -13.3 -4 -1.7 -1.2 -2.1 -2.1 -1.6 -3.8 0.4 -1.2 1.5 -2.2 2.4 -2.2 1.5 0.1 1.5 0.2 -0.2 1.5 -2.3 1.8 -2.1 2.1 2.2 3 3 0.6 3.3 0.5 3.8 -2.4 0.6 -2.8 1 -3 5.9 -3.6 7.6 -1 8.9 -0.5 9.3 3.1 0.3 2.7 -0.1 3.4 -2.7 4.5 -4.1 1.8 -3.9 2.9 0.4 2.9 2.9 0 3.5 0.4 3.5 2.2 0 1.7 -0.3 1.9 -1.2 1 -0.7 -0.7 -1.9 -1.2 -2.7 -1.2 -1.4 0 -1.4 0.1 -0.1 1 1.2 0.8 1.1 1 -0.7 1 -1.4 0 -2.3 -0.6 -2.3 -1.5z m-1 -5.5 c0 -0.5 0.9 -1 1.9 -1 1.1 0 2.3 -0.5 2.6 -1.1 1.2 -1.9 -0.4 -2.2 -3.7 -0.6 -2.3 1.1 -3.6 1.3 -4.5 0.5 -1 -0.8 -1.3 -0.6 -1.3 0.5 0 1.3 1.3 2.1 4.3 2.6 0.4 0 0.7 -0.3 0.7 -0.9z"/>
 </g>
 <g fill="#01786b">
  <path d="M86 147.6 c0 -4.6 0 -4.6 3.4 -4.6 1.9 0 3.8 -0.4 4.1 -1 0.3 -0.5 2.6 -1 5.1 -1 4 0 4.4 0.2 4.4 2.4 0 1.9 -0.4 2.2 -2.5 1.8 -1.5 -0.2 -2.5 0 -2.5 0.7 0 0.6 0.5 1.1 1 1.1 0.6 0 1 0.4 1 0.9 0 0.5 -2.4 1.4 -5.2 2.1 -2.9 0.6 -6.1 1.4 -7 1.7 -1.5 0.4 -1.8 -0.3 -1.8 -4.1z"/>
  <path d="M58.9 149.3 c0 -1.1 -0.3 -1.3 -0.6 -0.5 -1 2.5 -4.1 1.3 -4.9 -2 -0.3 -1.8 -1.3 -4.3 -2.2 -5.6 -1 -1.5 -1.2 -2.6 -0.5 -3.3 1.2 -1.2 4.5 -0.1 3.7 1.2 -0.3 0.5 0.5 1.3 1.8 1.8 1.3 0.6 1.7 1 1.1 1 -1.8 0.1 0.6 5.1 2.4 5.1 0.7 0 1.3 0.9 1.3 2 0 2.5 -2 2.7 -2.1 0.3z"/>
  <path d="M83.8 127.3 c-2.8 -1.5 -4.8 -3.3 -4.8 -4.4 0 -0.9 -1.3 -2.7 -3 -4 -3.3 -2.7 -3.9 -4.9 -1.2 -4.9 2.3 0 3.7 1.2 3.7 3 0 0.8 0.8 1.6 1.8 1.8 1 0.2 1.7 -0.3 1.7 -1.1 0 -0.8 1.4 -2 3.1 -2.7 1.9 -0.8 2.6 -1.6 1.9 -2 -1.4 -0.8 1 -2 4.1 -2 1 0 1.9 -0.4 1.9 -0.9 0 -0.5 1.6 -1.2 3.5 -1.5 1.9 -0.4 3.5 -1.1 3.5 -1.6 0 -0.6 0.9 -1 2 -1 1.1 0 2 -0.4 2 -1 0 -0.5 1.6 -1 3.5 -1 1.9 0 3.5 0.4 3.5 0.9 0 1.3 -3.1 2.4 -5.7 2.2 -1.3 -0.1 -2.3 0.2 -2.3 0.8 0 0.6 0.5 1.1 1.2 1.1 2.3 0 -2.1 3.3 -7.4 5.6 -5.2 2.2 -7.4 4.4 -4.4 4.4 2 0 6.6 2.1 6.6 3.1 0 0.4 -1.2 0.9 -2.7 1.1 -1.8 0.2 -0.4 0.7 3.5 1.2 4.4 0.6 6.7 0.5 7.5 -0.3 1.9 -1.9 2.7 -1.2 2.7 2 l0 3.1 -8.7 -0.2 c-4.9 -0.1 -9.7 0.1 -10.8 0.4 -1.2 0.4 -3.8 -0.4 -6.7 -2.1z"/>
  <path d="M30.6 117.2 c-0.7 -1.2 -1.9 -13.2 -1.3 -13.2 0.3 0 1.1 2.5 1.7 5.6 1 4.5 1.4 5.3 2.5 4.4 1.5 -1.2 3.5 -0.6 3.5 1.1 0 0.5 -0.7 0.9 -1.5 0.9 -0.8 0 -1.5 0.5 -1.5 1 0 1.2 -2.7 1.4 -3.4 0.2z"/>
  <path d="M20.6 108.3 c-0.6 -3.7 0 -11.2 0.9 -12.2 0.3 -0.2 0.5 0.5 0.5 1.7 0 1.3 0.6 2.2 1.5 2.2 0.8 0 1.5 -0.7 1.5 -1.5 0 -0.8 0.7 -1.5 1.5 -1.5 1.1 0 1.5 1.2 1.5 4.5 0 2.5 -0.4 4.5 -0.9 4.5 -0.5 0 -1.2 1.4 -1.6 3 -1 4.5 -4.2 4.1 -4.9 -0.7z"/>
  <path d="M50.5 105 c-1.9 -3.7 -1.9 -4 0.4 -4 1.8 0 1.8 -0.2 0.5 -4.7 -0.8 -2.6 -1.2 -5.3 -1 -6 0.9 -2.3 3.5 -1.4 4.2 1.4 0.7 2.7 0.7 2.7 1.5 0.4 1.2 -3.1 2.8 -1.8 3.5 3 0.4 2.1 1.2 3.9 1.8 3.9 0.6 0 1.2 1.4 1.3 3.2 0.2 2.4 0 2.9 -0.9 2 -0.7 -0.7 -2.3 -1.2 -3.6 -1.2 -2.1 0 -2.4 0.4 -2 2.5 0.8 3.8 -3.6 3.5 -5.7 -0.5z m8.3 -4.2 c-0.6 -1.8 -2.8 -2.1 -2.8 -0.4 0 0.9 0.7 1.6 1.6 1.6 0.9 0 1.4 -0.5 1.2 -1.2z"/>
  <path d="M85 95 c0 -0.5 0.9 -1 2 -1 1.1 0 2 0.5 2 1 0 0.6 -0.9 1 -2 1 -1.1 0 -2 -0.4 -2 -1z"/>
  <path d="M11.3 90.3 c-1.5 -0.6 -1.7 -5.7 -0.3 -8.3 0.7 -1.3 0.6 -1.9 -0.5 -2.3 -0.7 -0.3 -1.5 -0.1 -1.8 0.6 -0.2 0.8 -1.2 0.8 -3.8 0 -1.9 -0.6 -2.6 -1.1 -1.6 -1.2 0.9 -0.1 1.7 -0.8 1.7 -1.6 0 -0.8 0.7 -1.5 1.6 -1.5 1.4 0 1.4 -0.3 0.4 -1.5 -1 -1.2 -0.9 -1.5 0.7 -1.5 1.1 0 3 -1.1 4.3 -2.5 3 -3.2 3.8 -3.2 3.2 0 -0.4 2.4 -0.4 2.4 2.6 0.9 1.7 -0.8 4.1 -2.6 5.4 -3.9 3.6 -3.8 4.2 -3 1.3 1.8 -1.4 2.4 -2.5 5.2 -2.5 6.3 0 1 -1.6 4.3 -3.4 7.3 -1.9 3 -3.2 6 -2.9 6.8 0.5 1.3 -1.9 1.7 -4.4 0.6z"/>
  <path d="M69.2 87.5 c-1.6 -3.4 -1.5 -10.8 0 -12.3 0.7 -0.7 2.3 -1.2 3.8 -1.1 1.4 0 1.9 0.3 1.2 0.6 -0.7 0.2 -1.7 1.4 -2.4 2.6 -1 2 -1 2.1 0.6 0.8 1.5 -1.2 1.9 -1.1 3.6 0.7 2.2 2.3 2.6 4.7 1 5.7 -0.6 0.3 -0.7 1.8 -0.4 3.2 0.6 2.3 0.5 2.4 -1.3 1.3 -1.1 -0.7 -2.5 -2.7 -3.1 -4.3 -0.9 -2.4 -1.5 -2.8 -2.4 -1.9 -0.9 0.9 -0.9 1.7 0.2 3.7 0.7 1.4 1.1 2.7 0.8 3 -0.2 0.3 -1 -0.6 -1.6 -2z"/>
  <path d="M41 75.5 c0 -2.6 0.7 -2.9 3.4 -1.9 2 0.8 2.1 2.4 0.1 2.4 -0.8 0 -1.5 0.5 -1.5 1 0 0.6 -0.4 1 -1 1 -0.5 0 -1 -1.1 -1 -2.5z"/>
  <path d="M43 72 c-1.3 -0.8 -1.2 -1 0.3 -1 1 0 1.5 -0.4 1.2 -1 -0.3 -0.5 -0.1 -1 0.4 -1 1.3 0 1.4 1 0.3 2.7 -0.5 0.8 -1.3 0.9 -2.2 0.3z"/>
  <path d="M51.7 69.9 c0.5 -1.9 0.3 -2.1 -2.3 -1.5 -5.1 1.1 -6 -0.7 -2.4 -4.8 3.3 -3.7 6 -4.7 6 -2.1 0 0.8 0.7 1.5 1.6 1.5 1.1 0 1.4 0.5 0.9 1.8 -0.4 0.9 -1.2 2.9 -1.7 4.5 -1.2 3.2 -2.9 3.7 -2.1 0.6z"/>
  <path d="M106 61.5 c0 -0.8 -0.7 -1.5 -1.5 -1.5 -1.8 0 -2 -1.6 -0.2 -2.3 0.6 -0.3 0.3 -0.6 -0.8 -0.6 -1.7 -0.1 -1.7 -0.3 -0.5 -1.1 1.2 -0.8 1.2 -1 -0.5 -1 -1.7 0 -1.7 -0.2 -0.5 -1 1.3 -0.8 1.2 -1 -0.2 -1 -1 0 -1.8 -0.5 -1.8 -1.1 0 -0.6 0.9 -0.8 2 -0.4 1.1 0.4 2 0.2 2 -0.4 0 -1.4 2.7 -1.4 3.6 0 0.3 0.6 0.1 1.5 -0.6 1.9 -1 0.6 -1 1.5 -0.1 4 1.4 4.1 1.4 6 0.1 6 -0.5 0 -1 -0.7 -1 -1.5z"/>
  <path d="M64 58 c-2.6 -2.2 -2.5 -2.4 0.9 -3.5 1.7 -0.5 2.1 -0.4 1.6 0.5 -0.4 0.7 -0.2 1.6 0.6 2.1 1 0.6 1.1 1.1 0.3 1.9 -0.7 0.7 -1.7 0.4 -3.4 -1z"/>
  <path d="M59.7 27.1 c-0.3 -1.2 -2 -2.4 -4.7 -3.2 -3.6 -1.1 -4 -1.4 -2.6 -2.5 1.5 -1 1.5 -1.2 0.1 -1.8 -0.8 -0.3 -2.2 -0.2 -3.2 0.1 -1.1 0.4 -1.4 0.3 -0.9 -0.5 0.4 -0.7 2.4 -1.2 4.6 -1.2 3.2 0 3.7 0.3 3.3 1.8 -0.4 1.5 0.7 2.3 5.9 4 5.3 1.8 5.8 2.1 3.1 2.2 -2.3 0 -3.3 0.5 -3.3 1.5 0 2.2 -1.7 1.8 -2.3 -0.4z"/>
  <path d="M65.4 22.5 c-2.7 -1.4 -5.5 -2.5 -6.3 -2.5 -0.8 0 -1.2 -0.3 -0.8 -0.6 1 -1 12.7 3 12.7 4.4 0 1.6 0.1 1.6 -5.6 -1.3z"/>
  <path d="M90.2 17.1 c-4.6 -4.4 -5.2 -5.5 -5.2 -9 l0 -4.1 4.3 0.1 c2.3 0 3.7 0.3 3.1 0.5 -2.2 0.9 -0.1 6.5 4.2 11.1 2.4 2.6 4.4 5 4.4 5.5 0 0.4 -1.3 0.8 -2.8 0.8 -2.1 0 -4.3 -1.4 -8 -4.9z"/>
  <path d="M29.5 20 c0.3 -0.5 1.5 -1 2.6 -1 1.1 0 1.7 0.5 1.4 1 -0.3 0.6 -1.5 1 -2.6 1 -1.1 0 -1.7 -0.4 -1.4 -1z"/>
  <path d="M58 3 c0 -0.5 1 -1 2.3 -1 1.8 0 1.9 0.2 0.7 1 -1.9 1.3 -3 1.3 -3 0z"/>
 </g>
 <g fill="#442a7a">
  <path d="M61.4 151.3 c-1.2 -0.2 -2.4 -1.2 -2.7 -2.3 -0.7 -2.5 3.3 -3.6 5.1 -1.3 1.3 1.9 1.6 4.4 0.5 4.2 -0.5 -0.1 -1.8 -0.4 -2.9 -0.6z"/>
  <path d="M67.2 147 l0.5 -5.1 -7.8 -8.7 c-4.4 -4.8 -7.4 -8.9 -6.9 -9 0.6 -0.2 1.7 0.2 2.5 0.8 1.2 1 1.5 0.9 1.5 -0.5 0 -2 -9.5 -12.6 -12.2 -13.7 -2.2 -0.9 -2.3 -4.1 -0.2 -7.3 0.9 -1.3 1.3 -2.9 0.9 -3.5 -0.3 -0.6 0.3 -1 1.4 -1 1.2 0 2.1 0.5 2.1 1 0 0.6 0.9 1 1.9 1 1.1 0 2.8 1.5 4.1 3.5 1.2 1.9 4.7 5.7 7.8 8.5 3 2.7 5.4 5.2 5.1 5.4 -0.2 0.3 -2.9 -1.4 -5.9 -3.7 -10.4 -8 -15.4 -4.1 -6 4.7 2.8 2.6 5 5.1 5 5.5 0 1.6 7.4 7.5 7.8 6.2 0.6 -1.8 2.7 -1.3 5.6 1.4 1.4 1.3 2.6 1.9 2.6 1.4 0 -0.6 0.5 -0.7 1.2 -0.3 0.6 0.4 4.1 1.7 7.7 3 6.2 2.1 6.4 2.3 2.9 2.3 -2 0.1 -3.8 0.5 -4 1 -0.4 1.1 -10.4 1.8 -11.4 0.8 -1.8 -1.7 -2.3 -0.5 -0.8 1.8 1.6 2.4 1.5 2.5 -0.5 2.5 -2.5 0 -3.9 2.6 -2.2 4.3 1.7 1.7 1.3 2.7 -1 2.7 -2 0 -2.1 -0.4 -1.7 -5z m16.8 -7.9 c0 -0.5 -0.9 -1.1 -2 -1.4 -2 -0.5 -2.6 0.3 -1.3 1.6 0.9 1 3.3 0.8 3.3 -0.2z"/>
  <path d="M101.6 145.5 c-1.3 -1 -3.2 -1.2 -6.2 -0.8 -4.1 0.5 -4.4 0.4 -4.4 -1.7 0 -1.6 0.4 -2 1.5 -1.6 0.8 0.3 1.5 0.1 1.5 -0.5 0 -1.1 6.7 -0.6 11.3 0.7 2.1 0.7 2.2 4 0.1 4.8 -1.9 0.7 -1.5 0.8 -3.8 -0.9z"/>
  <path d="M26.1 133.6 c-2.1 -2.2 -2.2 -2.7 -1 -6 2 -5.7 3.6 -5.2 4.2 1.2 0.6 6.9 -0.2 8 -3.2 4.8z"/>
  <path d="M44.6 128.8 c-3.3 -3.8 -6.9 -10.5 -6.4 -12 0.3 -0.7 1.8 1.1 3.6 3.8 1.7 2.7 4.3 6.4 5.8 8.2 3.6 4.3 0.9 4.3 -3 0z"/>
  <path d="M100.3 131.3 c-3.6 -0.2 -6.3 -0.9 -6.3 -1.5 0 -0.6 -0.9 -0.8 -2 -0.5 -1.5 0.4 -2 0 -2 -1.3 0 -2.2 -1.9 -3 -7.3 -3 -3.8 -0.1 -7.7 -1.7 -7.7 -3.4 0 -0.3 0.8 -0.6 1.8 -0.6 1.5 -0.1 1.5 -0.2 -0.2 -1.5 -2.6 -1.9 -1.4 -3 1.5 -1.4 1.3 0.6 5.9 1.2 10.4 1.3 4.4 0.1 8.6 0.5 9.3 0.9 2.1 1.4 1.3 2.6 -2 3 l-3.3 0.3 3.5 0.9 3.5 0.9 -3 0.7 c-2 0.4 -0.4 0.7 4.8 0.8 7.1 0.1 7.7 -0.1 7.7 -1.9 0 -1.7 0.7 -2 3.9 -2 2.2 0 4.6 -0.3 5.5 -0.6 1.1 -0.4 1.6 -0.1 1.6 1 0 0.9 -0.8 1.6 -1.7 1.6 -1.7 0.1 -1.7 0.1 0 1.1 3.3 1.9 1.9 3.2 -2.8 2.6 -5 -0.7 -6 0.6 -1.7 2.1 2.4 0.9 2.1 1 -2.3 0.9 -2.7 0 -7.8 -0.2 -11.2 -0.4z"/>
  <path d="M16.6 123.6 c-1.7 -2.7 -1.7 -3 0 -6.7 0.9 -2.2 2.3 -3.9 3.1 -3.9 0.7 0 1.3 -0.7 1.3 -1.5 0 -0.8 0.5 -1.5 1 -1.5 0.6 0 1 -1.6 1 -3.5 0 -2 0.5 -3.5 1.1 -3.5 0.9 0 1 -3.1 0.6 -11.2 -0.6 -10 -0.5 -11.6 1.1 -13.6 1.8 -2.4 1.8 -2.3 1.4 3.7 -0.4 5.4 -0.2 6.1 1.4 6.1 1.7 0 1.9 0.9 1.9 11.3 0.1 8.3 0.5 12.2 1.8 15.1 1.6 3.7 1.6 3.8 -0.2 3.3 -1.2 -0.3 -2.2 0.1 -2.5 1 -0.3 0.8 -1.1 1.1 -1.6 0.8 -0.6 -0.4 -1.7 -0.1 -2.5 0.5 -1.2 1 -1.8 1 -3 0 -1.8 -1.5 -1.9 -1.5 -3.1 2.9 l-0.9 3.5 -1.9 -2.8z"/>
  <path d="M48 119.9 c-3.1 -4.3 -2 -4.5 2 -0.4 2.4 2.5 2.9 3.5 1.8 3.5 -0.9 0 -2.6 -1.4 -3.8 -3.1z"/>
  <path d="M104 116 c4.3 -3.5 7.5 -4.9 9.1 -3.9 1.3 0.8 0.6 1.1 -1.7 0.8 -0.4 0 -1 0.4 -1.3 1 -0.4 0.6 -2.5 1.7 -4.6 2.6 l-4 1.6 2.5 -2.1z"/>
  <path d="M98 109.4 c0 -1.1 5.4 -5.4 6.8 -5.4 0.6 0 1.2 -0.8 1.2 -1.7 0.1 -1 2.1 -3.6 4.6 -5.7 l4.6 -3.9 -1.6 3.2 -1.7 3.2 2.9 -1.5 c1.6 -0.8 3.4 -2.2 4.1 -3 0.8 -0.9 1.9 -1.6 2.5 -1.6 0.6 -0.1 2.2 -2.4 3.6 -5.1 1.4 -3 3.4 -5.5 4.7 -6 1.5 -0.5 2.6 -2 2.9 -3.8 0.7 -3.3 4.1 -4.9 4.7 -2.2 0.4 2.1 -2.1 6.1 -3.9 6.1 -2 0 -5.2 3.5 -6 6.5 -0.3 1.4 -2.6 4.6 -5 7 -2.4 2.4 -4.4 4.7 -4.4 5.2 0 1.3 -9.6 6.3 -12.3 6.3 -1.4 0 -2.7 0.7 -3.1 1.5 -0.5 1.4 -4.6 2.2 -4.6 0.9z"/>
  <path d="M62.9 105.3 c-5.1 -5.4 -6.9 -8.4 -6.9 -11.4 0 -4.2 1.1 -4.1 5.9 0.4 6.1 5.7 14.6 9.7 20.6 9.7 4.1 0 4.5 0.2 3.1 1.5 -2.1 2.1 -5.1 1.9 -10.8 -1 -5.6 -2.8 -12.8 -4.8 -12.8 -3.5 0 0.5 1.2 1.8 2.6 2.9 1.4 1.1 2.4 2.7 2.2 3.6 -0.2 1.2 -1.2 0.7 -3.9 -2.2z"/>
  <path d="M5.7 104.6 c-1 -2.6 -0.8 -5.6 0.3 -5.6 0.6 0 1 -0.5 1 -1.1 0 -0.6 -0.9 -0.8 -2 -0.4 -2.3 0.7 -2.5 0.2 -1 -2.6 0.6 -1.1 2.1 -1.9 3.6 -1.9 1.4 0 2.2 0.4 1.9 1 -0.3 0.6 -0.1 1 0.5 1 1.3 0 0.3 4.9 -1.5 7 -0.7 0.8 -1.4 2.2 -1.7 2.9 -0.3 1.2 -0.6 1.1 -1.1 -0.3z"/>
  <path d="M89.5 104 c1.1 -0.5 2.7 -0.9 3.5 -0.9 1.3 -0.1 1.3 0 0 0.9 -0.8 0.5 -2.4 0.9 -3.5 0.9 l-2 0 2 -0.9z"/>
  <path d="M120 101.3 c0 -1.3 2.9 -3.8 3.5 -3.1 0.3 0.3 -0.4 1.3 -1.5 2.3 -1.1 1 -2 1.3 -2 0.8z"/>
  <path d="M125.6 93.5 c0.4 -0.8 1.3 -1.5 2.1 -1.5 1.3 0 1.3 0.3 0.3 1.5 -0.7 0.8 -1.6 1.5 -2.1 1.5 -0.5 0 -0.6 -0.7 -0.3 -1.5z"/>
  <path d="M89.8 91.3 c-1 -0.2 -1.8 -1 -1.8 -1.8 0 -1.7 7.8 -5.5 11.1 -5.4 l2.4 0 -2.3 0.9 c-1.2 0.5 -2.6 2 -3.1 3.3 -0.8 1.9 -3.6 4.2 -4.4 3.6 -0.1 -0.1 -1 -0.3 -1.9 -0.6z"/>
  <path d="M110.7 90.6 c-0.8 -2 1.2 -5.6 3 -5.6 1.8 0 1.6 2.1 -0.6 4.9 -1.6 2 -1.9 2.1 -2.4 0.7z"/>
  <path d="M128 90.3 c0.1 -1.2 5.9 -7.9 6 -6.8 0 1.6 -3.9 7.5 -5 7.5 -0.5 0 -1 -0.3 -1 -0.7z"/>
  <path d="M67.6 84.4 c-1.7 -6.4 1.9 -12.4 7.3 -12.4 l2.5 0 -3.2 2.9 c-1.7 1.7 -3.2 3.9 -3.2 5 0 1.1 -0.5 2.3 -1.1 2.7 -0.6 0.3 -0.9 1.5 -0.6 2.5 0.3 1.1 0.2 1.9 -0.3 1.9 -0.4 0 -1.1 -1.2 -1.4 -2.6z"/>
  <path d="M87 85.9 c0 -1.7 3.7 -5.6 4.6 -4.7 0.3 0.3 -0.6 1.9 -2 3.4 -1.8 2.1 -2.5 2.4 -2.6 1.3z"/>
  <path d="M38.1 82.8 c-0.1 -2.2 1.1 -2.9 2.9 -1.7 1.3 0.7 1.2 0.9 -0.2 0.9 -0.9 0 -1.9 0.6 -2.1 1.3 -0.3 0.7 -0.6 0.6 -0.6 -0.5z"/>
  <path d="M82 81.2 c0 -1.1 4.5 -3.2 6.7 -3.2 1.1 0 0.8 0.6 -1 2 -2.6 2 -5.7 2.7 -5.7 1.2z"/>
  <path d="M115.2 80 c0 -1.4 0.4 -3.6 0.8 -5 l0.8 -2.5 0 2.5 c0 1.4 -0.4 3.6 -0.8 5 l-0.8 2.5 0 -2.5z"/>
  <path d="M101 80.3 c0 -0.6 0.9 -3.2 2 -5.8 1.1 -2.6 2 -6 2 -7.6 0 -2.9 1.3 -3.8 2.6 -1.8 0.3 0.6 0.2 1.4 -0.3 1.8 -0.6 0.3 -1.3 2.7 -1.7 5.3 -0.6 4.2 -4.5 11.1 -4.6 8.1z"/>
  <path d="M120.2 72.2 c0 -4.5 0.5 -8.5 1 -8.8 1.1 -0.7 0.8 13.9 -0.3 15.7 -0.5 0.9 -0.8 -1.9 -0.7 -6.9z"/>
  <path d="M92.7 78.4 c-0.4 -0.4 -0.7 -1.7 -0.7 -2.8 -0.1 -1.9 -0.2 -1.9 -1.1 -0.3 -1.7 2.9 -2.4 1.9 -2.5 -3.8 0 -3.6 0.3 -5.4 1 -5.2 0.6 0.3 1 1 0.9 1.6 -0.2 0.6 0.2 1.1 0.8 1.1 0.6 0 0.9 0.7 0.5 1.5 -0.3 0.9 0 1.5 0.8 1.5 0.8 0 1.7 -0.6 1.9 -1.2 0.3 -0.7 0.5 0.1 0.6 1.7 0 3.7 -1.2 6.9 -2.2 5.9z"/>
  <path d="M40 75.9 c0 -1.3 0.8 -2.3 2.1 -2.6 1.6 -0.4 1.7 -0.8 0.7 -1.4 -1 -0.6 -0.8 -0.9 0.7 -0.9 1.7 0 1.7 -0.2 0.5 -1 -1.2 -0.8 -1.2 -1 0.5 -1 1.5 0 1.7 -0.2 0.7 -0.9 -1.1 -0.6 -0.7 -1.6 1.8 -4.5 1.8 -2 3.8 -3.6 4.6 -3.6 2.1 0 1.8 0.8 -2.1 5.2 -1.9 2.3 -4.2 6.1 -5.1 8.5 -1.7 4.5 -4.4 5.8 -4.4 2.2z"/>
  <path d="M51 72.5 c0 -0.9 3 -6.5 3.5 -6.5 0.7 0 -1.6 6 -2.6 6.6 -0.5 0.3 -0.9 0.2 -0.9 -0.1z"/>
  <path d="M135.4 71.9 c-0.5 -0.8 -0.9 -4.3 -1 -7.9 -0.2 -9.3 -0.2 -9.4 -2.6 -12.5 -2.2 -2.9 -6.3 -13.3 -5.5 -14.2 0.3 -0.2 2.5 0.1 5.1 0.8 4.1 1 4.6 1.4 4.6 3.9 0 2.3 -0.4 2.7 -2 2.3 -1.5 -0.4 -2 0 -2 1.5 0 2.7 2.5 4.5 5.5 4 2.1 -0.4 2.5 -0.1 2.5 1.8 0 1.3 -0.4 2.4 -1 2.4 -0.5 0 -1 1.2 -1 2.6 0 1.4 -0.5 3.4 -1.1 4.5 -0.7 1.4 -0.7 2.9 0.2 5.3 1.3 3.7 0 8.1 -1.7 5.5z"/>
  <path d="M139.3 67 c0.2 -3.1 1.1 -7.1 2.1 -9 1 -2.2 1.3 -3.6 0.6 -3.8 -2.1 -0.7 -0.9 -1.9 2 -2 1.7 0 3 0.4 3 0.9 0 0.5 -0.4 0.9 -0.9 0.9 -0.5 0 -1.4 2 -2 4.5 -0.6 2.4 -2 6.6 -3.1 9.2 l-2 4.8 0.3 -5.5z"/>
  <path d="M24 68.3 c0 -1.9 1.1 -4.3 2.1 -4.3 1.3 0 1.1 1.4 -0.6 3.6 -0.8 1 -1.5 1.4 -1.5 0.7z"/>
  <path d="M115 58.4 c0 -0.9 0.5 -1.4 1.2 -1.2 1.8 0.6 2.1 2.8 0.4 2.8 -0.9 0 -1.6 -0.7 -1.6 -1.6z"/>
  <path d="M119.1 53.7 c-1.3 -5.8 -1.3 -5.8 -4.4 -5.2 -2.4 0.5 -2.8 0.4 -1.7 -0.4 1.3 -0.9 1.3 -1.1 0 -1.1 -1.9 0 -5.4 -5.6 -4.5 -7 0.3 -0.6 0 -1 -0.7 -1 -0.8 0 -3.1 -2.2 -5.1 -4.9 -2.1 -2.7 -5.6 -6.6 -7.9 -8.5 -3.5 -3.1 -3.8 -3.6 -1.9 -3.6 1.2 0 1.9 -0.4 1.6 -1 -1.4 -2.2 5.2 -0.9 7.4 1.4 1.3 1.4 2.9 2.2 3.7 1.9 1 -0.3 1.4 0.3 1.4 2 0 1.7 0.5 2.4 1.8 2.3 3.5 -0.2 13.6 24.8 11.9 29.7 -0.2 0.7 -1 -1.4 -1.6 -4.6z"/>
  <path d="M34.2 52.4 c-0.9 -1 -0.8 -1.4 0.1 -1.8 0.9 -0.3 0.9 -0.7 -0.2 -1.4 -2 -1.4 -0.2 -3.5 2.5 -2.9 1.9 0.3 2.3 0.1 1.9 -1.2 -0.5 -1.7 3.7 -4.9 8.3 -6.3 3 -0.9 3 1.7 0 3.3 -1.4 0.8 -1.8 1.4 -1 1.7 1.5 0.5 1.6 2.2 0.1 2.2 -1.6 0 -7 4 -6.5 4.8 0.2 0.4 -0.6 1.2 -1.8 1.8 -1.6 0.8 -2.5 0.7 -3.4 -0.2z"/>
  <path d="M99 51 c-0.6 -1.1 -0.8 -2 -0.5 -2 0.3 0 1.5 0.9 2.7 2 1.8 1.7 1.9 2 0.5 2 -0.9 0 -2.1 -0.9 -2.7 -2z"/>
  <path d="M104 47.1 c-0.6 -1.2 -0.7 -2.1 -0.1 -2.1 1 0 2.4 3 1.7 3.7 -0.2 0.3 -0.9 -0.5 -1.6 -1.6z"/>
  <path d="M91.3 41.7 c-4.8 -3.9 -9.6 -6.4 -14.9 -7.6 -2.7 -0.7 -6.3 -2.1 -8 -3.1 l-2.9 -2 5.4 0 c4.1 0 7.1 0.8 12.8 3.6 4.1 1.9 7.2 3.8 6.9 4.1 -0.3 0.3 0.6 2.1 2.1 3.9 3 4 2.6 4.3 -1.4 1.1z"/>
  <path d="M94.9 37.3 c-0.5 -1.1 -15.5 -9.3 -17.8 -9.8 -1 -0.2 -5.2 -1.9 -9.3 -3.9 -4.2 -2 -8.2 -3.6 -8.9 -3.6 -0.7 0 -1 -0.3 -0.7 -0.6 0.9 -0.8 15 2.3 20.8 4.6 7.4 2.9 18.4 11.9 16.7 13.7 -0.3 0.2 -0.7 0 -0.8 -0.4z"/>
  <path d="M36.1 29.6 c-1.9 -0.7 -3.7 -1.8 -3.9 -2.4 -0.2 -0.7 -1.5 -1.2 -2.8 -1.2 -1.3 0 -2.4 -0.4 -2.4 -1 0 -0.5 1.5 -1 3.3 -1 1.7 0 5.3 0 8 0 2.7 0 6.6 0.8 9.2 2 2.4 1.1 5 2.1 5.7 2.1 0.7 0.1 -1.2 0.5 -4.2 0.9 -3 0.4 -6.4 0.9 -7.5 1.3 -1.1 0.3 -3.5 0 -5.4 -0.7z"/>
  <path d="M53.7 20.4 c-0.3 -0.4 -3.5 -0.7 -7.1 -0.8 -5.3 -0.1 -6.9 -0.5 -9 -2.5 -2 -1.9 -2.9 -2.2 -3.8 -1.3 -1.5 1.5 -2.8 1.5 -2.8 0.2 0 -1.6 7.2 -5.5 9.4 -5.1 1.1 0.1 3.8 1.8 6 3.7 2.8 2.4 5 3.4 7.2 3.4 2.6 0 3.2 0.4 2.8 1.5 -0.6 1.6 -1.7 1.9 -2.7 0.9z"/>
  <path d="M85.4 18.9 c-4 -1.9 -5.5 -4.9 -2.5 -4.9 4.4 0 9.1 1.4 9.1 2.6 0 0.8 -0.5 1.4 -1.1 1.4 -0.6 0 -0.9 0.7 -0.5 1.5 0.7 1.9 0 1.8 -5 -0.6z"/>
  <path d="M118.7 18.4 c-0.4 -2.1 -0.1 -2.5 1.6 -2.2 2.7 0.4 3.1 2.1 0.8 3.5 -1.6 1 -2 0.9 -2.4 -1.3z"/>
  <path d="M74.6 14.2 c-0.3 -0.5 -3.3 -1.7 -6.8 -2.7 -3.5 -1 -7.2 -2.5 -8.3 -3.3 -1.8 -1.2 -1.5 -1.3 3 -0.7 2.8 0.3 6.6 0.7 8.5 0.9 5.9 0.6 12.4 4.6 7.4 4.6 -0.8 0 -1.2 0.5 -0.9 1 0.3 0.6 -0.1 1 -0.9 1 -0.8 0 -1.7 -0.4 -2 -0.8z"/>
  <path d="M86.3 7.4 c-1.3 -1.4 -2.3 -3.5 -2.3 -4.6 0 -1.8 0.4 -1.9 4.3 -1.3 2.3 0.4 4.9 1.1 5.7 1.6 1.2 0.7 1.1 1 -0.6 1.5 -1.6 0.4 -2 1.2 -1.7 3.2 0.4 2.3 0.3 2.4 -0.7 1 -1.3 -2.2 -3.4 -2.4 -2.6 -0.3 0.7 2 0.5 1.9 -2.1 -1.1z"/>
  <path d="M68.7 3.1 l-2.8 -1.8 3.8 -0.6 c7.4 -1.3 9.1 -0.4 5.9 2.9 -1.9 1.9 -3.5 1.8 -6.9 -0.5z"/>
 </g>
 <g fill="#373a7a">
  <path d="M69.8 152.3 c-1.3 -0.3 -1.8 -1.5 -1.8 -4.4 0 -3.2 0.3 -3.9 2 -3.9 1.1 0 2 -0.3 2 -0.6 0 -0.3 -2.9 -3.8 -6.5 -7.7 -3.6 -3.9 -6.5 -7.5 -6.5 -7.9 0 -0.4 -0.7 -0.8 -1.5 -0.8 -1 0 -1.2 0.6 -0.8 1.8 0.4 0.9 -0.5 0.4 -1.9 -1.3 -2.6 -3 -2.1 -4.8 0.7 -2.5 1.2 1 1.5 0.9 1.5 -0.6 0 -1 -1.7 -3.7 -3.7 -5.9 -2.1 -2.2 -1.5 -1.8 1.2 0.9 2.8 2.7 5.2 5 5.5 5 0.3 0 1.3 1 2.3 2.3 1.3 1.7 1.5 2.3 0.5 2.3 -0.7 0.1 0.5 0.7 2.7 1.5 2.2 0.8 4.8 1.2 5.8 0.9 1.1 -0.4 1.7 0 1.7 1.1 0 0.9 0.5 1.3 1 1 0.6 -0.3 1 0.1 1 0.9 0 0.8 0.8 2 1.8 2.5 1.6 1 1.6 1 -0.1 1.1 -1.4 0 -1.6 0.4 -0.7 1.9 1.8 3.4 1.1 4.6 -1.3 2.3 -3.1 -2.9 -4.1 -2.8 -2.1 0.3 1.6 2.4 1.5 2.5 -0.5 2.5 -2.9 0 -3.9 2.9 -1.6 4.6 1.9 1.4 3.9 0.9 3 -0.7 -0.4 -0.5 -0.1 -0.9 0.4 -0.9 0.6 0 1.1 1.1 1.1 2.5 0 2.5 -1.1 2.9 -5.2 1.8z"/>
  <path d="M80 150.6 c0 -3.5 1.3 -4.6 5.1 -4.6 2.8 0 3.9 0.4 3.9 1.5 0 1.1 1.2 1.5 4.3 1.6 l4.2 0.1 -5 1.3 c-7 1.8 -12.5 1.9 -12.5 0.1z"/>
  <path d="M59 149 c0 -2.2 0.1 -2.3 2.4 -1.4 2.3 0.9 2 3.4 -0.4 3.4 -1.3 0 -2 -0.7 -2 -2z"/>
  <path d="M101.2 145.3 c-1.9 -1.3 -2.8 -1.4 -4.3 -0.5 -2.5 1.6 -2.9 1.5 -2.9 -0.7 0 -3.1 4.8 -3.7 7.6 -1 2.4 2.2 3.5 1.4 1.2 -0.9 -1.3 -1.3 -0.5 -1.5 3 -0.6 2.7 0.8 2.9 3 0.3 4.4 -2.4 1.2 -2.1 1.3 -4.9 -0.7z"/>
  <path d="M81 141.5 c0 -0.8 0.7 -1.5 1.5 -1.5 0.8 0 1.5 -0.4 1.5 -1 0 -0.5 -0.7 -1 -1.5 -1 -0.8 0 -1.5 -0.7 -1.5 -1.5 0 -1.7 0.2 -1.8 2.4 -0.9 0.9 0.3 1.3 1 1 1.5 -0.3 0.5 1.4 1 3.8 1.1 l4.3 0.1 -3.7 0.4 c-5.2 0.6 -4.8 2.3 0.5 2.4 3.9 0.1 4 0.2 1.2 0.9 -5.3 1.4 -9.5 1.1 -9.5 -0.5z"/>
  <path d="M63.7 137.5 c-4.1 -4.8 -3.7 -6.3 0.4 -1.7 3.9 4.2 5.2 6.2 4.3 6.2 -0.5 -0.1 -2.6 -2.1 -4.7 -4.5z"/>
  <path d="M26.7 134.4 c-0.8 -0.8 0.2 -5.5 1.4 -6.8 0.5 -0.6 0.9 0 0.8 1.5 -0.1 3.2 -1.3 6.2 -2.2 5.3z"/>
  <path d="M117 132.2 c-1.4 -0.1 -3.6 -0.7 -5 -1.2 -1.4 -0.4 -3.7 -1.1 -5.2 -1.4 -2.8 -0.6 -4 -3.6 -1.4 -3.6 0.8 0 1.7 -0.7 2 -1.6 0.5 -1.3 1.4 -1.5 3.8 -1 1.8 0.3 3.5 1.1 3.9 1.7 0.3 0.6 2.3 1.1 4.3 1.1 3.5 0 4.8 1.1 2.4 2.1 -1 0.4 -1 0.6 0 0.6 1.9 0.1 1.4 2.8 -0.5 3.3 -1 0.2 -2.9 0.2 -4.3 0z m-1 -2.1 c0 -1.2 -3.9 -2.5 -4.8 -1.6 -0.7 0.7 1.7 2.5 3.6 2.5 0.6 0 1.2 -0.4 1.2 -0.9z"/>
  <path d="M24 131.5 c0 -1.8 2.4 -7.5 3.2 -7.5 1.1 0 1.1 0 -1.2 4.5 -1.1 2.2 -2 3.5 -2 3z"/>
  <path d="M45 129 c-1.2 -1.6 -1.8 -3 -1.4 -3 0.3 0 0 -0.8 -0.7 -1.7 -1.3 -1.6 -1.2 -1.7 0.3 -0.5 1 0.8 1.6 1.7 1.5 2.2 -0.1 0.4 1.1 1.9 2.6 3.4 1.8 1.7 2.3 2.6 1.3 2.6 -0.8 0 -2.4 -1.3 -3.6 -3z"/>
  <path d="M16.7 123.6 c-1.6 -2.3 -1.6 -2.9 -0.2 -5.8 l1.5 -3.3 -0.3 4.3 c-0.1 2.3 0.1 4.2 0.5 4.2 0.5 0 0.8 -0.5 0.8 -1.2 0 -0.6 0.2 -0.9 0.5 -0.6 0.3 0.3 0.2 1.5 -0.3 2.8 l-0.8 2.2 -1.7 -2.6z"/>
  <path d="M117 124 c0 -0.9 4 -3 5.6 -3 1.2 0 0.2 2.9 -1.2 3.4 -2.4 0.9 -4.4 0.7 -4.4 -0.4z"/>
  <path d="M70.8 121.8 c-2.8 -2.1 -1.8 -3.4 1.4 -1.7 1.2 0.7 3.5 1.2 5 1 1.4 -0.1 2.9 0.2 3.3 0.8 0.3 0.6 0 1.1 -0.7 1.2 -0.7 0 -2.5 0.2 -4 0.3 -1.5 0.1 -3.7 -0.6 -5 -1.6z"/>
  <path d="M49.8 120.9 c-1 -0.5 -2.3 -2 -2.9 -3.2 -1 -1.8 -0.6 -1.7 2 0.7 3.9 3.7 4.2 4.5 0.9 2.5z"/>
  <path d="M22 118.5 c0 -0.8 -0.7 -1.5 -1.5 -1.5 -0.8 0 -1.5 -0.4 -1.5 -1 0 -0.5 0.5 -1 1 -1 0.6 0 1 -0.7 1 -1.5 0 -0.8 0.4 -1.5 1 -1.5 0.5 0 0.9 -1.8 0.8 -3.9 -0.1 -2.4 0.5 -4.5 1.4 -5.5 1.7 -1.6 1.4 -2.4 3.4 11.5 0.6 4.2 0.4 4.7 -1.7 5.2 -3.5 1 -3.9 0.9 -3.9 -0.8z"/>
  <path d="M90.3 119.3 c0.9 -0.2 2.5 -0.2 3.5 0 0.9 0.3 0.1 0.5 -1.8 0.5 -1.9 0 -2.7 -0.2 -1.7 -0.5z"/>
  <path d="M63 114.3 l-4.5 -4.5 4.8 3.8 c2.6 2.1 4.7 4.2 4.7 4.6 0 1.1 0 1.1 -5 -3.9z"/>
  <path d="M105.5 115 c0.3 -0.5 1.6 -1.5 2.8 -2.1 2.2 -1.2 2.2 -1.2 0.3 1 -1.9 2.1 -4.3 3 -3.1 1.1z"/>
  <path d="M42.5 108 c-0.8 -1.6 -1.5 -4.2 -1.5 -5.7 0.1 -2.6 0.2 -2.7 1.5 -0.9 1.9 2.5 3.6 1.1 2.8 -2.4 -0.7 -3.6 0.9 -3.9 2.7 -0.5 0.7 1.4 2.1 2.5 3.1 2.5 0.9 0 2.4 1.1 3.3 2.5 1.5 2.3 1.5 2.5 -0.1 2.5 -0.9 0 -2.7 -1 -4 -2.2 l-2.3 -2.1 0 2.6 c0 1.4 -0.5 2.9 -1.1 3.2 -0.6 0.4 -0.8 1.3 -0.5 2.1 1 2.7 -2.4 1.4 -3.9 -1.6z"/>
  <path d="M93 110.3 c0 -0.6 1.4 -1.3 3 -1.7 1.7 -0.3 4 -1.5 5.2 -2.6 1.2 -1.1 2.9 -2 3.7 -2 1.3 0 1.4 0.2 0.2 0.9 -1.1 0.7 -1 1 0.5 1.4 1.9 0.5 1.9 0.5 0 0.6 -1 0 -2.4 0.8 -3 1.6 -1.3 1.7 -9.6 3.2 -9.6 1.8z"/>
  <path d="M83 106 c0 -1.3 1.2 -1.7 6.9 -2.3 2.9 -0.4 4 -0.2 3 0.4 -0.7 0.5 -2.9 0.9 -4.6 0.9 -1.8 0 -3.3 0.5 -3.3 1 0 0.6 -0.4 1 -1 1 -0.5 0 -1 -0.5 -1 -1z"/>
  <path d="M62.4 102.8 c-2 -2.4 -4.4 -6.4 -4.4 -7.3 0 -0.3 0.8 -0.1 1.8 0.5 2.6 1.5 7.6 3.3 8.5 3.1 0.5 -0.1 0.6 0.3 0.2 0.9 -0.3 0.5 -0.1 1 0.6 1 0.7 0 1 0.2 0.8 0.4 -0.3 0.3 -2.1 0.1 -4.2 -0.3 -4.1 -1 -4.5 -0.6 -2 2.1 0.9 1 1.4 1.8 1.1 1.8 -0.2 0 -1.3 -1 -2.4 -2.2z"/>
  <path d="M7 101.4 c0 -1.2 0.7 -2.7 1.5 -3.4 2 -1.7 2.1 0.9 0 3.6 -1.4 1.9 -1.4 1.9 -1.5 -0.2z"/>
  <path d="M106 101.7 c0 -0.8 1.2 -2.2 2.6 -3.2 2.4 -1.6 2.5 -1.6 1.5 0.3 -0.5 1 -1.7 2.4 -2.5 3.2 -1.3 1 -1.6 1 -1.6 -0.3z"/>
  <path d="M112 100.2 c0 -0.8 7.6 -6.2 8.8 -6.2 0.4 0 1.4 -1.4 2.2 -3.1 0.8 -1.7 1.9 -3 2.4 -2.9 0.5 0.1 1.3 -0.4 1.8 -1.2 0.6 -0.8 0.7 -0.5 0.2 1.2 -1.1 4 -4.6 8 -7 8 -1.2 0 -2.7 0.7 -3.4 1.6 -1.7 2 -5 3.7 -5 2.6z"/>
  <path d="M27 98 c0 -0.5 0.7 -1 1.5 -1 0.8 0 1.5 0.5 1.5 1 0 0.6 -0.7 1 -1.5 1 -0.8 0 -1.5 -0.4 -1.5 -1z"/>
  <path d="M2.2 92.8 c-1.9 -9.2 -2.6 -18.8 -1.2 -18.8 0.7 0 0.9 0.8 0.5 2 -0.9 2.7 2.3 4 4 1.7 0.7 -1 1.5 -1.7 1.9 -1.7 0.3 0 0.7 3.7 0.7 8.3 0.1 4.5 0.4 7.2 0.6 6 0.5 -2.8 2.6 -4.5 4.6 -3.7 3.2 1.2 3.1 6.6 -0.2 5.7 -0.9 -0.2 -2.3 0.3 -3 1.1 -1.1 1.3 -1.1 1.6 0 1.7 1.2 0 -4.4 2.6 -6.2 2.8 -0.3 0.1 -1.1 -2.3 -1.7 -5.1z m2.8 -10.3 c0 -1.6 -0.6 -2.5 -1.5 -2.5 -0.9 0 -1.5 0.9 -1.5 2.5 0 1.6 0.6 2.5 1.5 2.5 0.9 0 1.5 -0.9 1.5 -2.5z"/>
  <path d="M26.3 88 c0 -2.5 0.2 -3.5 0.4 -2.2 0.2 1.2 0.2 3.2 0 4.5 -0.2 1.2 -0.4 0.2 -0.4 -2.3z"/>
  <path d="M89.8 91.3 c-1 -0.2 -1.8 -0.9 -1.8 -1.4 0 -0.6 -0.3 -0.8 -0.7 -0.6 -0.5 0.3 -1.7 0.1 -2.8 -0.3 -1.8 -0.6 -1.6 -1 2 -4.3 2.2 -2 4.5 -3.7 5 -3.6 0.6 0 0.4 0.3 -0.2 0.6 -0.7 0.2 -1.3 1.1 -1.3 1.8 0 0.8 -1 2.1 -2.2 2.9 -2.5 1.8 -1.2 2.1 2.7 0.6 2.4 -0.9 2.5 -0.8 1.5 1 -0.7 1.4 -0.7 2 0 2 0.5 0 1 0.5 1 1 0 1 -0.3 1.1 -3.2 0.3z"/>
  <path d="M128 90.4 c0 -1.7 2.7 -3.7 3.4 -2.5 0.4 0.5 0.2 1.2 -0.4 1.6 -0.5 0.3 -1 0.3 -1 -0.2 0 -0.4 -0.5 -0.1 -1 0.7 -0.5 0.8 -1 1 -1 0.4z"/>
  <path d="M68.6 86.8 c-0.9 -2.1 -1.6 -4.8 -1.5 -6 0.1 -1.7 0.3 -1.5 0.9 0.9 0.4 1.8 1.3 4 2 4.8 0.6 0.8 1 2 0.7 2.7 -0.3 0.7 -1.2 -0.4 -2.1 -2.4z"/>
  <path d="M24.3 85.5 c0 -2.2 0.2 -3 0.4 -1.7 0.2 1.2 0.2 3 0 4 -0.3 0.9 -0.5 -0.1 -0.4 -2.3z"/>
  <path d="M110.5 88 c0.3 -0.5 1.3 -1 2.1 -1 0.8 0 1.4 0.5 1.4 1 0 0.6 -0.9 1 -2.1 1 -1.1 0 -1.7 -0.4 -1.4 -1z"/>
  <path d="M38.1 83.5 c-0.1 -2.1 1.4 -3.4 2.9 -2.5 1.3 0.8 1.3 1 -0.2 1 -0.9 0 -1.9 0.6 -2.1 1.3 -0.3 0.6 -0.6 0.8 -0.6 0.2z"/>
  <path d="M82 81.1 c0 -0.5 1 -1.1 2.3 -1.4 1.2 -0.2 3.1 -0.8 4.2 -1.2 1.5 -0.6 1.3 -0.2 -0.7 1.3 -2.7 2.2 -5.8 2.9 -5.8 1.3z"/>
  <path d="M132.3 79.3 c0.9 -2.1 0.9 -2.7 -0.1 -3.1 -2 -0.6 -1.4 -2.5 0.7 -1.9 1.6 0.4 2.1 -0.2 2.6 -3.4 0.4 -2.2 1.1 -3.9 1.6 -3.9 1.2 0 1.1 3.1 0 4.9 -0.6 0.8 -0.6 2.4 0 3.8 0.5 1.2 0.5 2.3 0 2.3 -0.5 0 -1.1 0.9 -1.4 2 -0.3 1.2 -1.4 2 -2.6 2 -1.9 0 -1.9 -0.2 -0.8 -2.7z"/>
  <path d="M101.9 79.5 c1.7 -3.4 3.1 -5.1 3.1 -3.9 0 0.7 -0.9 2.2 -2.1 3.5 -1.6 1.9 -1.8 2 -1 0.4z"/>
  <path d="M120.3 75 c0 -3 0.2 -4.3 0.4 -2.7 0.2 1.5 0.2 3.9 0 5.5 -0.2 1.5 -0.4 0.2 -0.4 -2.8z"/>
  <path d="M92.7 78.3 c-0.2 -0.5 -0.7 -2 -1.1 -3.5 -0.5 -2.1 -0.3 -2.8 0.8 -2.8 0.8 0 1.6 -0.3 1.9 -0.7 0.2 -0.5 0.1 -0.1 -0.1 0.7 -0.3 0.8 -0.6 2.7 -0.6 4.3 -0.1 2.9 -0.2 3.2 -0.9 2z"/>
  <path d="M40 77 c0 -0.5 0.7 -1 1.5 -1 0.8 0 1.5 0.5 1.5 1 0 0.6 -0.7 1 -1.5 1 -0.8 0 -1.5 -0.4 -1.5 -1z"/>
  <path d="M50.3 77.2 c-0.8 -0.5 -0.8 -1.5 0.2 -4 1.6 -3.6 3 -4.4 1.9 -0.9 -0.4 1.2 -0.7 3 -0.6 4 0.1 1.9 0.1 1.9 -1.5 0.9z"/>
  <path d="M88.9 76.4 c0.6 -0.3 0.8 -1.9 0.4 -3.5 -0.4 -2.4 -0.2 -2.9 1.3 -2.9 1.4 0 1.5 0.3 0.6 0.8 -0.7 0.5 -1.1 1.9 -1 3.2 0.2 1.2 -0.3 2.4 -1 2.6 -0.7 0.1 -0.8 0 -0.3 -0.2z"/>
  <path d="M105.2 69.3 c-0.2 -3.2 0.2 -4.3 1.3 -4.3 0.8 0 1.5 0.5 1.5 1 0 0.6 -0.4 1 -0.9 1 -0.6 0 -1.2 1.5 -1.4 3.3 -0.3 2.8 -0.4 2.6 -0.5 -1z"/>
  <path d="M139.4 66.4 c0.1 -2.8 1 -6.5 1.9 -8.4 1.3 -2.5 1.4 -3.6 0.6 -4.1 -1.9 -1.2 -3.9 0.1 -3.9 2.6 0 1.2 -0.6 3.8 -1.4 5.6 l-1.5 3.4 0.1 -3.5 c0 -1.9 -0.3 -4.5 -0.7 -5.7 -0.4 -1.4 -0.3 -2.3 0.3 -2.3 0.6 0 1.3 1 1.5 2.3 0.3 1.6 0.5 1.4 0.6 -1 0.1 -2.6 -0.3 -3.2 -2.1 -3.5 -1.3 -0.2 -2.4 -1.1 -2.6 -2.3 -0.3 -1.6 -0.1 -1.8 0.9 -0.7 1.9 1.8 6.3 1.6 5.5 -0.3 -0.4 -1.1 0.1 -1.5 1.9 -1.5 1.4 0 2.5 0.5 2.5 1 0 0.6 0.8 1 1.8 1 1.6 0.1 1.6 0.1 0 1.1 -2.4 1.4 -2.3 2.8 0.2 2.2 2.6 -0.7 2.6 0.9 0 2.5 -2.5 1.5 -3.9 4.9 -5.1 11.7 l-0.8 5 0.3 -5.1z"/>
  <path d="M120.4 67.5 c-0.3 -0.8 -0.1 -2.7 0.4 -4.2 1 -2.6 1.1 -2.5 0.9 1.4 -0.2 4.6 -0.4 5.1 -1.3 2.8z"/>
  <path d="M65.2 59.1 c-1.1 -0.6 -1 -1 0.4 -1.5 2 -0.8 3.2 0 1.8 1.4 -0.5 0.5 -1.5 0.5 -2.2 0.1z"/>
  <path d="M33.5 51.4 c1.7 -1.3 1.8 -1.6 0.5 -2.5 -1.2 -0.8 -1.1 -0.9 0.5 -0.7 1.1 0.1 2.6 -0.1 3.3 -0.5 0.8 -0.6 1.2 -0.2 1.2 1 0 2.6 -1.9 4.3 -4.9 4.3 -2.5 -0.1 -2.6 -0.1 -0.6 -1.6z"/>
  <path d="M88.1 38 c-6 -5.7 -10.6 -8.4 -6.6 -4 1.3 1.5 1.4 1.9 0.4 1.6 -0.8 -0.3 -3.3 -1 -5.6 -1.6 -2.4 -0.6 -4.3 -1.7 -4.3 -2.4 0 -1.8 3.9 -2.8 5.9 -1.5 1.2 0.8 1 0.9 -0.9 0.4 -2.2 -0.5 -2.3 -0.4 -0.7 0.5 1 0.7 2.5 0.9 3.4 0.6 1.5 -0.6 11.7 4.3 10.8 5.2 -0.2 0.2 0.7 2 2.2 3.8 1.4 1.9 2.4 3.4 2.2 3.4 -0.2 0 -3.3 -2.7 -6.8 -6z"/>
  <path d="M133 43.1 c0 -0.5 -1.1 -1.2 -2.5 -1.5 -1.3 -0.3 -3 -1.6 -3.6 -2.7 -1 -2 -0.9 -2.1 1.4 -1.5 1.7 0.4 3.1 0.1 4.1 -0.9 2.2 -2.3 2.6 -1.9 2.6 3 0 2.5 -0.4 4.5 -1 4.5 -0.5 0 -1 -0.4 -1 -0.9z"/>
  <path d="M103.8 35.5 c-2.7 -3.6 -2.2 -4.5 2.2 -4.5 3.9 0 4 0.1 4 3.5 0 3 -0.3 3.5 -2.2 3.5 -1.3 0 -3.1 -1.1 -4 -2.5z m2.9 -0.4 c-1 -0.4 -1.8 -1.1 -1.7 -1.6 0.1 -0.5 -0.3 -1.1 -0.9 -1.3 -0.6 -0.2 -1.1 0 -1.1 0.5 0 1.5 2.3 3.3 4 3.2 1.1 0 1.1 -0.2 -0.3 -0.8z"/>
  <path d="M84.2 30.9 c-2.9 -1.7 -5.8 -3.2 -6.5 -3.3 -3 -0.5 -5.7 -1.8 -5.7 -2.7 0 -1.5 1.2 -1.1 8.5 2.7 8.6 4.5 7.3 2.7 -1.6 -2.2 -3.5 -1.9 -5.3 -3.2 -3.9 -2.8 4.9 1.4 10.5 4.3 13.5 7.1 1.7 1.5 2.6 2.5 2.1 2.1 -1.8 -1.4 -2.9 -0.8 -1.6 0.7 1.7 2.1 1.3 1.9 -4.8 -1.6z"/>
  <path d="M133.5 32 c0.4 -1.2 0.2 -2 -0.5 -2 -1.4 0 -3.4 -2 -4.3 -4.2 -1.1 -3.1 1 -2 4.7 2.4 4.1 4.8 4.4 5.8 1.5 5.8 -1.6 0 -1.9 -0.4 -1.4 -2z"/>
  <path d="M37.5 28.5 c-1.6 -0.7 -3.5 -1.1 -4.2 -0.8 -0.7 0.3 -1.3 0.1 -1.3 -0.5 0 -2.1 4.9 -2.2 8.7 -0.1 2.1 1.2 4 2.3 4.2 2.5 1 0.9 -4.7 0.1 -7.4 -1.1z"/>
  <path d="M42.5 26.4 c-7.4 -3.2 -7.7 -3.5 -2.9 -2.7 4.8 0.7 11.7 3.7 10.8 4.6 -1 1 -1.2 0.9 -7.9 -1.9z"/>
  <path d="M93 24 l-2.3 -2 2.3 0 c2.2 0 2.3 -0.1 0.5 -2 -2.1 -2.4 -4 -2.6 -3.1 -0.5 0.3 0.8 0.1 1.5 -0.4 1.5 -0.6 0 -1 -0.6 -1 -1.4 0 -0.8 -1.6 -1.6 -4.1 -2 -2.3 -0.4 -3.9 -0.9 -3.5 -1.3 0.8 -0.9 -1.4 -3.3 -3.1 -3.3 -0.8 0 -1.1 0.5 -0.7 1.1 0.3 0.6 -0.8 0.4 -2.4 -0.5 -1.7 -0.9 -3.4 -2 -3.7 -2.6 -0.3 -0.5 -1.1 -1 -1.6 -1 -0.6 0 -0.7 0.5 -0.3 1.2 0.5 0.8 0.2 0.9 -1 0.5 -1 -0.4 -2.3 -0.7 -2.9 -0.7 -0.7 0 -0.6 -0.4 0.3 -1 1.3 -0.8 1.3 -0.9 0 -1.4 -3.7 -1.1 -4.3 -1.6 -1.5 -1 7.9 1.5 9.5 1.6 9.5 0.5 0 -0.6 0.9 -1.1 2 -1.1 1.1 0 1.9 0.3 1.7 0.8 -0.5 1.5 4.2 5 7.7 5.6 2 0.4 3.6 1.1 3.6 1.6 0 0.6 0.9 1 2 1 1.1 0 2 0.7 2 1.5 0 1.1 1.1 1.5 3.8 1.5 2.9 0 3.9 0.5 4.8 2.4 1 2.2 0.9 2.5 -1.3 2.9 -1.3 0.2 -2.6 0 -2.9 -0.4 -0.3 -0.5 -1.2 -0.9 -2.1 -0.9 -1.3 0 -1.3 0.3 -0.3 1.5 1.8 2.1 0.7 1.9 -2 -0.5z"/>
  <path d="M66 23 c-0.8 -0.5 -1.2 -1.2 -0.9 -1.5 0.8 -0.8 3.9 0.5 3.9 1.6 0 1.1 -1.1 1.1 -3 -0.1z"/>
  <path d="M53 20 c-1.2 -0.8 -1.1 -1 0.8 -1 1.2 0 2.2 0.5 2.2 1 0 1.3 -1.1 1.3 -3 0z"/>
  <path d="M119.3 18.3 c0 -2.5 1.8 -3.1 3.5 -1 0.8 0.9 0.4 1.5 -1.3 2.3 -2 1 -2.2 0.8 -2.2 -1.3z"/>
  <path d="M40.5 19 c-1.2 -0.4 -2.7 -1.5 -3.4 -2.4 -1.2 -1.4 -1.1 -1.6 0.5 -1 1 0.4 2.6 1.3 3.4 2 0.8 0.7 3.3 1.4 5.5 1.7 l4 0.4 -4 0.1 c-2.2 0 -4.9 -0.3 -6 -0.8z"/>
  <path d="M41.5 16 c-1 -1.1 -2.6 -2 -3.6 -2 -2.2 0 -3.4 -1.7 -1.7 -2.3 1.5 -0.5 5.6 1.1 7.9 3 0.8 0.7 2.3 1.3 3.2 1.3 0.9 0 1.9 0.5 2.2 1 1.2 2 -6.1 1.1 -8 -1z"/>
  <path d="M31.2 15.8 c0.3 -0.7 1.3 -1.5 2.4 -1.7 1.6 -0.3 1.7 -0.1 0.5 1.3 -1.6 1.9 -3.4 2.1 -2.9 0.4z"/>
  <path d="M86.7 10.1 c-1.8 -3.2 -2.3 -9.1 -0.7 -9.1 0.6 0 1 0.5 1 1.2 0 0.6 0.3 0.8 0.7 0.5 0.3 -0.4 1.5 0.7 2.5 2.3 2.1 3.6 2.4 6.3 0.4 3.4 -2.1 -2.8 -3.1 -1 -1.1 2 1.4 2.1 1.5 2.6 0.3 2.6 -0.7 0 -2.1 -1.3 -3.1 -2.9z"/>
  <path d="M78.6 4.5 c-0.6 -1.7 -3.6 -2.1 -3.6 -0.5 0 1.7 -3.6 1.1 -6.1 -1 -1.3 -1 -1.8 -1.9 -1.1 -2 0.6 0 1.2 0.5 1.2 1 0 0.6 0.5 1 1.1 1 0.5 0 0.8 -0.4 0.4 -0.9 -0.3 -0.5 -0.1 -1.2 0.4 -1.5 0.5 -0.3 1.1 0.1 1.4 0.8 0.3 0.8 0.1 1.7 -0.6 2 -0.7 0.2 -0.4 0.5 0.7 0.5 1.4 0.1 1.7 -0.4 1.3 -1.9 -0.4 -1.7 0 -2 2.9 -2 3.1 0 3.4 0.3 3.4 3 0 3.3 -0.5 3.8 -1.4 1.5z"/>
  <path d="M90.6 3.4 c-0.4 -1.1 -0.1 -1.4 1.1 -1.2 0.9 0.2 1.8 0.9 2.1 1.6 0.6 1.8 -2.5 1.5 -3.2 -0.4z"/>
 </g>
 <g fill="#046f7e">
  <path d="M74.3 151.8 c-1.3 -2.1 -1.2 -3.8 0.2 -3.8 1.7 0 2.6 -3.5 1.2 -4.9 -0.8 -0.8 0.2 -1.1 3.6 -1.1 3.5 0 4.7 0.4 4.7 1.5 0 0.8 0.6 1.5 1.4 1.5 0.8 0 1.7 0.7 2 1.6 0.9 2.3 0.8 2.4 -1.5 2.4 -1.1 0 -1.8 0.4 -1.5 0.9 0.6 1 -4.5 3.1 -7.5 3.1 -1 0 -2.1 -0.6 -2.6 -1.2z"/>
  <path d="M58.7 149 c-0.3 -1.3 0 -2 0.9 -2 0.7 0 1.8 0.9 2.4 2 0.9 1.7 0.8 2 -0.8 2 -1.1 0 -2.2 -0.9 -2.5 -2z"/>
  <path d="M116 130 c-2.5 -2.1 -5 -2.6 -5 -1 0 0.6 -2 1 -4.5 1 -3.7 0 -4.5 -0.3 -4.5 -1.9 0 -1.7 0.8 -1.9 10.3 -1.6 5.6 0.1 10.5 0.3 11 0.4 0.4 0 0.7 1.2 0.7 2.6 0 2.1 -0.5 2.5 -2.8 2.5 -1.6 0 -3.9 -0.9 -5.2 -2z"/>
  <path d="M59 127.7 c0 -0.9 -0.6 -1.7 -1.2 -2 -0.7 -0.2 -1 -0.7 -0.6 -1.1 0.8 -1 4.9 1.6 4.5 2.8 -0.6 1.7 -2.7 1.8 -2.7 0.3z"/>
  <path d="M78 124.2 c-4.6 -2.2 -3.7 -3.5 1.8 -2.7 5.1 0.8 6.2 1.2 6.2 2.4 0 1.6 -4.9 1.8 -8 0.3z"/>
  <path d="M118.5 124 c-1.8 -0.8 -1.7 -0.9 0.8 -0.9 1.6 -0.1 2.6 0.3 2.2 0.9 -0.3 0.6 -0.7 1 -0.8 0.9 -0.1 0 -1.1 -0.4 -2.2 -0.9z"/>
  <path d="M22.6 120.2 c-2.3 -3.8 -0.9 -17.8 1.8 -16.9 1.3 0.4 2.7 8.3 1.9 11 -0.2 0.9 0 1.7 0.6 1.7 1.7 0 1.3 2.1 -0.6 3.6 -2.1 1.5 -3 1.7 -3.7 0.6z"/>
  <path d="M42 106.7 c-2.4 -5.4 -3.8 -13.3 -2.2 -12.3 0.7 0.4 1.2 1.7 1.2 3 0 1.2 0.4 2.6 0.9 3.2 0.5 0.5 1.8 3 2.9 5.7 1.8 3.9 1.8 4.7 0.6 4.7 -0.8 0 -2.4 -1.9 -3.4 -4.3z"/>
  <path d="M7 100.1 c0 -0.5 0.7 -1.4 1.5 -2.1 1.2 -1 1.5 -1 1.5 0.3 0 0.8 -0.7 1.7 -1.5 2.1 -0.8 0.3 -1.5 0.2 -1.5 -0.3z"/>
  <path d="M3 96.2 c0 -1 0.6 -3 1.3 -4.5 1.3 -2.9 4.7 -3.6 6.6 -1.3 0.9 1.1 0.4 2 -2.4 4.5 -4.1 3.5 -5.5 3.9 -5.5 1.3z"/>
  <path d="M133 78 c1.1 -2.1 2 -4.8 2 -5.9 0 -2.7 1 -5.1 2.2 -5.1 0.6 0 0.8 1.2 0.4 2.8 -0.3 1.5 -0.8 4.4 -1.1 6.5 -0.6 4.8 -1.1 5.7 -3.6 5.7 -1.9 0 -1.9 0 0.1 -4z"/>
  <path d="M0.1 74.8 c0.1 -1.3 0.5 -3.6 0.9 -5.3 0.7 -2.7 0.8 -2.5 0.9 1.7 0 2.6 -0.3 5 -0.9 5.3 -0.6 0.3 -0.9 -0.4 -0.9 -1.7z"/>
  <path d="M31.9 54.9 c-1.1 -0.7 -0.7 -1.5 2.1 -4 6.9 -6 13 -8.8 13 -5.9 0 0.6 -0.6 1 -1.4 1 -0.8 0 -3.9 2.2 -6.8 4.9 -4 3.7 -5.8 4.7 -6.9 4z"/>
  <path d="M142.3 54.3 c-0.7 -0.2 -2.1 -2.4 -3.2 -4.8 -1.1 -2.4 -2.8 -4.6 -4 -5 -2.1 -0.6 -4.5 -6.7 -2.9 -7.3 0.4 -0.2 0.8 -1 0.8 -1.8 0 -2.1 3.1 -1.7 3.7 0.5 0.2 1 1.5 2.4 2.7 3.1 1.3 0.6 3.2 3.3 4.3 5.8 1.8 4 1.9 4.8 0.7 5.5 -0.9 0.5 -1.2 1.6 -0.9 2.8 0.4 1 0.5 1.9 0.3 1.8 -0.2 0 -0.9 -0.3 -1.5 -0.6z"/>
  <path d="M113.2 45.8 c-0.6 -1.7 -1.7 -2.8 -2.4 -2.6 -0.7 0.3 -2.6 -1.6 -4.3 -4.1 -1.6 -2.5 -5.7 -7.4 -9.1 -10.8 -3.4 -3.5 -5.8 -6.3 -5.3 -6.3 0.4 0 2.8 2.1 5.3 4.7 2.4 2.6 4.8 4.5 5.1 4.1 0.9 -0.9 -10.4 -12.9 -11.9 -12.6 -2.4 0.4 -7.5 -1.4 -9.2 -3.3 -0.9 -1 -2.7 -1.9 -3.9 -1.9 -4.7 0 -5.7 -5.5 -1.2 -6.2 1.4 -0.2 2.1 -1 2.1 -2.1 -0.1 -1.2 0.5 -1.7 2.2 -1.7 2.1 0 2.4 0.5 2.4 3.4 0 3.4 1.3 4.6 4.9 4.6 0.9 0 3.5 1.8 5.6 4 2.1 2.2 4.4 4 5 4.1 0.5 0 2.8 2.2 5 4.7 2.2 2.6 4.6 4.7 5.4 4.7 0.7 0 2.1 1.1 3 2.5 0.9 1.4 1.1 2.1 0.4 1.6 -2 -1.2 -1.5 1.5 0.8 4.9 1.2 1.7 1.8 2.1 1.4 1 -1.6 -4.7 -1.5 -4.7 0.9 -0.3 1.4 2.8 2.2 5.7 1.9 7 -0.4 1.9 -0.3 2 0.7 0.8 0.9 -1.2 1.1 -1.2 0.8 -0.1 -0.2 0.8 -1.3 1.7 -2.4 2.2 -1.7 0.6 -2.3 0.1 -3.2 -2.3z m-6.9 -12 c-1.3 -1.2 -2.5 -1.9 -2.9 -1.5 -1 1 1.6 3.7 3.4 3.7 1.3 0 1.2 -0.4 -0.5 -2.2z"/>
 </g>
 <g fill="#55237e">
  <path d="M103.5 143.4 c-1.7 -2.7 -1.7 -2.7 0.6 -2.1 1.3 0.4 3.4 0.7 4.7 0.7 2.9 0 2.8 1.4 -0.3 2.8 -3.3 1.5 -3 1.6 -5 -1.4z"/>
  <path d="M63 136.8 c-2.4 -2.8 -3.5 -4.6 -2.5 -4 2.9 1.5 9.5 9.2 7.9 9.2 -0.5 -0.1 -2.9 -2.4 -5.4 -5.2z"/>
  <path d="M76.3 139.8 c-1.3 -0.6 -2.3 -1.9 -2.3 -3 0 -1.7 0.3 -1.6 3.8 0.6 2.1 1.3 4.7 2.6 5.8 2.9 1.1 0.3 0.4 0.5 -1.6 0.5 -1.9 0 -4.5 -0.4 -5.7 -1z"/>
  <path d="M65.4 134.1 c-5.8 -5.3 -8.5 -9.1 -6.4 -9.1 0.5 0 1.1 0.8 1.4 1.8 0.3 0.9 1.9 2.4 3.4 3.3 2.8 1.6 8.9 8.6 8.1 9.3 -0.2 0.2 -3.2 -2.1 -6.5 -5.3z"/>
  <path d="M79.3 136.8 c-1.3 -0.6 -2.3 -1.7 -2.3 -2.4 0 -0.9 0.9 -0.9 4 0.3 2.2 0.9 3.7 2 3.4 2.4 -0.7 1.2 -2.3 1 -5.1 -0.3z"/>
  <path d="M27.7 135.3 c-1.5 -1.8 -1.3 -6.8 0.3 -7.8 0.8 -0.5 2.5 8.4 1.7 9.1 -0.2 0.2 -1.1 -0.4 -2 -1.3z"/>
  <path d="M54.7 127.5 c-1.5 -1.9 -2.5 -3.5 -2.1 -3.5 0.7 0 2.8 2.5 4.5 5.3 1.5 2.7 0.7 2 -2.4 -1.8z"/>
  <path d="M120.5 126.5 c2.2 -0.8 5.6 -1.3 7.5 -1.3 l3.5 0 -4 1.3 c-2.2 0.8 -5.6 1.3 -7.5 1.3 l-3.5 0 4 -1.3z"/>
  <path d="M43.3 124.8 c-1.5 -1.8 -3.5 -5.8 -2.9 -5.8 0.2 0 1.3 1.6 2.5 3.5 2 3.5 2.2 4.6 0.4 2.3z"/>
  <path d="M118.5 123.9 c-1.9 -0.6 -1.8 -0.8 0.6 -1.7 4.2 -1.7 8.9 -1.9 8.9 -0.3 0 1.3 -7.3 2.9 -9.5 2z"/>
  <path d="M15.4 121.6 c-0.3 -0.8 0.1 -2.7 1 -4.3 l1.5 -2.8 0.1 3.7 c0 3.8 -1.6 6 -2.6 3.4z"/>
  <path d="M51 108.9 c-1.7 -3 -0.7 -3.3 1.8 -0.4 1.6 1.9 1.8 2.5 0.7 2.5 -0.8 0 -1.9 -0.9 -2.5 -2.1z"/>
  <path d="M75 103.9 c0 -0.5 -0.4 -0.7 -1 -0.4 -0.5 0.3 -1 0.1 -1 -0.4 0 -1.3 0.3 -1.3 2.4 -0.5 1.8 0.7 2.2 2.4 0.6 2.4 -0.5 0 -1 -0.5 -1 -1.1z"/>
  <path d="M7 101.2 c0 -1.1 0.7 -2.5 1.5 -3.2 1.2 -1 1.5 -0.9 1.5 0.8 0 1.1 -0.7 2.5 -1.5 3.2 -1.2 1 -1.5 0.9 -1.5 -0.8z"/>
  <path d="M112 100.1 c0 -0.6 1.2 -1.7 2.8 -2.5 1.5 -0.8 4.6 -3.5 6.8 -6 3.2 -3.6 4.3 -4.3 4.8 -3.1 0.8 2.3 -3.3 7.5 -6 7.5 -1.2 0 -2.7 0.7 -3.4 1.6 -1.9 2.1 -5 3.7 -5 2.5z"/>
  <path d="M26.3 89.5 c0 -3.3 0.2 -4.5 0.4 -2.7 0.2 1.8 0.2 4.5 0 6 -0.2 1.5 -0.4 0 -0.4 -3.3z"/>
  <path d="M110.3 91.3 c-0.9 -0.3 -1 -1 -0.3 -2.4 1 -1.9 4 -2.7 4 -1.1 0 1.6 -2.5 4 -3.7 3.5z"/>
  <path d="M26.1 79.3 c-0.1 -1.2 0.4 -2.5 0.9 -2.8 0.6 -0.3 1 -1.3 1 -2.1 0 -2 2.9 -8.8 3.5 -8.2 0.3 0.2 -0.9 3.8 -2.5 7.9 -1.6 4.1 -2.9 6.4 -2.9 5.2z"/>
  <path d="M89.1 72.3 c-0.1 -1.6 0.5 -2.3 1.7 -2.3 1 0 1.3 0.3 0.6 0.8 -0.6 0.4 -1.4 1.4 -1.7 2.2 -0.4 1 -0.6 0.8 -0.6 -0.7z"/>
  <path d="M43 72 c-1.2 -0.8 -1.1 -1 0.5 -1 1.7 0 1.7 -0.2 0.5 -1 -1.2 -0.8 -1.2 -1 0.5 -1 1.7 0 1.7 -0.2 0.5 -1 -1.3 -0.8 -1.2 -1 0.3 -1 2 0 2.1 0.7 0.4 3.7 -0.9 1.6 -1.6 2 -2.7 1.3z"/>
  <path d="M141.1 65.5 c0 -1.1 0.6 -3.3 1.4 -5 1.7 -3.9 1.8 -1.1 0 3.5 -0.9 2.3 -1.4 2.8 -1.4 1.5z"/>
  <path d="M45.9 64.6 c1.6 -1.9 4.4 -2.1 3.9 -0.3 -0.3 0.6 -1.5 1.4 -2.8 1.5 -2.1 0.3 -2.2 0.2 -1.1 -1.2z"/>
  <path d="M120.6 60.4 c-0.4 -3.1 -0.5 -5.9 -0.2 -6.1 0.2 -0.3 0.8 2.1 1.1 5.2 0.4 3.1 0.5 5.8 0.3 6.1 -0.3 0.2 -0.8 -2.1 -1.2 -5.2z"/>
  <path d="M134.6 57.4 c-0.9 -2.3 -0.7 -3.4 0.4 -3.4 0.6 0 1 0.9 1 1.9 0 1.1 0.6 2.2 1.3 2.4 0.7 0.4 0.6 0.6 -0.4 0.6 -0.9 0.1 -2 -0.6 -2.3 -1.5z"/>
  <path d="M129.7 49.3 c-1.1 -2 -1.6 -6.3 -0.8 -6.3 0.5 0 1.1 1.6 1.3 3.5 0.4 3.5 0.3 4.2 -0.5 2.8z"/>
  <path d="M107 39.7 c-1.4 -2.2 -5.5 -7.1 -9.1 -10.8 -3.6 -3.8 -6.2 -6.9 -5.8 -6.9 0.5 0 2.7 2 5 4.5 2.3 2.5 4.7 4.5 5.4 4.5 0.7 0 1.2 0.8 1.1 1.7 0 1 0.8 2.2 2 2.7 2.8 1.3 6.7 7.3 5.1 7.9 -0.7 0.2 -2.3 -1.4 -3.7 -3.6z"/>
  <path d="M115.2 40.8 c-0.6 -1.8 -1.3 -4.2 -1.6 -5.3 -0.4 -1.1 0.4 0.2 1.9 2.9 2.8 5.6 2.8 5.6 1.5 5.6 -0.5 0 -1.3 -1.5 -1.8 -3.2z"/>
  <path d="M44.6 41.1 c-2.2 -0.8 -1.5 -1.5 2.6 -2.5 2.3 -0.5 4.9 0.8 3.7 1.8 -1.1 1 -4.7 1.3 -6.3 0.7z"/>
  <path d="M76.2 34 c-7.6 -2.1 -10.1 -4 -5.5 -4 3.7 0 9.5 2.3 11.3 4.4 0.7 0.9 1.1 1.6 0.9 1.5 -0.2 0 -3.2 -0.9 -6.7 -1.9z"/>
  <path d="M88 30.7 c-1.9 -1.1 -6.2 -3.6 -9.5 -5.4 -3.3 -1.9 -4.9 -3.1 -3.5 -2.7 4.8 1.3 10.5 4.3 14 7.3 4.1 3.6 3.8 3.8 -1 0.8z"/>
  <path d="M109.1 30.7 c-0.7 -1 -1 -2.1 -0.7 -2.4 0.7 -0.7 2.4 0.5 3.5 2.6 1.4 2.5 -1.3 2.4 -2.8 -0.2z"/>
  <path d="M33.2 29 c-1.6 -2.6 -1.6 -2.7 1.2 -3.4 1.6 -0.4 3.9 0.2 6.6 1.6 4 2.1 4.1 2.3 1.9 2.9 -4.8 1.4 -8.4 1 -9.7 -1.1z"/>
  <path d="M41.5 16 c-1 -1.1 -2.6 -2 -3.6 -2 -3 0 -3 -1.5 0.1 -3.3 2.7 -1.6 6 -1.4 6 0.3 0 0.5 1.4 2.2 3.1 3.9 l3.1 3.1 -3.5 0 c-2.1 0 -4.1 -0.7 -5.2 -2z"/>
  <path d="M66.5 11 c-1.1 -0.5 -1.7 -0.9 -1.3 -0.9 0.3 -0.1 1.3 -0.4 2.1 -0.7 0.8 -0.3 1.7 0.2 2 1 0.7 1.8 0.2 1.9 -2.8 0.6z"/>
  <path d="M90.6 3.5 c-0.6 -1.6 0.3 -1.9 2.8 -0.9 0.9 0.3 1.3 1 1 1.5 -0.8 1.4 -3.1 1.1 -3.8 -0.6z"/>
 </g>
 <g fill="#03847d">
  <path d="M72.5 152.1 c-0.3 -0.5 -0.1 -1.2 0.5 -1.6 0.6 -0.4 0.8 -1.1 0.5 -1.6 -1 -1.5 3.2 -1 4.5 0.6 0.7 0.8 2 1.5 2.9 1.5 1.4 0 1.4 0.2 0.1 1 -1.9 1.2 -7.7 1.3 -8.5 0.1z"/>
  <path d="M82.2 147.9 c-1.3 -0.5 -2 -1.3 -1.7 -1.9 0.3 -0.5 -0.3 -1 -1.4 -1 -1.2 0 -2.1 -0.4 -2.1 -1 0 -0.5 2 -1 4.5 -1 2.5 0 4.5 -0.4 4.5 -1 0 -1.3 4.5 -1.3 9.3 0.1 3.6 1 3.8 1.1 2 2.4 -1 0.8 -3.3 1.5 -5 1.5 -2.3 0 -3.3 0.5 -3.3 1.5 0 1.7 -3.2 1.9 -6.8 0.4z"/>
  <path d="M64.4 133.2 c-8.1 -7.3 -8.4 -11.4 -0.4 -4.7 2.3 1.9 4.8 3.5 5.6 3.5 1.5 0 1.7 1.4 0.6 4.2 -0.6 1.4 -1.6 0.9 -5.8 -3z"/>
  <path d="M116.5 130.4 c-0.9 -0.9 -1.3 -2 -0.8 -2.5 1.2 -1.2 15.1 -3.4 16 -2.5 0.4 0.4 -0.7 2.1 -2.5 3.7 -3.3 3 -7.7 3.8 -8.5 1.7 -0.4 -1 -0.6 -1 -0.6 0 -0.1 1.7 -1.6 1.5 -3.6 -0.4z"/>
  <path d="M94.5 128.7 c-2.2 -0.5 -4.6 -1.6 -5.4 -2.4 -0.8 -0.8 -2.8 -1.3 -4.9 -1.1 -2.2 0.2 -3.7 -0.2 -4 -1 -0.7 -2.1 8.8 -1.9 15.6 0.4 2.3 0.8 5.6 1.4 7.1 1.4 2.4 0 2.8 0.3 2.4 2 -0.6 2.3 -4.1 2.5 -10.8 0.7z"/>
  <path d="M22.6 114.1 c-0.4 -4 -0.5 -7.5 -0.2 -7.9 0.3 -0.3 0.6 0.2 0.6 1.1 0 1 0.8 1.7 1.8 1.8 1 0 1.2 0.3 0.5 0.6 -1.9 0.7 -1.6 3.3 0.5 3.3 1.6 0.1 1.6 0.1 -0.1 1.1 -0.9 0.6 -1.5 1.4 -1.2 1.9 0.3 0.4 0.1 1.9 -0.3 3.1 -0.7 1.8 -1.1 0.7 -1.6 -5z"/>
  <path d="M5 81.6 c0 -1.9 0.7 -4.1 1.5 -5 0.8 -0.8 1.5 -1.9 1.5 -2.5 0 -0.6 0.7 -1.1 1.5 -1.1 1 0 1.5 1.1 1.5 3.5 0 1.9 -0.4 3.5 -1 3.5 -0.5 0 -1 1.1 -1 2.5 0 1.8 -0.5 2.5 -2 2.5 -1.6 0 -2 -0.7 -2 -3.4z"/>
  <path d="M1.3 66.5 c0 -2.2 0.2 -3 0.4 -1.7 0.2 1.2 0.2 3 0 4 -0.3 0.9 -0.5 -0.1 -0.4 -2.3z"/>
  <path d="M140 46.7 c0 -2.8 -0.5 -3.5 -3.2 -4.6 -2.9 -1.1 -3.3 -1.8 -3.6 -5.6 -0.3 -5.3 1.4 -6.7 3.9 -3.4 3.7 4.9 8.3 14.3 7.1 14.7 -0.7 0.2 -1 0.8 -0.6 1.3 0.3 0.5 -0.4 0.9 -1.5 0.9 -1.7 0 -2.1 -0.6 -2.1 -3.3z"/>
  <path d="M100.3 23.6 c-1.3 -0.7 -3.1 -2 -4.1 -2.9 -1 -1 -2.3 -1.7 -2.9 -1.7 -0.5 0 -2 -1.1 -3.2 -2.4 -1.3 -1.4 -3.8 -2.6 -6.2 -2.9 -2.2 -0.3 -4.6 -1.1 -5.5 -1.7 -1.2 -1.1 -1.2 -1.4 0.3 -2.6 1.7 -1.2 1.7 -1.4 -0.1 -4.8 -1.1 -2 -1.7 -3.8 -1.5 -4 0.2 -0.2 2.5 -0.2 5 0.1 3.7 0.4 4.9 1.1 5.8 2.9 0.6 1.3 0.8 3 0.5 3.7 -0.5 1.5 8.1 11.7 9.9 11.8 0.7 0 2.2 1.3 3.5 3 2.5 3.1 2.1 3.5 -1.5 1.5z"/>
 </g>
 <g fill="#02a373">
  <path d="M79.5 145.3 c-3.1 -0.8 -12.5 -9.4 -12.5 -11.4 0 -2.9 2.4 -2.3 8.8 2 5.5 3.7 13.6 6.6 15.5 5.4 0.9 -0.5 4.7 2.5 4.7 3.9 0 0.8 -13.1 0.9 -16.5 0.1z"/>
  <path d="M122.7 129.7 c-4.1 -1.2 -4.4 -2.8 -0.6 -3.8 3.6 -1 9.9 -1 9.9 0 0 0.5 -1 0.7 -2.2 0.4 -1.8 -0.4 -2 -0.2 -0.9 0.5 1.2 0.9 1.2 1.3 0.2 2.6 -0.8 0.9 -1.6 1.5 -2 1.5 -0.3 -0.1 -2.3 -0.6 -4.4 -1.2z"/>
  <path d="M92.3 129.3 c-1.3 -0.2 -2.3 -1 -2.3 -1.8 0 -0.7 -0.6 -1.6 -1.2 -1.8 -1.9 -0.8 5.4 -0.8 9.1 -0.1 2.1 0.5 3.1 1.2 3.1 2.5 0 1.9 -2.9 2.3 -8.7 1.2z"/>
  <path d="M7.5 93 c-0.4 -0.6 -1.1 -0.7 -1.7 -0.4 -0.8 0.5 -0.9 -1.6 -0.5 -7.2 0.3 -4.3 1.1 -8 1.6 -8.2 0.6 -0.2 1.1 -1.2 1.1 -2.3 0 -2.6 2.4 -2.4 4.3 0.4 1.5 2.2 1.5 2.2 3.6 0.2 1.9 -1.6 2.4 -1.7 3.1 -0.5 1.4 2.1 1.2 3 -0.6 3.7 -1.3 0.5 -1.3 0.7 -0.2 1.4 1 0.6 0.8 0.9 -0.7 0.9 -1.5 0 -1.7 0.3 -0.7 0.9 1 0.6 0.8 1 -1 1.5 -1.9 0.5 -2 0.8 -0.8 1.6 1.2 0.8 1.2 1 -0.5 1 -1.6 0 -1.7 0.2 -0.5 1 1.2 0.8 1 1.4 -1.5 4 -3.1 3.2 -4 3.6 -5 2z"/>
  <path d="M137.8 39.5 c-1.6 -3.4 -0.1 -4.5 2.3 -1.6 2.3 2.8 2.4 4.1 0.4 4.1 -0.9 0 -2.1 -1.1 -2.7 -2.5z"/>
  <path d="M81.3 5 c-2.9 -3.6 -2.9 -4 0.1 -4 1.8 0 2.7 0.8 3.4 2.9 1.7 4.9 -0.2 5.4 -3.5 1.1z"/>
 </g>
</svg>